<?xml version="1.0" encoding="UTF-8"?>
<svg width="20px" height="18px" viewBox="0 0 20 18" version="1.1" xmlns="http://www.w3.org/2000/svg" xmlns:xlink="http://www.w3.org/1999/xlink">
    <!-- Generator: Sketch 64 (93537) - https://sketch.com -->
    <title>Rectangle</title>
    <desc>Created with Sketch.</desc>
    <g id="Pages" stroke="none" stroke-width="1" fill="none" fill-rule="evenodd">
        <g id="Portfolio" transform="translate(-864.000000, -832.000000)" stroke="#FFFFFF">
            <path d="M873.987045,832.615612 L865.150375,838.689048 C864.743246,838.968867 864.5,839.431209 864.5,839.925227 L864.5,848 C864.5,848.414214 864.667893,848.789214 864.93934,849.06066 C865.207054,849.328374 865.575493,849.495363 865.982935,849.499905 L872.322554,849.033756 L872.577132,843.911258 L875.659633,844.269689 L876.154892,849.5 L882,849.5 C882.414214,849.5 882.789214,849.332107 883.06066,849.06066 C883.332107,848.789214 883.5,848.414214 883.5,848 L883.5,839.925227 C883.5,839.431209 883.256754,838.968867 882.849625,838.689048 L881.036653,837.442994 L880.579026,834.29553 L878.590909,834.637238 L878.590909,836.073774 L873.987045,832.615612 Z" id="Rectangle"></path>
        </g>
    </g>
</svg>