<?xml version="1.0" encoding="UTF-8"?>
<svg width="22px" height="20px" viewBox="0 0 22 20" version="1.1" xmlns="http://www.w3.org/2000/svg" xmlns:xlink="http://www.w3.org/1999/xlink">
    <!-- Generator: Sketch 64 (93537) - https://sketch.com -->
    <title>Group 10</title>
    <desc>Created with Sketch.</desc>
    <g id="Pages" stroke="none" stroke-width="1" fill="none" fill-rule="evenodd">
        <g id="Portfolio" transform="translate(-898.000000, -831.000000)" stroke="#FFFFFF">
            <g id="Group-10" transform="translate(899.000000, 832.000000)">
                <path d="M2,3 L18,3 C19.1045695,3 20,3.8954305 20,5 L20,16 C20,17.1045695 19.1045695,18 18,18 L2,18 C0.8954305,18 1.3527075e-16,17.1045695 0,16 L0,5 C-1.3527075e-16,3.8954305 0.8954305,3 2,3 Z" id="Rectangle"></path>
                <path d="M2,3 L18,3 C19.1045695,3 20,3.8954305 20,5 L20,8 C20,9.1045695 19.1045695,10 18,10 L13,10 L13,10 L13,9.15658904 C13,8.60430429 12.5522847,8.15658904 12,8.15658904 L8,8.15658904 C7.44771525,8.15658904 7,8.60430429 7,9.15658904 L7,10 L7,10 L2,10 C0.8954305,10 1.3527075e-16,9.1045695 0,8 L0,5 C-1.3527075e-16,3.8954305 0.8954305,3 2,3 Z" id="Rectangle"></path>
                <rect id="Rectangle" x="7" y="8" width="6" height="4" rx="1"></rect>
                <path d="M8,0 L12,0 C12.5522847,-1.01453063e-16 13,0.44771525 13,1 L13,3 L13,3 L7,3 L7,1 C7,0.44771525 7.44771525,1.01453063e-16 8,0 Z" id="Rectangle"></path>
            </g>
        </g>
    </g>
</svg>