<?xml version="1.0" standalone="no"?>
<!DOCTYPE svg PUBLIC "-//W3C//DTD SVG 1.1//EN" "http://www.w3.org/Graphics/SVG/1.1/DTD/svg11.dtd" >
<svg xmlns="http://www.w3.org/2000/svg" xmlns:xlink="http://www.w3.org/1999/xlink" version="1.1">
<metadata>
Created by FontForge 20170924 at Fri Nov 30 05:59:12 2018
 By www-data
Copyright (c) 2018 by Maulana Creative. All rights reserved.
</metadata>
<defs>
<font id="Seltons" horiz-adv-x="200" >
  <font-face 
    font-family="Seltons"
    font-weight="400"
    font-stretch="normal"
    units-per-em="1000"
    panose-1="0 0 0 0 0 0 0 0 0 0"
    ascent="750"
    descent="-250"
    x-height="428"
    cap-height="731"
    bbox="-241 -327 750.5 795"
    underline-thickness="50"
    underline-position="-100"
    unicode-range="U+000D-201D"
  />
<missing-glyph 
 />
    <glyph glyph-name=".notdef" 
 />
    <glyph glyph-name="NULL" horiz-adv-x="0" 
 />
    <glyph glyph-name="NULL" horiz-adv-x="0" 
 />
    <glyph glyph-name="nonmarkingreturn" unicode="&#xd;" 
 />
    <glyph glyph-name="space" unicode=" " 
 />
    <glyph glyph-name="E" unicode="E" horiz-adv-x="345" 
d="M126 -175q20 23 37.5 48t35.5 50q17 26 33 52t29 53q1 0 1 -0.5t1 -0.5q0 -2 -0.5 -4t-0.5 -4q4 3 6.5 7.5t10.5 4.5q-1 -5 -2 -9.5t-2 -9.5l9 12q1 -1 2 -1q-5 -11 -9.5 -21t-9.5 -20q4 5 7 10l6 10h1q-5 -8 -9 -17t-9 -17q-23 -38 -49 -75t-53 -72q-5 -6 -11 -11.5
t-11 -11.5q-2 -2 -4 -3q-10 -8 -22.5 -8.5t-25.5 3t-25.5 9t-22.5 10.5q-18 13 -29 31.5t-16.5 39.5t-7.5 43t-3 43q0 72 10 142.5t30 139.5q17 64 38 126t47 123q12 26 26 55t31.5 57.5t38 53t45.5 41.5q10 7 21.5 12.5t22.5 7.5q1 0 2 -0.5t2 -0.5q9 -2 18 -2.5t17 -4.5
q10 -5 19 -10t17 -13q12 -14 21 -29.5t12 -33.5q8 -53 -7 -102.5t-35 -97.5q-10 -26 -22.5 -51t-28.5 -48q-11 -16 -24 -30.5t-30 -25.5q-16 -11 -32 -14q-16 -2 -32.5 5t-27.5 18q-7 4 -8 -3q-21 -63 -34.5 -126.5t-23.5 -128.5q-4 -35 -6 -69.5t2 -69.5q2 -8 2.5 -15
t1.5 -15q1 -1 1 -4q6 3 10 10q33 41 64 82.5t56 88.5q1 4 5 8h2q-2 -5 -2 -9t-2 -8q-13 -29 -29 -56t-34 -53v-3q21 29 40 59t35 62q2 -4 2 -6.5t-2 -5.5q-15 -33 -35 -63.5t-40 -60.5q-4 -7 -10 -16.5t-12.5 -20t-12 -20t-8.5 -15.5q1 0 1 -0.5t1 -0.5zM201 594
q-2 -4 -8 -12q1 0 2 -1q2 3 4 5.5t2 7.5q2 3 7 8l-2 2q-2 -3 -2.5 -5.5t-2.5 -4.5zM303 472q-1 1 -1 2q7 22 15 44.5t14 45t9 46t0 46.5q-2 5 -2.5 5.5t-5.5 -1.5q-14 -6 -24 -14.5t-20 -18.5q-28 -29 -46.5 -66.5t-34.5 -72.5q3 -4 6 -7.5t5 -8.5q1 2 4 5q7 14 14 27t15 27
q2 4 3 7q-10 -25 -20 -48.5t-20 -47.5q-10 -21 -16 -43q-5 -23 -7 -45.5t2 -45.5q7 3 13 9q17 14 30 30t24 35q39 65 63 140h-1q-5 -13 -9.5 -25t-9.5 -25zM136 312q-19 -54 -32.5 -116t-22.5 -123q-4 -27 -7.5 -56t-4 -57.5t3 -56.5t13.5 -54q-12 57 -9 116.5t13 116.5
q2 21 8 52t13.5 62t15 58t12.5 42q3 7 -3 16zM367 577q-1 0 -2 1q0 -2 -1 -3q-3 -13 -6 -25.5t-7 -25.5q-4 -12 -8 -24.5t-9 -24.5q-5 -15 -12 -30.5t-13 -31.5q-22 -44 -48 -80q-8 -11 -15.5 -20t-17.5 -17l-9 -9q1 -3 5.5 -1.5t6.5 3.5q5 3 9 7t9 8q24 23 43 54
q12 20 21.5 38.5t17.5 38.5q-5 -5 -6.5 -11t-5.5 -11q5 16 12.5 33.5t13.5 33.5t11 31.5t9 31.5q-8 -17 -13.5 -35.5t-14.5 -35.5q19 51 30 105zM339 519v1h-2q-6 -17 -13 -35t-15 -36q-9 -22 -19.5 -43t-24.5 -41q-8 -14 -18 -27t-23 -24q-5 -6 -11 -11l-12 -10q11 5 20 14
t19 17q0 -1 1 -1q-6 -5 -11.5 -11t-11.5 -11q3 2 7 4l4 4l4 4q17 15 28 32.5t22 36.5q16 26 29 57t21 51q-4 -5 -6 -11t-5 -12q-1 0 -1 1v1q5 13 10 25t8 25zM270 682q-24 -18 -44 -46q11 11 22 23t22 23zM230 304v1q3 3 6 5.5t6 6.5q0 -1 1 -1q-4 -3 -7 -6z" />
    <glyph glyph-name="F" unicode="F" horiz-adv-x="470" 
d="M128 214q-15 -59 -28 -117.5t-24 -118.5q-6 -36 -11 -71.5t-7 -72.5q-1 -7 1 -14t4 -11q1 -1 0.5 -2t0.5 -3q-7 2 -8 3q-4 8 -4 14q-1 45 6.5 88.5t14.5 88.5q12 57 24 113t24 113q1 4 2 7.5t1 7.5q-1 -3 -2 -6.5t-2 -7.5l-1 1q11 42 21.5 82t21.5 82q-2 -4 -2 -5
q-44 -153 -75 -304q-13 -61 -25 -121.5t-14 -123.5q0 -3 2 -9q0 -1 0.5 -1t0.5 -1q-3 -5 -1 -9t6 -8q-6 -2 -8.5 2t-5.5 7q0 -2 2 -4t2 -4h-3q-1 0 -2 1q-6 4 -12 6.5t-11 7.5q-7 5 -9 12t-2 15q0 35 3.5 71t8.5 71q7 51 18 102q8 42 16.5 83.5t17.5 83.5q5 26 10.5 50.5
t11.5 49.5q2 8 1.5 9.5t-7.5 4.5q-5 0 -10.5 12t-5.5 16q-4 12 -6 21t-2 21q-1 6 5 8t12.5 4.5t13.5 5.5q6 2 8 2q0 1 -0.5 1t-0.5 1q-7 -2 -13.5 -4t-13.5 -4v1q1 0 1.5 0.5t1.5 0.5q11 4 21.5 7.5t21.5 6.5q8 3 11 11q7 20 11.5 35.5t11.5 35.5q3 7 5.5 13t2.5 10
q-1 0 -2 0.5t-2 0.5q-10 -1 -19 -2t-19 -2q-6 -2 -9 6t-9 19q-1 3 7 8q-3 5 -5.5 10.5t-5.5 9.5q5 4 10.5 5t13.5 4q17 4 31 7t29 7q-1 5 -1.5 13t0.5 14l27 42q7 13 9 15t13 2q3 0 7 -5.5t7.5 -13t6.5 -16t4 -15.5q-1 -5 -0.5 -10.5t0.5 -11.5q39 10 79.5 14t79.5 10
q13 2 26 2.5t26 1.5h51t48 -2q-2 -4 -5 -7q17 -1 31 -1.5t28 -2.5q6 -1 9 -4t4.5 -7.5t1.5 -9.5t1 -9q0 -10 -4 -20q0 -5 -7 -3q-11 4 -25 4t-22 -5q-8 -6 -16.5 -12.5t-16.5 -13.5q-1 -1 -5.5 -2.5t-4.5 -0.5q-3 5 -3 13.5t4 12.5l4 4l4 4q-9 0 -22.5 -0.5t-29.5 -1.5
t-31.5 -2.5t-27.5 -3.5q-42 -6 -84 -12.5t-84 -12.5q-5 -1 -10.5 -1.5t-10.5 -2.5h-3q-2 -2 -3 -4q1 0 2 -0.5t2 -0.5q8 2 15.5 3t15.5 3q32 5 63.5 9.5t63.5 9.5h4q-16 -2 -32 -4.5t-33 -5.5q-24 -4 -48.5 -8t-49.5 -9q-5 0 -7 -5l-9 -30q-3 -11 -6 -21.5t-6 -21.5
q-3 -13 6 -10l15 3q43 8 85 13.5t86 5.5q13 0 25.5 -1t24.5 -3q14 -2 23.5 -10.5t15.5 -19.5q5 -11 6.5 -24t-2.5 -24q-1 -13 -12 -20q-6 2 -8.5 5.5t-5.5 8.5q-3 3 -2 4q2 5 -1 13.5t-8 8.5q-24 0 -47.5 1t-47.5 -4q-20 -3 -40 -6.5t-40 -7.5q-1 0 -1 -1l30 4t31 4
q31 3 62 3q-8 -1 -15 -1t-15 -1q-26 -3 -50.5 -6.5t-49.5 -8.5q-22 -7 -44 -11t-42 -15h11q-3 -1 -7 -3q-10 -5 -12 -13q-54 -189 -93 -386q-2 -6 -3 -12t-3 -12q2 9 3.5 18t3.5 18q25 127 57 252q2 10 5.5 24.5t8 30.5t9.5 32t8 29q2 6 2 9h-1zM195 505q1 1 5 12t8 24.5
t7 25.5t3 14q-2 -1 -5.5 -12t-7.5 -24.5t-7 -25.5t-3 -14zM249 694q-3 -6 -4.5 -12t-3.5 -12q4 1 7 10t1 14z" />
    <glyph glyph-name="G" unicode="G" horiz-adv-x="434" 
d="M300 -13q7 17 14 33.5t12 29.5q-2 -5 -4.5 -9t-4.5 -9q-11 -23 -21 -47t-19 -48q-11 -26 -19.5 -52.5t-17.5 -52.5q-2 -6 -3 -14.5t-2 -16.5t-2 -13.5t-3 -4.5q-4 2 -8 3.5t-9 5.5q-3 3 -4.5 3.5t-10.5 2.5q-14 3 -14.5 8t-1.5 6q-1 -3 -1 -5q-8 9 -6.5 23.5t3.5 25.5
q5 20 10.5 39t11.5 39q8 28 19 54.5t17 55.5q-17 -14 -32 -30t-32 -30q-20 -20 -47 -23q-8 -2 -15 0q-19 2 -35 6q-8 2 -16 5.5t-16 6.5q-11 5 -22.5 11.5t-16.5 17.5q-11 20 -14 38t-5 38v-18q-3 22 -0.5 43t4.5 42q12 69 31.5 135t45.5 129q17 38 32.5 74.5t32.5 68.5
q1 3 4 8t6 10.5t6 8.5t5 1q-13 -25 -27 -53t-24 -54q4 6 11 20l15 30t15.5 30.5t11.5 20.5q14 21 28.5 44t32 43t39 34.5t49.5 18.5q17 1 34 -12q20 -14 30 -35t15 -42q4 -20 3 -43t-11 -44q-1 -3 -6 -5q2 7 2 8v6l-2 -6t-3 -7q-9 5 -10 7t0 6q-4 -4 -4.5 -5t-8.5 3
q-3 1 -6.5 3.5t-2.5 5.5q0 4 0.5 5.5t0.5 3.5q-1 -2 -1.5 -4.5t-2.5 -4.5q-5 5 -5.5 7.5t0.5 7.5q-2 -4 -2 -5q-6 5 -7 10t0 11q2 15 4.5 29.5t4.5 29.5q0 4 -2 6q-3 3 -8 0q-17 -9 -29 -24q2 2 5 4t4 3q-37 -38 -61.5 -81t-46.5 -88q-8 -19 -14.5 -37.5t-14.5 -37.5
q-28 -77 -50 -154t-33 -155q-2 -15 -2.5 -29.5t1.5 -29.5q0 -9 6 -3q12 9 24 18.5t24 18.5q2 2 4 3q-26 -26 -55 -45q26 14 47 33.5t41 39.5q1 0 1 -1q-4 -3 -7 -6.5t-6 -7.5v-1l3 3l39 39t38 39q18 20 35.5 40t35.5 40q2 2 3.5 4t3.5 4q14 14 20.5 33.5t14.5 36.5q1 6 -4 5
q-10 -3 -19.5 -5.5t-19.5 -5.5q-15 -4 -29.5 -8t-29.5 -8q-3 -1 -6 0.5t-6 2.5q-8 5 -16.5 8.5t-12.5 12.5q-2 3 -2 7.5t6 6.5q40 10 76 24t77 19q12 -1 24.5 -10t20.5 -22q10 -16 17.5 -35t1.5 -39q-11 -40 -28 -76.5t-34 -74.5q-5 -12 -11 -23.5t-12 -24.5
q-10 -20 -19 -41t-19 -41h-1z" />
    <glyph glyph-name="H" unicode="H" horiz-adv-x="365" 
d="M268 149q0 -2 -2 -4q-17 -65 -33.5 -128.5t-33.5 -128.5q-6 -26 -11 -52t-11 -52v-3q-6 1 -4 9q1 8 2 15.5t3 15.5q2 11 4 20.5t3 20.5q-1 -6 -2.5 -12.5t-3.5 -13.5q-2 -12 -4.5 -24t-4.5 -25q-1 -3 -2.5 -7t-6.5 -3t-8 1.5t-2 3.5q-6 0 -11 0.5t-8 5.5q-3 4 -1.5 13
t2.5 16q3 12 5.5 24t3.5 23q0 2 -1 2q-1 -4 -1.5 -8t-1.5 -9h-1q1 8 2 15t3 15q7 41 16.5 80.5t20.5 79.5q7 30 15.5 60.5t15.5 60.5q1 5 2 8.5t2 8.5q-1 -3 -3 -9.5t-3 -9.5q-1 1 -2 1q2 7 3.5 15.5t3.5 14.5q6 23 12.5 47t11.5 47q0 1 0.5 2t0.5 2q1 8 -6 7
q-9 -1 -29.5 -5t-42 -9t-39.5 -9t-21 -5q-9 -2 -10 -9q-2 -6 -4 -11q1 4 1.5 8t1.5 8q-1 0 0 1q-3 -3 -3 -5q-7 -23 -13.5 -46t-14.5 -46q-3 -11 -6.5 -21t-5.5 -21q-7 -26 -13 -52l-12 -52q-5 -19 -9 -38t-7 -38q-2 -7 0 -13q0 -3 3 -3q4 -1 2 -5q-2 -7 -4.5 -14t-4.5 -14
q-3 -10 -10 -2q-3 4 -11 1q-6 -2 -12 2t-5 10q1 8 2 16.5t3 16.5q5 24 9 47.5t9 46.5q1 5 1.5 8.5t1.5 8.5q-7 -12 -9.5 -25t-7.5 -26q2 11 3 21t3 20q5 32 10 65t10 65q4 20 9.5 39.5t10.5 39.5q1 4 -1.5 7.5t-7.5 3.5q-7 0 -8 1q-2 1 -6 7q-4 4 -6 3q-3 -1 -3 1t-2 6
t-4 4.5t-2 5.5q2 5 5.5 7.5t7.5 4.5q9 4 18 7.5t19 7.5q7 3 11 11q8 28 17.5 55.5t17.5 55.5q9 29 19 56.5t23 55.5q18 42 38.5 82.5t44.5 79.5q5 8 11.5 12t17.5 -4q6 -5 5.5 -8t1.5 -8q3 1 5 -4t2 -9q0 -10 -2 -15q-13 -28 -28 -64.5t-31 -76.5t-30.5 -81.5t-26.5 -78.5
q-7 -17 -12 -38q0 -2 -1 -3h2q9 26 17.5 52.5t17.5 52.5t19.5 52.5t21.5 52.5q-20 -52 -38 -104t-35 -106h6q64 8 125 12q7 0 8 7q10 38 23.5 79.5t27 78t24.5 62.5t15 34q2 4 8 18t13.5 30t15 29.5t12.5 15.5q5 -2 10 2t18 -1q18 -8 18 -13t2 -10q5 -10 -7 -28
q-3 -7 -7 -13.5t-7 -14.5q-4 -10 -7.5 -20t-5.5 -20l3 6h2q-1 -1 -1 -5q-11 -29 -20.5 -56.5t-18.5 -56t-18.5 -59t-19.5 -66.5q16 37 28.5 79t25.5 81q5 17 11 33t12 33q2 5 4 10.5t4 10.5q1 -1 2 -1q-2 -10 -3 -14q-11 -31 -20.5 -61.5t-21.5 -60.5q-9 -26 -17.5 -52.5
t-17.5 -53.5q-1 -6 3 -8q12 -8 21.5 -14.5t15.5 -14.5q8 -11 4 -17l-15 6q-8 2 -17 3.5t-19 -0.5q-6 0 -8 -7q-4 -14 -8 -27t-7 -27q-2 -5 -4 -10.5t-4 -10.5l2 8l2 8q4 15 8.5 29.5t8.5 29.5q0 3 -1 6q-3 -1 -3.5 -2.5t-2.5 -5.5q-14 -48 -27.5 -96t-25.5 -96
q-16 -58 -30.5 -115.5t-29.5 -115.5l-8 -30l-8 -30q2 8 3 16.5t3 16.5q15 65 30 128.5t31 129.5q3 12 6 23.5t6 23.5q2 5 3 9t2 9h-2q0 -9 -3 -18zM-8 -55h2q10 49 20 97t21 94q-13 -45 -24 -93t-19 -98zM211 -46l-12 -48q-4 -19 -8.5 -37t-8.5 -37q-2 -11 -3.5 -21.5
t-2.5 -21.5q-1 -1 -1 -5q7 43 17 85.5t19 84.5zM422 638q2 3 6 11t6 10q-5 -2 -8.5 -11t-3.5 -10zM129 341q20 66 44.5 131t51.5 129h2l-3 -12q-5 -14 -10.5 -25.5t-10.5 -25.5q-6 -17 -14 -35.5t-16 -38.5q-11 -32 -22 -62t-22 -61zM41 351l33 96l1 -1q-8 -24 -16 -47.5
t-16 -47.5h-2z" />
    <glyph glyph-name="I" unicode="I" horiz-adv-x="128" 
d="M14 -29q-8 -34 -15 -67t-13 -67q-2 -20 -1.5 -25t0.5 -7q1 -1 1 -5q-9 1 -10 0t-6 3q-2 2 -6 4q-7 3 -12 4t-13 0q-9 8 -7 16q-1 9 -1.5 18t1.5 18q3 23 7 46t9 46q4 22 13 61.5t21 87t25 97.5t24.5 93t20 74.5t11.5 41.5q2 10 13 10q6 -1 10.5 -2t7.5 -5q5 -1 13 -2.5
t11 -6.5t1.5 -11t1.5 -11q3 -6 2 -12l-2 -12q-5 -26 -14.5 -63.5t-21 -79.5t-23 -85t-22 -80.5t-18 -66t-9.5 -40.5q-6 -25 -11.5 -50t-11.5 -51q6 32 11.5 64.5t12.5 64.5zM168 681q-11 -24 -20.5 -56.5t-16.5 -56.5q-5 -2 -7 -0.5t-2.5 4.5t0 7t0.5 7q7 31 17 61.5
t22 59.5q6 10 10 20q2 2 3.5 4t5.5 -1q3 0 3.5 -2t0 -4.5t-1.5 -4.5t1 -2t2.5 4.5t3.5 5.5q7 -2 7 -5v-4q8 -1 7 -3.5t2 -7.5q3 -4 1 -11t-3 -10q-2 -7 -5.5 -12t-7.5 -10q-1 -2 -3 -4q-11 -23 -19.5 -46t-13.5 -47q0 -3 -3.5 -5.5t-6.5 -1.5q-2 0 -4 2q-3 9 -1 22
q8 26 13.5 47t15.5 50z" />
    <glyph glyph-name="J" unicode="J" horiz-adv-x="267" 
d="M202 647q-12 -4 -23.5 -7t-22.5 -7t-21.5 -8t-21.5 -8l-1 1q1 3 4 4q26 14 52 21q8 2 15.5 3.5t15.5 3.5q6 1 6 8q-3 0 -4 -1q-9 -2 -18.5 -4.5t-18.5 -5.5q-8 -3 -16.5 -6.5t-16.5 -7.5q-5 -2 -11 -3.5t-11 -3.5q-7 -2 -5 4q2 3 5.5 7t3.5 6q-6 0 -13.5 0.5t-15.5 -1.5
q-5 -1 -6 3q-1 2 -3.5 6t-5.5 9t-4.5 9.5t0.5 6.5q0 4 4 8q24 16 48 21.5t52 10.5q42 8 83.5 14.5t83.5 12.5q14 2 29 2t30 -2q10 -2 17.5 -6.5t12.5 -13.5q3 -7 -2 -12q-1 -5 1.5 -7t6.5 -4q12 -5 12 -17q-2 1 -3 0.5t-3 0.5q-9 8 -19 9t-21 0q-23 -3 -45.5 -6.5
t-45.5 -7.5q-5 -1 -9.5 -1.5t-9.5 -1.5q-2 -2 -4 -3q2 -1 2.5 -2t1.5 -2h6q15 2 30.5 5t31.5 5q2 1 5 0q-3 -1 -6.5 -1.5t-6.5 -1.5q-14 -2 -26.5 -4.5t-25.5 -4.5q-5 -2 -6 -3t0 -6q1 -8 -0.5 -14.5t-2.5 -14.5q-2 -9 -3 -17.5t-3 -16.5v-5q1 3 2 3q-10 -46 -22 -91.5
t-26 -91.5h1q2 8 5 16t5 16q4 14 7.5 28.5t9.5 28.5q5 13 8 26t8 26q-1 -2 -1 -6h1q2 11 5.5 23t5.5 23h2q0 -4 -1 -5q-5 -23 -9.5 -46.5t-11.5 -46.5q-14 -55 -29 -110t-32 -109q-13 -42 -27 -82.5t-28 -82.5q-14 -38 -27 -76t-27 -76q-5 -13 -10.5 -24.5t-11.5 -23.5
q-4 -8 -8 -16.5t-8 -16.5q-1 -1 -1.5 -2t-2.5 -2q2 2 2.5 5t2.5 5h-1q-4 -2 -9.5 -11.5t-9.5 -13.5q-13 -14 -28 -12.5t-31 3.5q-6 0 -15.5 3.5t-19 8.5t-17 11.5t-8.5 11.5q-6 19 -8 38.5t0 39.5l1 1l1 -2q1 0 1 -1v38h1q1 -1 1 -4h2v14q0 8 5.5 11.5t11.5 4.5t11 -0.5
t4 -3.5q5 -2 7 -6.5t7 -6.5l2 -2t-2 -3l-1 -1v-1v-29q0 -1 1 -1q0 2 0.5 3t0.5 2l1.5 3l1.5 3q1 -6 3 -9h1q1 2 1 4.5t1 5.5l3 -3q2 3 2.5 5.5t2.5 4.5q1 2 1 4t4 2v1q0 1 0.5 1t0.5 1q17 49 34 96.5t35 95.5q3 10 6 19t7 18q0 3 1 5h-1q-7 -17 -13 -34.5t-13 -35.5l-1 1
q25 73 49.5 146t48.5 146q-5 -20 -10.5 -38t-10.5 -36q1 1 7.5 20t15 47t18 61t17.5 62t14 50.5t6 26.5zM407 705v1q-6 2 -9 2q-10 -1 -20 -1t-20 -2q-14 -2 -27 -4.5t-27 -4.5q-6 -2 -11.5 -3t-11.5 -3q-1 0 -3 -2q1 -1 1.5 -1t1.5 -1h3q6 2 12 3t13 2l40 6l40 6q5 1 9 1
t9 1zM283 635q-1 0 -1.5 0.5t-1.5 0.5q-4 -9 -5 -16q-3 -12 -5 -24t-5 -24q-4 -18 -8 -35.5t-9 -35.5v-3q11 34 19 68t16 69zM170 665q9 -2 17.5 0.5t17.5 4.5l1 2q-2 2 -3 2q-8 -2 -14 -4q-5 -1 -9.5 -2t-9.5 -3zM-73 9h-3q-1 -8 0.5 -15t2.5 -15q0 8 1 15t-1 15zM146 65
q-1 -1 -3 -5q-7 -17 -13.5 -35t-13.5 -36q0 -2 -2 -2l4 12t4 11q20 59 40.5 116.5t40.5 116.5q1 2 1.5 5t2.5 5q8 12 11 25.5t9 27.5q-13 -66 -37 -127.5t-47 -124.5q2 8 3 11q2 5 3 9.5t3 9.5h-2q-1 -5 -1.5 -9.5t-2.5 -9.5zM108 -36q-4 -19 -11.5 -35.5t-17.5 -31.5
q7 17 14 33.5t14 33.5h1zM134 616q24 13 51 18z" />
    <glyph glyph-name="K" unicode="K" horiz-adv-x="347" 
d="M9 -77q4 23 7.5 44.5t7.5 43.5q-2 -11 -4.5 -21t-4.5 -20q-4 -26 -8 -51t-8 -51q-2 -6 -1.5 -12.5t0.5 -13.5v-1l-1 -1q-2 -1 -12.5 0t-14.5 5q-8 16 -8.5 22.5t-0.5 20.5q5 46 14 91l18 90q2 7 2.5 13.5t2.5 12.5q1 5 -2 8q-10 12 -15 26q-3 6 1 12q7 13 18 27l8 10
l8 10q2 3 3 5.5t2 5.5q3 11 6 21.5t6 21.5q4 17 8.5 34.5t9.5 35.5q1 4 1 7.5t1 8.5h-2l-12 -40t-13 -40h-1q26 97 59 190t69 187l1 -1q-8 -20 -15 -39.5t-14 -39.5q-8 -20 -14.5 -40t-14.5 -40q-7 -20 -13.5 -40t-13.5 -40h2q2 4 3 8t3 8q6 17 11.5 33t11.5 32q6 17 12 35
t13 35l36 96q6 15 11.5 30t11.5 30q1 2 2 4.5t2 4.5q6 15 9 15.5t12 -5.5q4 0 9 -3t9 -7.5t6 -9.5t-1 -9h2q-9 -24 -18 -47t-20 -52q3 8 7.5 17l8.5 17q3 -3 -1 -15q-7 -23 -13.5 -42.5t-14.5 -40.5q13 30 25 68q2 -4 1 -12t-3.5 -18t-5.5 -20t-5 -18q-7 -23 -14 -45.5
t-14 -45.5l-12 -38l-12 -38q-1 -3 0 -5q1 1 1.5 1t1.5 1q45 57 89.5 113.5t89.5 113.5q23 29 47.5 57.5t48.5 57.5q5 5 10 10.5t11 7.5q-2 -2 -3 -4q6 2 7.5 3.5t9.5 -6.5q7 3 11 -2q5 -8 6.5 -14.5t3.5 -14.5q0 -6 -5 -8q-4 0 -8 -4q-17 -17 -31.5 -34.5t-28.5 -36.5
q-35 -47 -69.5 -93.5t-69.5 -94.5l-22 -28t-21 -29q-32 -45 -65.5 -87t-69.5 -83q-12 -12 -16 -28q-2 -7 -4 -13.5t-4 -13.5q-2 -4 -1.5 -5t5.5 -3q35 -11 67 -28t61 -36q30 -22 54.5 -42t45 -40.5t39 -41t37.5 -42.5q20 -23 33 -46t26 -49q-7 1 -9.5 -0.5t-4.5 0.5l-19 19
q-15 32 -38.5 59t-49.5 53q-19 19 -39 36.5t-41 33.5q-42 28 -85.5 47t-88.5 36q-2 1 -5.5 -1.5t-3.5 -5.5q-3 -10 -5.5 -19.5t-4.5 -19.5q-4 -17 -7.5 -35t-8.5 -35q0 -2 -0.5 -4t-0.5 -4h-2q6 29 12 59t11 59h-1q-8 -35 -14.5 -70t-14.5 -70h-1zM393 636q-1 1 -2 1
q-5 -6 -9.5 -12t-9.5 -12l2 -1q5 6 9.5 12t9.5 12zM3 193q3 17 5 32.5t5 32.5q3 15 7.5 29.5t7.5 28.5q8 39 21 76t27 75q10 25 20 49.5t21 49.5q0 2 2 4q0 -2 -2 -8h1q4 8 6 13h1q-1 -2 -1 -2.5t-1 -2.5h1q2 5 4.5 9.5t4.5 9.5h1q-37 -98 -69.5 -196.5t-61.5 -199.5z
M342 492q-36 -50 -73.5 -99t-75.5 -97q-1 0 -1 1q2 3 5 6t5 7q8 11 15.5 22t15.5 22q17 22 34 43.5t34 44.5q9 12 18.5 24t18.5 24l3 3q1 0 1 -1z" />
    <glyph glyph-name="L" unicode="L" horiz-adv-x="271" 
d="M197 730q4 -2 7.5 -1t1.5 -6q2 1 1.5 2t1.5 3q5 -2 8.5 -5t8.5 -10q6 -9 8 -15.5t2 -15.5q5 -7 2 -17.5l-5 -17.5q-10 -30 -24.5 -76t-31.5 -101t-34.5 -114t-32.5 -114.5t-26.5 -104t-15.5 -80.5q-8 -41 -13 -82t-7 -83v-19t0.5 -8.5t1 -3t0.5 -3.5q8 4 18 7.5t18 7.5
q36 20 69 42t67 44q12 8 24.5 15t24.5 15q12 7 22 7q8 0 10 -8q0 -5 6 -5q2 -1 3 -2t3 -2q4 -4 6 -8q4 -5 4.5 -6.5t-0.5 -7.5q-8 -1 -15 -5t-14 -9q-20 -14 -40 -27.5t-40 -27.5v-2q17 11 34 22.5t34 22.5l1 -1l-3 -3q-29 -21 -59 -41.5t-59 -43.5l2 -2
q-17 -11 -33.5 -21.5t-33.5 -21.5q8 2 13 3.5t7 2.5h1q-2 -1 -2.5 -1.5t-2.5 -1.5q-29 -19 -64 -8q-37 10 -65 32q-12 10 -17 23.5t-7 29.5q-2 47 1.5 94t11 93t17.5 92t21 91q6 23 17 56.5t24 72t27.5 78.5t28 76t24.5 64t18 43q12 26 19.5 43t18.5 37l3.5 7t3.5 6z" />
    <glyph glyph-name="M" unicode="M" horiz-adv-x="591" 
d="M624 668q0 -3 1 -5l3 3q8 -7 13 -19t7 -21q0 -3 -2 -7l-4 -8q-4 -6 -7.5 -11.5t-6.5 -12.5q-14 -30 -26 -61.5t-25 -63.5t-22.5 -65.5t-19.5 -67.5q-8 -28 -15.5 -56t-14.5 -57q-11 -48 -21.5 -96t-20.5 -97q-6 -29 -10 -57.5t-9 -57.5q-2 -11 -1.5 -20.5t-0.5 -20.5
q0 -2 -1 -3q0 -9 -5 -10t-11 1.5t-12 4.5t-7 -1q-2 2 -4 6.5t-4 19.5v-6h-1q0 2 -0.5 4t-0.5 4q-1 22 1.5 43.5t6.5 42.5l14 80t15 80q3 14 5.5 28.5t4.5 28.5q4 33 12 65l16 64q4 17 8.5 33.5t9.5 33.5q0 1 -1 2q-3 -10 -5.5 -19.5t-5.5 -19.5l-1 1q6 23 12 44.5t12 44.5
q-1 1 -2 1q-2 -3 -3.5 -5.5t-3.5 -5.5q-10 -14 -19 -29t-19 -30q-15 -23 -29.5 -46.5t-29.5 -46.5q-11 -17 -23 -34.5t-24 -34.5q-5 -6 -9.5 -11.5t-9.5 -11.5q8 6 11 9q0 -1 1 -1q-5 -3 -8 -8q0 -1 1 -1q18 18 32 39.5t28 42.5q-12 -21 -25 -41t-29 -38q2 1 2.5 1.5
t2.5 1.5q-2 -4 -2.5 -7.5t-5.5 -5.5q-2 -1 -2 -2.5t-2 -3.5q1 0 1 -0.5t1 -0.5q4 2 8 3.5t7 4.5q8 8 14.5 15.5t14.5 15.5l5 5t6 5q-7 -16 -18 -28t-24 -23h7q-8 -6 -16 -9t-18 0q-9 5 -19.5 5.5t-20.5 3.5q-23 6 -39 18.5t-24 35.5q-6 16 -9 32.5t-5 33.5q-5 35 -5 71t2 72
q1 16 2 30.5t1 29.5q-13 -48 -30 -93t-32 -91h-1q3 14 6.5 27t7.5 27q-3 -4 -4 -8t-3 -8q-22 -69 -46.5 -140t-43.5 -140q-8 -30 -15 -60t-15 -59q0 -1 -0.5 -1t-0.5 -1q2 8 3 16t3 16q8 36 16.5 72.5t17.5 72.5q8 35 17.5 66t23.5 76q12 36 21.5 66t20.5 61q8 25 17.5 47.5
t17.5 43.5q0 1 2 3q-1 -7 -1 -11t-3 -15q5 8 8 17t8 17q4 8 5.5 16.5t3.5 16.5q2 12 2.5 24.5t2.5 25.5q-29 -66 -52.5 -133.5t-47.5 -134.5l6 21l2 10t3 10q0 1 -1 1q-1 -2 -1 -2.5t-1 -2.5q-11 -39 -22.5 -78t-22.5 -79q-6 -21 -12 -42.5t-12 -43.5l-21 -81l-2 -2
q5 18 8.5 36t8.5 36q0 1 -1 1q0 -2 -0.5 -3t-0.5 -3q-13 -52 -25 -104t-22 -106q-4 -18 -6.5 -36t-4.5 -37q-1 -10 9 -12q5 -2 5 -5q0 -2 0.5 -3.5t0.5 -2.5q0 -6 -1 -7q-8 -4 -12 -3q-8 1 -14.5 3t-13.5 4q-17 5 -17 21q-1 10 -0.5 19.5t1.5 19.5q1 9 2 18.5t2 19.5v2
q0 2 -0.5 3t-0.5 3q6 44 14.5 87t18.5 87q17 75 33 148t35 147q17 69 40 134t55 128q7 13 14 25t15 25q4 10 11 20q6 7 14 7t16.5 -3.5t16.5 -9t14 -8.5q1 0 5 -4t8.5 -8t8.5 -8l4 -4q5 -8 6 -17t0.5 -18t-1 -18.5t2.5 -18.5q2 -6 3 -12.5t2 -13.5q1 -11 1 -21.5t1 -21.5
q0 1 1 3q2 -17 1 -33.5t-1 -33.5v7q0 1 1 1v-5q-1 -27 -1.5 -54.5t-0.5 -54.5q2 -35 3.5 -66.5t5.5 -48.5q39 38 70.5 81.5t61.5 85.5q25 35 49.5 70t48.5 70q17 24 32 48t28 50q4 8 8.5 15.5t9.5 15.5t10.5 13t12.5 0zM263 274h1v7q-1 11 -1.5 21t-0.5 21v46t1 46l2 46
l2 46q1 8 1 15t1 14v32h-2v-38q0 -6 -0.5 -11.5t-0.5 -10.5q-1 -11 -2 -22.5t-1 -22.5q-3 -35 -3 -69v-46.5t1 -46.5q0 -7 0.5 -13.5t1.5 -13.5zM260 279q-5 55 -2.5 109.5t4.5 109.5q-3 -17 -3 -34q-1 -17 -2 -33.5t-1 -33.5q0 -26 0.5 -50.5t1.5 -50.5q0 -7 2 -17z
M440 -110h-2q0 -5 0.5 -10t0.5 -10h1v20zM262 506h1v9h-1v-9zM634 586q-3 -8 -6.5 -15.5t-6.5 -15.5q1 -1 2 -1q14 28 26 55h1q-4 -9 -7 -17.5t-7 -17.5h1q5 11 10.5 22t10.5 22v-3q-3 -17 -7 -32.5t-11 -31.5q-3 -14 -9 -31t-12.5 -34.5t-13 -33.5t-9.5 -26
q-33 -104 -59.5 -214t-53.5 -222q-5 -24 -8.5 -48.5t-7.5 -49.5q-2 -8 -2 -16.5t-2 -17.5v10q0 23 3 45.5t7 45.5q8 54 19 106t22 105q3 14 6.5 28t5.5 28v1q-21 -86 -39.5 -171.5t-28.5 -174.5v7v3.5t-2 3.5q-1 0 -1 4q3 19 5.5 37.5t4.5 36.5q0 2 -1 3l-6 -39
q-1 -10 -2 -19.5t-2 -19.5q-2 -11 -2 -20.5t2 -19.5h-1q-2 6 -1 9v21t2 20q5 42 12 82.5t16 82.5q22 103 48 207q8 35 17.5 68.5t20.5 67.5q21 72 51 140q4 8 7 15.5t7 15.5q0 -1 1 -1z" />
    <glyph glyph-name="N" unicode="N" horiz-adv-x="517" 
d="M12 228q0 -1 -0.5 -1.5t-0.5 -1.5q3 36 12 72t20 70t22 65.5t20 58.5q3 9 7 18t8 17l4.5 9t8 15.5t8.5 15t5 8.5q-2 -6 -7 -18t-10 -25t-8.5 -25t-3.5 -18q5 11 8.5 20t6.5 18l7 21t11 29q1 4 2 11t2.5 14.5t3.5 13t7 5.5q14 -2 24.5 -2.5t15.5 -1.5q10 -1 12.5 -6
t1.5 -12.5t-2.5 -16.5t0.5 -17q15 -55 20 -108.5t14 -106.5q20 -112 41.5 -218.5t58.5 -206.5q14 85 29.5 168.5t35.5 167.5q1 6 3 11.5t2 11.5q-1 6 0 12t3 12q7 26 13.5 53t13.5 53q1 3 1.5 5.5t0.5 5.5q-2 -8 -4.5 -15.5t-4.5 -15.5h-1q1 3 1 6t2 7q13 42 26 84.5
t27 84.5q5 14 10 26.5t10 25.5q9 20 17.5 40t18.5 39q3 6 6.5 12t10.5 10q13 -4 19 -6.5t14 -7.5q5 -8 10 -7.5t8 -7.5q1 -2 0.5 -6t-1.5 -8.5t-2 -8t-2 -4.5h3q-1 -5 -1.5 -9.5t-2.5 -9.5q-3 -10 -7 -20t-6 -21q-15 -61 -34 -125.5t-38 -122.5q-13 -42 -25 -84.5t-24 -85.5
q-8 -29 -14.5 -57t-13.5 -57q-1 -1 -1 -2t-1 -2h-1q1 7 2 13t3 13h-1q-11 -47 -18.5 -88t-15.5 -82q-4 -22 -7.5 -43.5t-7.5 -42.5q1 5 1 16q-1 -2 -1 -4.5t-1 -4.5q-1 3 1 19.5t6 39t8.5 48.5t8.5 47q7 38 14.5 76.5t14.5 76.5q-2 -8 -4 -16.5t-4 -16.5q-8 -37 -15.5 -73.5
t-15.5 -74.5l-10 -56t-10 -57q-3 -20 -2 -38q1 -8 -2.5 -7.5t-11.5 -1.5q-16 -3 -28 5t-14 22q-2 7 -8 8t-9 6q-9 20 -19 47.5t-20.5 58t-20 62t-16.5 59.5q-1 1 -1 1.5t-2 1.5q7 -26 13.5 -52t13.5 -52q-1 0 -1 -1q-29 94 -51 187.5t-43 188.5q-16 -47 -27.5 -84.5
t-14.5 -47.5q-5 -17 -7.5 -25t-5 -14t-6 -13t-9.5 -22v5h-1q-1 -4 -2 -7t-2 -7q-4 -13 -7.5 -25.5t-8.5 -24.5q-14 -41 -22 -82t-18 -83q-5 -19 -8.5 -37.5t-8.5 -37.5q-1 -2 -1 -3t-1 -3q2 13 4.5 26t5.5 26q14 62 27.5 123.5t27.5 123.5q2 6 3 10q2 11 3.5 21.5t4.5 21.5
q8 33 17 65.5t19 64.5q6 21 12.5 41t13.5 41q2 2 0 6q-51 -153 -90 -307t-68 -312q-3 1 -1 9q3 15 5 28t5 29q0 3 0.5 5.5t0.5 5.5q1 0 1 2q-4 2 -3 4.5t2 4.5l9 48v3h-1q0 -1 -0.5 -2t-0.5 -2q-5 -26 -10 -51.5t-10 -51.5q-2 -8 -2.5 -15.5t-2.5 -15.5q0 -3 9 -5
q-1 -3 -1 -6t-2 -5q-4 -1 -4 -0.5t-1 2.5q-1 1 -0.5 3t-0.5 3q-2 -2 -2 -4q-1 -4 -5 -4h-7t-6 2t-2 3v6q-5 -3 -10 -2q-7 2 -8 5.5t-1 8.5q2 54 13 103t20 100v3q-2 8 -0.5 15t3.5 15q4 18 10.5 43t12.5 51t10.5 49.5t4.5 39.5h-1zM249 147q0 1 0.5 2t0.5 2q-2 6 -3 11.5
t-3 11.5v-5q2 -5 2.5 -11t2.5 -11q0 -1 0.5 -2t0.5 -2q5 -18 9 -36t9 -37q5 -21 10.5 -42t11.5 -41q5 -18 10.5 -36t11.5 -35q2 -6 3 -10q1 2 0.5 3t-0.5 2q-5 16 -10 31t-9 31q-5 14 -8 29t-7 29q-3 14 -6.5 27.5t-7.5 27.5q-2 5 -3.5 11t-3.5 12q-2 8 -4 16.5t-4 16.5
q0 2 -1 2.5t-2 2.5zM318 -116q2 0 3 1q-29 77 -48 155.5t-39 158.5q0 -4 2 -12q10 -42 19.5 -82t19.5 -81q5 -18 10 -35.5t10 -34.5l12 -42q2 -8 5.5 -14.5t5.5 -13.5zM321 -94h1q-5 18 -11 36t-11 36h-1q5 -18 11 -36t11 -36zM440 450h1q5 14 9 28t9 28q0 1 -2 1
q-4 -14 -8 -28.5t-9 -28.5zM441 471q2 7 3.5 13.5t3.5 13.5h-2q-2 -4 -3 -7.5t-2 -8.5q9 30 19.5 59.5t24.5 58.5q1 0 1 -1l-22 -64l-22 -64h-1z" />
    <glyph glyph-name="O" unicode="O" horiz-adv-x="472" 
d="M245 614q-2 6 -3.5 12t-3.5 13q-1 -2 -3 -4q-2 1 -1 2q1 5 1 10t5 9q15 16 34 28q2 2 4.5 4t5.5 4q6 4 10 5l12 4t13 4q-1 1 -1 2h1q9 0 18.5 0.5t18.5 -4.5q8 -3 13 -8q16 -13 26 -30l14 -22t13 -22q9 -18 14 -37t10 -39q14 -86 6.5 -165.5t-27.5 -157.5q0 -4 -1 -5
l1 -1q3 4 4 8q1 2 3 8h1q-1 -6 -2 -11.5t-3 -11.5q-17 -60 -36.5 -113t-45.5 -102q-18 -30 -37 -59t-41.5 -54.5t-48 -45.5t-55.5 -32q-13 -5 -25.5 -5.5t-25.5 4.5q-11 4 -21 7.5t-21 8.5q-23 11 -44 24.5t-38 31.5q-10 10 -16 24q-14 34 -16 68.5t3 69.5q2 16 4.5 31.5
t6.5 31.5q3 14 6.5 27t7.5 26q-5 -26 -9 -51t-6 -51l10 60t13 59h1q-2 -10 -4 -19t-4 -19h1q14 61 34 120t49 115q1 -1 2 -1q-2 -4 -3.5 -7.5t-3.5 -7.5q-2 -5 -3 -8.5t-2 -8.5q1 2 1 3t1 3q7 13 12.5 25.5t13.5 24.5q20 30 39.5 59.5t40.5 58.5q14 18 28.5 34.5t29.5 33.5
q5 6 11.5 11.5t14.5 9.5q3 2 3 5t-1 5q0 8 -9 8zM114 263h2l7.5 15t6.5 15l1 -2q-8 -19 -13.5 -37.5t-10.5 -38.5q-10 -36 -19.5 -72t-16.5 -74q-4 -23 -7 -45t-7 -45q-1 -5 -1.5 -16.5t-0.5 -23t2 -20t6 -5.5q35 26 62 53.5t49 62.5q59 98 100.5 205.5t65.5 211.5
q2 3 3.5 5.5t1.5 5.5l15 99q0 2 1.5 5t1.5 5v46q0 8 -5 9q1 3 1 7q-4 2 -6 1q-23 -6 -42 -20q-8 -5 -14 -11.5t-13 -12.5q-3 -4 -2 -9.5t4 -9.5q2 -2 2.5 -4t2.5 -4h-6q2 -2 2 -3t1 -3q-3 2 -4 1q-6 -1 -11 -5t-8.5 -8t-7.5 -8q-19 -21 -35 -43.5t-31 -45.5
q-12 -19 -24 -38.5t-23 -39.5t-20 -40.5t-19 -40.5q-2 -5 -3.5 -9t-3.5 -9h1q20 47 45 90.5t54 85.5q-16 -26 -32 -53t-27 -56l10 16l10 16q-9 -20 -18 -37.5t-18 -35.5q1 0 1 -1q1 2 2 3t2 3q-4 -11 -7.5 -19t-6.5 -16zM353 635q-3 0 -4 1q-4 2 -7 1t-7 -3
q-16 -6 -28.5 -17t-23.5 -23l-1 -1v-3h2q2 1 2 1.5t1 1.5q15 18 34 27q15 8 32 15zM368 587h3q0 8 -1 14.5t-2 14.5h-1l-2 1h-1q1 -8 2 -15t2 -15zM291 614q-4 -2 -7.5 -4.5t-5.5 -7.5l1 -1q3 3 6 6.5t6 6.5zM267 596q0 1 1 1q-4 4 -7 6q-1 -1 -1.5 -2t-1.5 -2q2 -2 4.5 -2
t4.5 -1zM271 589q6 -2 9 -4q-5 7 -9 4z" />
    <glyph glyph-name="P" unicode="P" horiz-adv-x="384" 
d="M411 432l-12 -20l-12 -20q-11 -17 -22.5 -33t-24.5 -30q-11 -11 -21.5 -22t-22.5 -22l-48 -42t-49 -41q-19 -16 -38 -31t-39 -31q-9 -8 -12 -19q-16 -54 -30.5 -107.5t-31.5 -107.5q-7 -22 -13.5 -44.5t-11.5 -33.5q11 44 24.5 92.5t25.5 91.5q0 1 -1 1l-24 -84
q-1 0 -2 1q8 26 14.5 53t14.5 54h-1q-7 -25 -14 -49t-14 -49h-1q13 42 23 84.5t22 84.5q0 1 -0.5 1.5t-0.5 1.5v1q-22 -74 -43 -147t-38 -147q7 35 15.5 68.5t17.5 66.5q9 34 18.5 67.5t18.5 67.5q-1 -2 -2 -4.5t-2 -4.5q2 5 3 10t4 15q-28 -70 -41 -119.5t-22 -81.5
q-3 -10 -5.5 -25t-5 -29.5t-4 -26.5t-2.5 -16q0 -2 1.5 -3t2.5 -2q10 -11 4 -21q-1 -2 -6.5 -2.5t-12.5 0t-13 2t-8 3.5q-5 5 -11.5 6t-6.5 11q1 25 5 46.5t6 42.5q-4 -16 -8 -36t-8 -36h-1q3 38 11 76t18 76q8 32 15.5 63.5t15.5 63.5q2 8 0 11q-1 5 -10.5 14.5l-11.5 11.5
q-4 5 -1.5 7.5t6.5 5.5q8 6 15.5 12t15.5 11q6 5 8 14q8 34 17 67.5t20 65.5q12 36 25 71t30 69l8 16t7 16q8 18 17 34t17 33q2 4 10 6q6 1 8.5 -2.5t5.5 -5.5l1 -1q-1 -3 0.5 -4.5t2.5 -3.5q4 -5 6.5 -10t6.5 -10q2 -3 5 -5t5 -4q8 -5 5 -15q-2 -9 -4.5 -17t-4.5 -16l6 16
l6 16q1 -3 -1 -11l-6 -18t-6 -17q1 -5 1 -11q-3 -8 -6 -17l-6 -18q-2 -2 0 -4q2 4 3.5 7.5t3.5 8.5q1 0 1 -1q-10 -27 -19.5 -54.5t-18.5 -54.5l2 -2q9 7 18 14.5t17 16.5q-2 -1 -4 -1h-2q2 4 3 5q4 5 7.5 9t7.5 8q1 1 3 5l-4 -2q23 29 45.5 60.5t42.5 63.5q15 23 28 45.5
t24 46.5q4 13 9 21q5 6 6 13t3 14q1 9 -8 13q-17 5 -35 5.5t-36 -2.5q-28 -4 -53 -14t-48 -23q-39 -19 -68 -50q-2 -2 -2.5 -3t-2.5 -3q-4 -4 -12 10q-9 -3 -16 7q-2 4 -4.5 7.5t-5.5 7.5q-7 9 -9.5 14t-2.5 12q5 9 10.5 17t13.5 15q49 43 111 63q29 9 58.5 14t59.5 3
q54 -3 85 -49q25 -37 30 -83l3 -48q2 -20 -2 -39t-11 -38q-5 -12 -10.5 -23.5t-12.5 -22.5q-6 -10 -12 -19.5t-13 -18.5t-13.5 -17t-13.5 -16q0 -2 -2 -2q15 22 29 43.5t25 45.5zM125 563q12 11 24 20.5t23 19.5q-6 -2 -14 -7t-15.5 -11.5t-13 -12.5t-4.5 -9zM121 261
q1 0 1 -1q4 6 5 9q5 14 8.5 27.5t8.5 27.5q3 11 7 20q-1 0 -2 1l-14 -42zM132 163q1 -1 1 -2l30 24t29 24q0 1 -1 1q-14 -11 -29.5 -23t-29.5 -24z" />
    <glyph glyph-name="Q" unicode="Q" horiz-adv-x="437" 
d="M328 126q0 -17 -1.5 -34t-3.5 -34q0 -1 -2 -5q1 18 1.5 35.5t1.5 34.5h-2l-3 -39h-1v5h-1q-1 -5 -1.5 -10.5t-1.5 -11.5q-5 -26 -11 -52t-13 -52q-11 -35 -20.5 -69.5t-19.5 -69.5q-2 -5 -4.5 -10t-4.5 -10q-1 -2 -6 -2q-18 0 -33 2.5t-32 12.5q-7 -3 -11 5q-3 7 -3 13.5
t2 13.5q4 21 7.5 41.5t7.5 40.5q3 17 6.5 35t6.5 35q2 8 -5 7q-17 -2 -28 3q-8 4 -17 6.5t-18 6.5q-2 0 -3.5 1.5t-3.5 2.5t-3.5 0.5t-3.5 1.5q-23 13 -43 26q-29 21 -38 53t-11 64q-1 65 9.5 127t28.5 122q30 94 76 182q22 41 51 73q13 10 28 15t24 3t9.5 -10.5
t-15.5 -24.5q4 3 6 8t9 6q-8 -14 -15 -26t-15 -24l1 -1q8 11 16 22.5t16 22.5q1 0 1 -1q-5 -8 -10.5 -16.5t-11.5 -17.5q1 0 2 -1q2 4 8 12q1 0 1 -1q-7 -11 -13.5 -22.5t-12.5 -22.5q0 -1 1 -1q9 14 18 27.5t18 27.5l1 -1q-2 -4 -5 -8t-5 -9h1q3 5 6.5 10t7.5 10q0 -1 2 -1
l-3 -6l-3.5 -7t-3.5 -6q-1 -2 1 -6q-14 -44 -39 -81q-14 -22 -23.5 -45.5t-18.5 -47.5q-22 -61 -36 -124t-18 -126q-2 -21 -1.5 -42.5t2.5 -41.5q1 37 3 78h2q-1 -8 -1 -14.5t-1 -14.5q-1 -18 -0.5 -36t3.5 -35q1 -5 1.5 -5t5.5 2q34 19 63 48q8 6 14 12.5t13 13.5q4 4 4 10
q2 26 2 51t-2 51q-3 38 -2.5 75t5.5 75q24 136 104 235q20 21 38.5 33.5t40.5 21.5q21 7 40 -9q11 -9 15.5 -21t9.5 -24q14 -38 15 -77t-4 -78t-14.5 -77t-23.5 -76q-11 -33 -25 -64.5t-31 -63.5q-9 -17 -19 -33l-20 -32l-6 -9q4 7 7.5 13.5t8.5 13.5q-2 0 -4 -2
q-4 -5 -11.5 -16.5t-9.5 -19.5q1 0 0.5 -7.5t-0.5 -12.5zM306 302h1q2 2 2 3l30 51q21 38 38.5 78t32.5 82q8 23 14.5 47t9.5 49q1 5 1.5 10t1.5 10q1 4 1 14q0 7 -7 4q-17 -6 -31 -20q-17 -17 -28 -39.5t-22 -42.5q-29 -56 -42 -108.5t-9 -106.5q0 -6 0.5 -12.5t0.5 -12.5
q0 -3 0.5 -6t0.5 -6q1 0 2 1v24h1q1 -5 1 -9.5t1 -9.5zM338 569q13 20 27 39t31 36q-19 -16 -33 -35t-25 -40zM392 670h1q5 2 10 4.5t10 4.5q1 1 2 1.5t2 1.5v3h-6.5t-5.5 -2q-3 -2 -5.5 -4.5l-4.5 -4.5t-3 -4zM165 13q7 -4 18 -2q7 1 6 9q-6 -2 -12.5 -3.5t-11.5 -3.5z
M399 635h1q1 0 1.5 0.5t1.5 0.5q7 5 14 9.5t15 6.5q2 0 3 1q0 1 0.5 1.5t0.5 2.5q-1 0 -1.5 0.5t-1.5 0.5q-18 -7 -34 -23zM389 633q9 6 18.5 13t18.5 13q-7 0 -18 -7.5t-19 -18.5zM427 674q-5 2 -15 -2t-13 -11q12 6 28 13zM383 661q-2 -2 -5.5 -5t-7.5 -6l1 -1z" />
    <glyph glyph-name="R" unicode="R" horiz-adv-x="457" 
d="M446 550q0 -1 1 -2h1q4 11 7 21.5t7 21.5q1 2 2 4.5t1 4.5q1 4 1 13q0 1 -1 1q-2 0 -2 1q-15 4 -33 -1q-17 -4 -32 -11t-29 -16q-25 -16 -47 -35.5t-42 -40.5q-55 -59 -98 -125q-20 -30 -37.5 -60t-34.5 -62l-4 -8l-4 -8q-1 -2 -2 -3.5t2 -3.5q-1 -1 -1 -2
q-2 -5 -3.5 -9.5t-3.5 -9.5q29 58 62.5 113.5t76.5 106.5q-9 -12 -17.5 -23.5t-16.5 -23.5q-17 -24 -32 -50t-29 -53q-14 -25 -26 -50t-25 -51q-10 -20 -15 -41.5t-10 -43.5q-7 -30 -14 -64.5l-14 -69t-14.5 -68.5t-14.5 -63q-2 -8 -3 -13q-2 -6 -12.5 0.5t-21.5 9.5
q-5 1 -11 6t-10.5 10.5t-7.5 11t-1 8.5q1 16 6 42.5t11 55.5t13 58.5t13 51.5q11 31 18.5 62.5t15.5 63.5q14 66 30 131.5t34 130.5q11 37 22.5 72.5t22.5 71.5q0 2 2 4q-2 -6 -3 -10h1q1 2 1.5 4t1.5 4q8 20 15 40.5t15 40.5q3 8 7 15t8 15q2 5 11 3.5t12 -9.5q4 -5 7 -7.5
t5 -8.5q1 -3 1 -6.5t1 -6.5q2 -1 0.5 -5.5t-3.5 -9.5q-7 -18 -13.5 -36.5t-10.5 -37.5q-2 -15 -6 -30t-7 -29q-5 -29 -14 -57t-16 -57q-2 -8 -4 -15t-4 -15q0 -2 -0.5 -2.5t-0.5 -2.5h1q6 6 8 10q18 28 37 54t40 51q33 39 69.5 73.5t80.5 61.5q13 8 26.5 14.5t28.5 9.5
q13 3 24 2q17 -1 30 -16q21 -26 24 -57q1 -14 2.5 -26.5t-0.5 -26.5q-4 -56 -30 -109q-13 -26 -28 -51.5t-32 -49.5q-22 -34 -46 -66.5t-50 -63.5q-30 -38 -63 -72q-24 -26 -50 -49.5t-52 -46.5q14 -10 39.5 -28t55.5 -40t62 -45t59 -43t46 -33.5t24 -16.5q13 -8 27.5 -18
t20.5 -16q2 -2 4.5 -5.5t-2.5 -8.5q-8 -3 -15 0t-15 8q-15 9 -38.5 24t-50.5 32.5t-55 36.5t-52.5 36t-43 30.5t-26.5 19.5q-17 12 -35 20.5t-36 16.5q-19 9 -39 27q-11 8 -11 19q0 3 -4.5 8t1.5 11q16 12 30.5 24.5t29.5 25.5q4 3 7.5 6.5l7.5 7.5q11 11 21.5 22.5
t21.5 23.5q15 15 29 32q19 21 37 42.5t37 44.5q11 14 22 28.5t22 28.5q12 17 23.5 34.5t22.5 34.5q36 57 67 121q0 2 2 4zM144 510l1 -1l1 2q5 15 9 30t9 29q9 27 18.5 53.5t19.5 52.5q1 4 -5 7q-5 -16 -10.5 -31t-10.5 -30q0 -1 1 -1l3 9h1q-10 -30 -19 -60zM307 337
q-34 -48 -70.5 -90.5t-77.5 -83.5q39 42 76 85t72 89zM271 282q-3 -4 -6.5 -8t-6.5 -8h-1q3 5 6.5 8.5t6.5 8.5zM280 295q4 6 8 10h1q-2 -3 -4 -5.5t-4 -5.5z" />
    <glyph glyph-name="S" unicode="S" horiz-adv-x="443" 
d="M464 420q0 2 2 4q4 4 6 7q-3 -9 -14.5 -27.5t-25.5 -38t-27 -36t-19 -19.5q21 27 40.5 54t37.5 56zM464 420q-11 -14 -20.5 -28.5t-19.5 -28.5q-8 -11 -16 -22.5t-19 -22.5q-4 -3 -7 -5.5t-7 -5.5q-3 -5 -6 0q0 2 -1 3t-1 3q0 3 1 5q1 0 5 -2q4 4 6 7h-3q9 12 17.5 23.5
t16.5 23.5q-1 0 -1 1q-11 -14 -21 -28t-26 -24v2q10 7 17 16l14 18q19 26 36 51.5t33 52.5q6 10 11.5 19.5t11.5 20.5q1 1 1 4q-2 -3 -3.5 -6t-3.5 -6q-1 0 -1 1l6 12q2 3 3.5 6l3.5 7q1 3 3 6t0 8q-3 -5 -5.5 -9t-4.5 -9q-5 -8 -10.5 -17.5t-10.5 -17.5q-9 -14 -17.5 -26.5
t-18.5 -26.5q-11 -15 -21 -30t-21 -30l-14 -16l-14 -16l-6 -3l-1 1l2 2q5 5 10.5 9.5t10.5 10.5q20 26 38.5 53t35.5 56q8 11 14.5 23t13.5 24q0 1 0.5 1.5t0.5 1.5t-1 1q-2 -5 -5 -9t-6 -9q-1 0 -1 1v3q-8 -14 -16.5 -27t-16.5 -27q-17 -24 -33.5 -48t-33.5 -48
q-5 -6 -10 -11.5t-12 -9.5q-3 -2 -6 -2.5t-7 -2.5q-1 0 -1 1v2l2 2q-1 2 -1 5h-8q3 8 7 12q6 7 11.5 14t10.5 14q4 5 6.5 9.5t5.5 9.5q3 3 5 7v1q-5 -6 -9 -11.5t-8 -11.5q-1 1 -2 1q1 2 1 2.5t1 2.5l30 42q13 20 25.5 38.5t25.5 37.5q36 52 57 111q3 8 4.5 17t3.5 17
q1 6 -6 6q-14 2 -27.5 1t-27.5 -4q-29 -5 -56 -15.5t-53 -24.5q-8 -5 -16.5 -11t-16.5 -11q-12 -7 -26 -16q-2 -2 -8 -6q-1 -1 -1.5 -1t-1.5 -1q-5 -5 -11 -9t-11 -9q-2 -2 -3 -3.5t-3 -3.5q-29 -25 -53.5 -53t-44.5 -61q-16 -25 -25.5 -51.5t-11.5 -55.5q0 -7 0.5 -13.5
t0.5 -12.5q2 -8 8 -11q8 -4 15.5 -8t15.5 -7q29 -9 57.5 -18.5t57.5 -18.5q18 -5 35.5 -13t33.5 -19q20 -14 35.5 -31t26.5 -39q3 -5 5 -11t5 -12q5 -13 3.5 -25.5t-4.5 -24.5q-1 -2 -1 -7q3 9 7 17h1q-2 -7 -4 -13.5t-4 -13.5q-8 -21 -18.5 -40.5t-22.5 -39.5
q-17 -28 -37.5 -52t-44.5 -47q-18 -17 -37.5 -32.5t-42.5 -26.5q-14 -8 -29.5 -14t-32.5 -5q-24 2 -47 10q-5 2 -9.5 3.5t-9.5 3.5q-12 5 -22.5 12t-17.5 18q-6 9 -6 21q-1 5 0 11l2 12q1 2 2.5 3.5t2.5 3.5q0 -1 0.5 -1t0.5 -1q1 0 1 1q7 23 17 44t21 41q21 40 50 77
q17 21 36 35q8 5 20 7q2 0 4 -0.5t4 -0.5q-1 -1 -1 -2q-3 0 -6 -0.5t-6 -0.5v-1h4q4 1 6.5 -1.5t5.5 -4.5q0 -1 0.5 -1t0.5 -1v-1q-3 -3 -4 -1q-8 1 -19 -6q-12 -9 -21 -20l-18 -22q-27 -38 -48 -81q-3 -5 -5.5 -11t-4.5 -12q-4 -8 -6.5 -16.5t-4.5 -17.5q-2 -5 -1.5 -11
t1.5 -12q3 8 5.5 15.5t5.5 15.5q7 16 13.5 31t12.5 30h2q-2 -5 -4.5 -10t-4.5 -10q-5 -11 -9.5 -23t-9.5 -24q-2 -6 -2 -12t-1 -12q0 -2 2 -2t2 2l3 12q1 1 1 1.5t2 2.5q-1 -3 -1 -5.5t-1 -4.5h2q2 6 4.5 12.5t4.5 13.5l1 -1q-2 -5 -3 -10t-3 -10h1q-1 0 3 2q-2 -4 -2 -7
q2 3 4.5 6t4.5 7q-1 -5 -2 -8.5t-2 -8.5q1 1 1.5 1t1.5 1q0 -3 -0.5 -6t-0.5 -6q1 3 3 7h1q-1 -3 -1 -6.5t-1 -8.5q2 2 3.5 2t2.5 2q25 14 45.5 32t40.5 38q40 42 71.5 89.5t54.5 101.5q4 11 7 21t4 21v9q0 8 -7 9l-90 27q-27 8 -52.5 18.5t-48.5 27.5q-16 11 -31 23t-27 29
q-23 31 -19 68q6 28 15 57q2 8 6.5 14t6.5 14q10 29 26.5 52.5t35.5 46.5q5 8 12 14t12 14q11 15 25 27.5t29 23.5q35 29 73.5 51t81.5 36q2 0 3 0.5t3 -0.5q-2 0 -2.5 -0.5t-1.5 -0.5q-30 -10 -57.5 -23.5t-53.5 -30.5q-5 -3 -8.5 -6.5t-7.5 -6.5q0 -1 1 -1t1.5 0.5
t1.5 0.5q29 19 59 34.5t62 26.5q8 2 12 4q24 10 48 12q17 2 32.5 1.5t31.5 -4.5q26 -6 38 -29q3 -6 7 -12t6 -12q4 -11 7 -22.5t5 -23.5q2 -20 -1.5 -38t-11.5 -35q-11 -29 -25.5 -56.5t-30.5 -53.5q-4 -6 -5 -9q-2 -2 -2 -4zM72 360h2q2 4 2 6q3 9 6 17.5t5 17.5q3 5 4 6
q4 2 5 5t3 6q2 4 6 14q4 6 7.5 11.5t7.5 11.5q22 37 51 68q18 20 38 37.5t41 34.5q26 20 54 36t57 28q19 8 38 14t39 9q1 0 5 2l-2 1q-2 0 -4.5 -0.5t-5.5 -0.5q-18 -2 -35.5 -7.5t-34.5 -10.5q-18 -5 -35.5 -13.5t-34.5 -16.5q-5 -2 -9.5 -5.5t-9.5 -6.5q-12 -8 -24 -16.5
t-24 -18.5q-34 -27 -67 -63q-23 -26 -43 -58q-5 -10 -10.5 -20t-11.5 -20q-15 -28 -20 -64v-4zM198 572l-1 1q-5 -5 -9.5 -8.5t-9.5 -8.5q-29 -27 -53.5 -57.5t-42.5 -66.5q-3 -6 -5.5 -12.5t-4.5 -12.5q-2 -7 -2.5 -13t-1.5 -13q0 -1 1 -2q17 59 51 105.5t78 87.5zM103 396
l1 -1q14 31 33 56q11 13 20.5 25.5t20.5 25.5q11 12 22.5 23.5t23.5 22.5t25 20t27 19q14 9 27.5 17t27.5 16q-1 0 -5 -2q-39 -20 -73.5 -45.5t-66.5 -55.5q-18 -18 -33 -38t-29 -41zM356 649l1 -2h2q30 12 63 18q4 1 8 2.5t9 2.5q7 1 14 1h14q1 0 1.5 0.5t2.5 0.5
q-11 4 -20.5 2t-18.5 1q8 2 15.5 2.5t15.5 2.5q-4 1 -7 1.5t-7 -0.5q-10 -2 -20 -3.5t-20 -5.5q-11 -5 -23.5 -8t-24.5 -8q-9 -4 -17.5 -8t-17.5 -9q-2 0 -3 -1q1 0 1 -1q4 2 6 2q15 6 30.5 12t31.5 12q2 1 4 1t4 1q0 -1 1 -2q-11 -4 -22.5 -7t-22.5 -7zM379 413
q30 45 58 89.5t48 95.5q-11 -25 -23.5 -48t-26.5 -46t-28 -45.5t-28 -45.5zM94 356q10 31 25.5 58t34.5 53l-3 -2q-7 -9 -13.5 -18t-12.5 -19q-10 -15 -18 -31.5t-12 -33.5q0 -2 -0.5 -3.5t-0.5 -3.5zM106 20l1 -1q22 31 56 51q-8 2 -16 -4q-5 -5 -10 -9.5t-10 -9.5
q-5 -6 -10.5 -13t-10.5 -14zM443 401q1 -1 3 -1q11 19 23 38t23 38l-1 1q-2 -2 -2.5 -3t-2.5 -3q-8 -13 -15.5 -25.5t-15.5 -25.5q-3 -5 -6 -9.5t-6 -9.5zM204 616q-5 -3 -16 -12.5t-22.5 -20t-21 -20.5t-11.5 -13q18 17 35.5 33t35.5 33zM271 599q21 11 41.5 22t40.5 22
q-22 -8 -42 -19t-40 -25zM103 417q25 49 62 92q-20 -20 -35 -43t-27 -49zM67 455l36 57q-11 -14 -20 -28t-16 -29zM471 663q-2 1 -9 1t-15 -1t-15 -2.5t-8 -2.5q11 2 22.5 2.5t24.5 2.5zM459 446l1 -1l12 20t13 20q-1 1 -2 1q-6 -11 -12 -20.5t-12 -19.5zM468 445q1 0 1 -1
q6 10 11.5 20t11.5 20h-1q-6 -10 -12 -19.5t-11 -19.5zM470 667q-5 2 -10 2t-10 -2h20zM284 614l1 -1q5 2 9 5t9 5l-1 1q-5 -2 -9 -4.5t-9 -5.5zM226 632v1q-5 -4 -10 -7.5t-10 -6.5l1 -1q5 3 9.5 6.5t9.5 7.5zM415 380q1 0 1 -0.5t1 -0.5q2 4 5 7.5t5 7.5l-1 1
q-2 -4 -5 -7.5t-6 -7.5zM264 601q1 -1 1 -2q4 4 9 6l-1 2zM140 -216q0 1 -1 2l-12 -3v-2q8 2 13 3zM442 417l-1 1q-2 -3 -3.5 -6t-3.5 -6h1q2 3 3.5 5.5t3.5 5.5zM233 545q5 5 11 9t11 9q1 1 1.5 1t1.5 1q1 0 1 -1q-1 -1 -2 -1.5t-3 -2.5q-5 -3 -9 -7t-9 -7q-1 -1 -3 -1z
" />
    <glyph glyph-name="T" unicode="T" horiz-adv-x="208" 
d="M93 175q7 28 13 56t14 56q11 36 21 71.5t21 70.5q16 49 32.5 97t33.5 97q1 4 4 8q1 0 1 -1q-1 -5 -1 -9.5t-2 -9.5q-2 -8 -3.5 -15.5t-2.5 -15.5q-2 -14 -6 -28t-7 -28q-5 -29 -15.5 -56.5t-18.5 -56.5t-17 -58.5t-17 -59.5q-9 -31 -17 -61.5t-16 -61.5q-3 -10 -4.5 -10
t-3.5 -5q5 24 8.5 37t9.5 36q1 8 3 13q1 5 2 8.5t1 4.5q-3 -8 -5 -14t-4 -13q-8 -33 -17 -67t-17 -67q-11 -50 -20.5 -98.5t-17.5 -98.5q-2 -20 -4 -39t-4 -39q-1 -4 -0.5 -7.5t0.5 -7.5q-5 -2 -13 1.5t-15 10.5q-11 9 -20.5 22t-11.5 27q0 5 -0.5 10.5t-1.5 10.5v-19h-1
q1 12 1 24t1 24q2 17 5 39.5l6 45t6 41t5 27.5q24 131 56.5 259t74.5 255q2 4 3 5q10 11 12.5 24.5t9.5 27.5q-11 -2 -21 -1t-28 0q13 8 24 8t29 3q-13 2 -36 1.5t-42 -0.5q-30 -1 -52.5 -3t-43 -5.5t-41 -7.5t-45.5 -10q-9 -2 -18 -4.5t-19 -4.5h-3q3 2 18 6t36 9.5t46 11
t49 9.5q38 8 76 13t76 9q-3 1 -14 0t-24 -2.5t-25.5 -3t-18.5 -2.5l-50 -8t-50 -9q-27 -5 -54.5 -11t-54.5 -11q-3 -1 -8.5 -3t-12 -4t-12 -3t-7.5 0q-2 11 -5 13.5t-5 11.5q0 11 7 19.5t16 11.5q5 2 10.5 4.5t10.5 5.5q-3 -1 -6.5 -1.5t-6.5 -1.5q9 6 29.5 11t34.5 8
q48 11 97.5 21t98.5 18q94 11 189 9t189 -4q22 -1 43.5 -3.5t41.5 -8.5q14 -5 20.5 -9.5t8 -8.5t0.5 -7t-1 -4q5 -2 3.5 -10t-4.5 -13q-3 -10 -9.5 -17t-11.5 -2q-6 4 -9 5.5t-9 3.5q-23 5 -45.5 6.5t-45.5 1.5h-36q-21 -1 -42 -1t-41 -1q-21 -1 -41.5 -2t-41.5 -3
q-8 0 -11 -1h12q0 -1 1 -1q-2 0 -3.5 -0.5t-2.5 -0.5q-5 -1 -9 -1h-9q-7 0 -9 -8t-8 -9q-1 0 -2 -1.5t-2 -2.5q-2 -8 -4 -15t-4 -15q-5 -13 -9 -25.5t-8 -25.5l-6 -18q-1 -2 -1 -3.5t-1 -3.5h1q9 24 18 48.5t17 49.5l2 -1q-25 -71 -49 -141t-44 -142t-37.5 -144.5
t-34.5 -145.5h-1q3 14 6 29t6 29q4 14 7.5 29t6.5 29q4 14 7 28.5t7 29.5q4 14 7.5 28.5t6.5 28.5q-1 1 -2 1q-10 -43 -20.5 -85t-19.5 -85q-10 -43 -19 -85t-17 -83q1 6 3 22q14 69 28 133t27 118q2 6 3 12t3 13h-1q-2 -8 -3.5 -14.5t-3.5 -14.5q-6 -23 -11 -45l-10 -44
q-5 -20 -9 -39t-8 -39q-5 -22 -9 -43t-8 -43q-5 -24 -8 -48l-6 -48q-1 -13 0 -22.5t7 -22.5q1 20 3.5 39t4.5 36q4 22 7 43.5t8 43.5q8 38 16 77t16 77q-5 -19 -9.5 -39t-9.5 -40q0 -1 -2 -5zM575 668q1 0 -2.5 1t-8 2.5t-9.5 2.5t-6 1q-32 5 -64.5 6.5t-65.5 1.5
q-20 1 -39 0.5t-39 -0.5q-19 -1 -38 -1.5t-38 -0.5q-6 -1 -12 -1t-12 -1q-2 0 -3 -1q4 -1 11 -1q20 1 38.5 2t37.5 1h66.5t66.5 -1q24 -1 48.5 -2.5t48.5 -5.5q5 -2 10.5 -2t9.5 -1zM575 673q-4 4 -26.5 7.5t-50.5 5t-55.5 2t-41.5 0.5q44 -2 87 -3t87 -12zM597 708
q0 2 -2 4.5t-7 2.5q3 -3 9 -7zM202 505l-1 1q-2 -5 -2.5 -9t-2.5 -9h1q2 5 3 8.5t2 8.5z" />
    <glyph glyph-name="U" unicode="U" horiz-adv-x="508" 
d="M75 472l-6 -18q-5 -19 -10 -37.5t-10 -37.5q-5 -23 -10 -45t-10 -45q-1 -5 -1.5 -9.5t-1.5 -9.5q-1 9 3.5 34.5t12 56.5t16.5 61.5t17 49.5zM125 186q29 26 51.5 56.5t45.5 60.5q21 27 45.5 60.5t47.5 66t43 59.5t31 42q14 20 26.5 40.5t24.5 41.5q9 17 18.5 32.5
t19.5 31.5q2 3 3 5.5t3 4.5q5 9 10 16.5t11 15.5q9 9 21 -1.5t22.5 -28.5t18 -36.5t7.5 -25.5v-4q2 -5 0 -8t-5 -7q-8 -11 -15 -28q-5 -13 -10 -25.5t-10 -26.5q-3 -8 -5 -16.5t-5 -16.5q-3 -11 -6.5 -21.5t-7.5 -21.5q-11 -26 -20.5 -52.5t-18.5 -53.5q-10 -34 -20 -67
t-19 -66q-8 -26 -15 -52l-14 -52q-6 -23 -11 -46.5t-11 -46.5q-9 -38 -17 -76.5t-15 -77.5q-2 -13 -3 -25.5t-3 -26.5q0 -10 0.5 -16t-10.5 -5q-5 -2 -14 -0.5t-19.5 4.5t-19 6.5t-11.5 5.5q-8 11 -10 13.5t-6 10.5q-3 33 1 64q4 22 7 44t8 44q5 25 10 49l10 48q2 5 2 9t1 9
h-1q-7 -29 -13.5 -57.5t-12.5 -57.5q10 60 22.5 119.5t26.5 119.5q-5 -14 -8.5 -28t-8.5 -28h-1l4 18t4 19q3 11 6 22.5t5 22.5q1 8 4 17.5t-1 17.5q-14 -16 -25.5 -32t-24.5 -33q-9 -13 -19.5 -28t-21.5 -28.5t-21 -23.5t-17 -14q-33 -18 -67 -15.5t-63 19.5q-9 5 -15 14.5
t-9 21t-4.5 23.5t-1.5 21q-2 35 2 69t12 68q8 40 20 78t26 76q8 22 16.5 43.5t18.5 43.5q6 13 14 25.5t16 24.5q3 7 9 12q6 2 10 2q2 1 12 -6t20 -16t16 -18.5t1 -13.5q5 -2 5 -5t-1 -6q-2 -5 -4 -11t-4 -11q-13 -38 -26.5 -72t-21.5 -68q-11 -32 -19 -64t-15 -64
q-5 -26 -9 -53t-3 -54h1zM345 -140q-2 -14 -4 -27t-1 -27h2zM556 523q2 6 5 9q-3 -9 -7 -18t-6 -19h1q3 3 7 9q-5 -21 -12.5 -41t-13.5 -41q3 7 5.5 13.5t5.5 12.5h1q-20 -57 -38 -112.5t-37 -112.5h-1q4 13 7 25t6 25q-4 -11 -7 -21l-6 -20q-6 -20 -11.5 -39.5t-13.5 -38.5
q-9 -24 -15 -48.5t-14 -48.5q-2 -5 -3 -5q2 8 3.5 15.5t3.5 15.5q6 26 13 53t12 53q8 41 19.5 80t25.5 79q5 17 10.5 33.5t11.5 33.5q2 4 2 6h-1q-5 -14 -10 -28.5t-10 -29.5q-5 -14 -9.5 -29t-9.5 -30q-5 -14 -9.5 -29t-9.5 -30q-5 -14 -8.5 -29t-8.5 -30h-1v5q3 14 6.5 27
t5.5 27q6 26 14 51l16 50l21 63q6 21 15 38q7 14 11.5 27.5t10.5 27.5q2 2 2.5 5t2.5 5q-1 -12 -5 -23.5t-7 -23.5l2 2q5 13 11 25.5t11 26.5q5 11 9 21t8 21l4 4q-5 -10 -8.5 -20t-8.5 -21q1 0 2 -1z" />
    <glyph glyph-name="V" unicode="V" horiz-adv-x="457" 
d="M416 332q-53 -92 -104.5 -183.5t-104.5 -184.5l2 -1q11 19 21.5 37t21.5 37q1 0 2 -1l-40 -68t-40 -69q6 8 10.5 12.5t12.5 14.5l27 42q5 8 9.5 15t9.5 15q0 1 2 3q0 -1 1 -1q-3 -8 -6 -14.5t-6 -13.5q-4 -8 -7.5 -14.5t-7.5 -13.5q-15 -26 -30 -51.5t-30 -51.5
q-3 -5 -7.5 -10t-9.5 -10q-2 -2 -4 -2q4 3 10 11v1q-3 -3 -5 -4q-8 -6 -16 -9q-4 -2 -9 0q-3 1 -18.5 4.5t-33 8t-31.5 9.5t-15 10q-11 3 -13.5 5t-5.5 9q-4 10 -5.5 19.5t-3.5 20.5q-2 26 -2.5 51.5t1.5 51.5l4 54t5 53q0 8 3.5 33.5t9 59t12.5 71t13.5 69.5t11.5 54t8 25
q5 20 10 41t11 41q8 29 19 61t22 63q1 3 3 6.5t7 3.5q1 0 5 -2q0 1 5 -4.5t11 -13.5t12 -17t8 -16q2 -3 2.5 -11.5t0 -17.5t-1 -17t-0.5 -11q1 1 1 1.5t1 1.5q3 -20 -3 -38.5t-7 -37.5l3 6q-8 -35 -11.5 -52t-7.5 -31l2 -1q2 10 5 19.5t5 19.5h1q-2 -13 -5 -25.5t-5 -26.5h1
q5 19 9 37t9 37h1q0 -2 0.5 -4t-0.5 -4q-1 -8 -2 -15t-3 -15q-2 -13 -4 -25.5t-4 -25.5q-11 -64 -22 -128.5t-20 -128.5q-2 -22 -4.5 -44.5t-3.5 -44.5q20 27 37 56.5t36 57.5q5 9 11 17t11 17l1 -1q-15 -26 -30 -52.5t-31 -53.5h2q23 37 45 74t45 74h1q-3 -6 -6.5 -12
t-7.5 -13h1q25 37 45.5 72t46.5 78l25.5 42.5t36 60.5t40.5 68.5t39.5 66.5t32 54.5t19.5 32.5q13 21 25 41.5t25 40.5q5 8 10 15l10 14q3 5 5 6q4 3 10 -1t10.5 -10.5t7.5 -12.5t3 -8q0 -5 -2 -9q-9 -17 -18.5 -32.5t-19.5 -31.5q-9 -17 -18 -33.5t-18 -33.5q-1 -1 -1 -2
q16 26 31 53t31 55l1 -1l-15 -27q-11 -21 -22.5 -42t-22.5 -41q-5 -8 -13.5 -24t-19.5 -36t-22.5 -42t-21.5 -41t-18 -33.5t-11 -19.5q-2 -5 -6 -13t-8.5 -16.5t-8.5 -17t-6 -12.5q-11 -18 -20.5 -36t-20.5 -36q-7 -13 -14 -25l-14 -24q-1 -2 -1 -2.5t-1 -2.5h2
q20 32 39.5 63.5t39.5 63.5h1zM130 -138q16 14 26.5 31t21.5 34q14 24 27.5 48.5t27.5 48.5q2 3 5 9q-2 -1 -2.5 -1t-2.5 -1q6 9 11 18t10 17l-2 2q-30 -52 -60.5 -103.5t-61.5 -102.5zM109 247h2q2 8 2.5 15t2.5 15q5 24 9.5 47.5t9.5 46.5q8 35 17 71.5t17 71.5v5
q-1 0 -3 -2q-11 -40 -20 -80t-17 -81q-5 -23 -8.5 -45.5t-8.5 -45.5zM141 51h-1q-8 -13 -16 -25t-14 -26q0 -1 2 -1q7 13 14 25.5t15 26.5zM352 199q4 6 7.5 12.5t7.5 12.5l1 -1q-16 -28 -32 -55.5t-32 -54.5h-1v3q0 1 -1 1q-5 -8 -9 -14.5t-9 -14.5q0 1 -1 1q28 50 57 98.5
t58 98.5l1 -1q-12 -22 -24 -43l-24 -42q1 0 1 -1zM343 184q0 1 -1 1q-4 -8 -7 -12l1 -1q3 4 7 12zM65 465q-2 -11 -4.5 -22.5t-5.5 -22.5q-1 0 -1 1q2 11 4.5 22t5.5 22h1z" />
    <glyph glyph-name="W" unicode="W" horiz-adv-x="736" 
d="M312 -39l2 4v-17q4 20 7.5 41t7.5 43h1l-4 -22l-4 -22t-3 -22.5t-1 -22.5q1 -1 2 -1l10 6l10 6q23 16 41.5 34.5t36.5 38.5q20 22 43.5 52.5t45 60t38.5 55t24 38.5q33 59 61.5 118t47.5 124q9 31 14.5 63t6.5 64q0 5 -0.5 10.5t-0.5 10.5q-5 22 -21 38t-35 27
q-11 5 -14 -6q-1 -3 -3.5 -6t-8.5 4q-5 3 -8 9.5t-3.5 13.5t1.5 13.5t7 10.5q4 4 12 4q17 0 27 -9q0 2 -1 3q11 -8 20.5 -18.5t18.5 -21.5q17 -21 29.5 -44.5t19.5 -50.5q9 -42 11 -83t-4 -83q-17 -109 -63 -207t-111 -187q-38 -53 -81 -99q-4 -4 -6 -5q-4 -4 -6 -5
q5 7 11 13.5t12 13.5l-1 1q-3 -3 -6 -6.5t-6 -6.5q-17 -19 -34.5 -35.5t-38.5 -30.5q-29 -17 -58.5 -18t-58.5 20q-14 11 -28 21.5t-26 24.5q-12 13 -17.5 28t-7.5 32q-2 9 -2 18t-1 18q0 4 -1 6q-3 -5 -5.5 -8.5t-5.5 -7.5q-7 -10 -13.5 -19t-13.5 -19q-12 -17 -24 -34.5
t-24 -34.5q-10 -14 -18.5 -27.5t-18.5 -27.5t-20.5 -26t-24.5 -22q-7 -4 -14 -1q-3 0 -7 2q-1 -2 -13.5 5t-27.5 17t-28 20t-14 15q-5 4 -6 9.5t-2 10.5q-2 15 -2 29.5t2 29.5q4 35 10 69.5t13 69.5q8 40 17 79.5t21 78.5q29 96 61.5 190t72.5 186q11 24 20 47.5t20 47.5
q4 10 5.5 11.5t8.5 -5.5q15 -7 22.5 -20t9.5 -27.5t1 -28t-4 -22.5q-2 -5 -3 -8.5t-3 -8.5h1q3 8 6 17l6 18v-8q-2 -9 -4.5 -17.5t-4.5 -17.5q-8 -31 -19.5 -71t-24.5 -84t-26 -88.5t-24.5 -83.5t-20 -69.5t-12.5 -46.5q-11 -42 -22 -84.5t-19 -85.5q0 -2 -0.5 -3t-0.5 -3
q10 9 17 18t14 19q23 31 45 61.5t44 61.5q24 35 47.5 70.5t47.5 70.5q14 20 28.5 39.5t28.5 39.5q3 4 7 7q3 3 6 2t4 -5q3 -2 14.5 -11.5t22 -24.5t15.5 -35t-5 -42q-2 -11 -5.5 -21t-6.5 -20q-7 -21 -13.5 -42.5t-12.5 -42.5q-8 -25 -14.5 -49.5t-10.5 -50.5
q-2 -11 -2.5 -23t-2.5 -24h1zM206 33l-3 -3q-4 -4 -7 -8t-6 -9q-12 -17 -23.5 -34t-23.5 -34q-2 -3 -3.5 -6t-3.5 -6l1 -1q1 2 1.5 2.5t1.5 2.5q8 11 14.5 21t14.5 21l36 54q7 7 12 18q-6 -6 -8 -10q-2 -6 -3 -8zM81 -143h1q1 1 2 1t2 2q8 10 15.5 20t15.5 21q3 3 5 7l4 8
q2 3 3.5 5.5t3.5 5.5q-1 0 -1 1q-13 -18 -25.5 -35.5t-25.5 -35.5zM620 722q-8 -1 -8.5 -6t-0.5 -10q2 4 3.5 8t5.5 8zM629 700q-4 2 -5 -3.5t0 -8.5q2 3 2.5 6t2.5 6zM65 38q8 32 16 63.5t17 63.5h1q-8 -32 -16.5 -63.5t-16.5 -63.5h-1zM169 -55q-9 -14 -18 -26.5
t-18 -26.5q0 1 -1 1q9 14 18 26.5t18 26.5zM79 108q2 6 3.5 12.5t3.5 12.5h1q-2 -7 -3.5 -13t-3.5 -12h-1z" />
    <glyph glyph-name="X" unicode="X" horiz-adv-x="497" 
d="M625 686q2 -7 2.5 -21.5t-10.5 -25.5q-4 -6 -7.5 -12.5t-7.5 -12.5q-2 -4 -5 -2.5t-6 5t-5 7.5l-3 6q-2 7 -7 3q-13 -11 -23.5 -23t-22.5 -24l-13.5 -13.5t-13.5 -14.5q-2 -2 -2 -5q17 17 34 33.5t37 30.5q-6 -6 -10 -9q-8 -8 -16.5 -16t-16.5 -16q-5 -2 -2 -6
q0 -2 -2 -4q-8 -8 -14.5 -15t-14.5 -15q-3 -4 -5.5 -8t-5.5 -8q-9 -11 -18 -21.5t-19 -21.5l-1 -2l15 15l1 -1q-8 -10 -16.5 -19.5t-16.5 -20.5h1q16 17 31.5 33t31.5 32q1 0 1 -0.5t1 -0.5q-2 -4 -3 -5q-9 -11 -18 -21.5t-17 -21.5q-23 -26 -45 -53t-45 -53l-24 -30
q-5 -5 -2 -13q7 -22 14 -43.5t14 -44.5q4 -12 7.5 -23.5t7.5 -23.5q1 -1 1 -2q-1 0 -2 -1q-5 15 -11 30t-11 29h-1l3 -12q6 -18 12 -35.5t12 -34.5q14 -38 29.5 -75t34.5 -72q4 -9 10.5 -14t12.5 -13q-1 -7 -9 -7q-5 0 -9.5 -0.5t-9.5 -0.5q-25 1 -40 6.5t-23 13t-12 15
t-7 13.5q-11 22 -21 44t-20 45q-11 25 -20 50t-19 51q-2 5 -4.5 11t-4.5 12q-1 2 -1.5 2.5t-1.5 2.5q16 -48 34 -93.5t38 -90.5q0 -1 -2 -1q-5 11 -9.5 20.5t-9.5 19.5h-2q8 -16 15 -32.5t16 -37.5q-5 7 -8 14q-13 26 -25 52.5t-24 53.5q-19 41 -35 79l-6 9
q-79 -107 -144 -197q-28 -38 -55.5 -76.5t-50.5 -71t-39.5 -57.5t-22.5 -36q-4 2 -7 5q-6 6 -2 12q1 2 15 22t36 52.5t51.5 74t60.5 85t63 86t60 77.5q-1 -1 -1.5 -1t-1.5 -1l-1 1q5 8 11 15.5t11 15.5q0 1 -1 1q-6 -7 -16 -20t-21.5 -27.5t-21.5 -27.5t-16 -20q-1 0 -1 1
q7 9 18.5 24t24 31.5t24 31.5t18.5 25q-1 0 -2 1l-3 -3q-11 -14 -21.5 -28t-21.5 -28q-12 -16 -23.5 -31.5t-24.5 -30.5q-26 -29 -48 -60l-44 -62q-25 -34 -49 -68t-47 -69q-10 -15 -19 -30l-18 -30q-3 -5 -3.5 -9.5t0.5 -8t1.5 -8t-0.5 -9.5q0 -3 -3 -6q-6 -4 -12 -1
t-11.5 9t-9.5 13t-7 12q-1 3 -1 10q0 14 6 25.5t13 23.5q54 88 114 176.5t130 193.5l34 48l34 48q3 5 2 8q-4 10 -7 19t-7 18q-25 64 -42.5 127t-34.5 129q-2 6 -4 11.5t-4 11.5q-3 -4 -5 1q-1 5 -2 10.5t1 11.5q1 6 0 12l-4 16t0 16q1 5 9 8q14 2 28.5 -5.5t27 -20
t23.5 -26.5t17 -25q23 -38 42.5 -74.5t34.5 -78.5q3 -11 7.5 -21t8.5 -21q46 54 94.5 110t107.5 98q16 11 31.5 21.5t31.5 21.5q23 14 37.5 5t21.5 -32z" />
    <glyph glyph-name="Y" unicode="Y" horiz-adv-x="412" 
d="M272 -90q1 2 1 5v-5h-1zM483 673q8 -20 10 -35t2 -24q0 -11 -3 -18q-9 -15 -19 -40.5t-20.5 -54t-20 -58t-16.5 -53.5t-11.5 -39.5t-4.5 -16.5q-8 -27 -16 -54.5t-18 -53.5h-1l6 24l6 24q2 6 3.5 12t3.5 11v1v1q4 9 5 16q0 1 -1 1q-1 -5 -1.5 -9t-2.5 -8v-1v-1l-2 -4
l-2 -4q-11 -41 -21 -80.5t-21 -79.5q-2 -9 -4.5 -18t-5.5 -18q-12 -41 -20 -81.5t-17 -81.5l-6 -21q4 28 8.5 55t10.5 55q5 28 10.5 55.5t11.5 54.5q6 28 12.5 55t11.5 55q-2 -10 -5 -19.5t-5 -20.5q-14 -57 -26 -113t-22 -113q-6 -32 -10.5 -64t-9.5 -64q-2 -10 -2 -20v-20
q0 -5 1 -8.5t1 -8.5v-5q-2 0 -2.5 0.5t-2.5 0.5q-7 5 -15 1q-3 -1 -10 0.5t-15.5 4.5t-15.5 8t-9 12q-7 20 -5 43q4 49 12 96.5t17 95.5q4 20 7.5 39.5t8.5 39.5v3h-1q-8 -36 -15 -72.5t-15 -73.5h-1q1 5 1 10t1 10h-2q-1 -4 -3 -14q-2 -9 -3 -17.5t-3 -17.5q-1 -4 -7 -10
q1 5 1.5 9.5t1.5 9.5l-1 1q-2 -8 -3 -15.5t-2 -15.5h-1q1 8 1.5 15.5t1.5 15.5q7 63 18.5 125.5t25.5 124.5q3 16 7 31.5t7 31.5q1 1 1 4q-19 -23 -33.5 -34t-25.5 -16q-12 -5 -22 -5q-39 8 -60.5 24.5t-32.5 33.5q-12 20 -15 44q-4 17 -4 35t2 36q0 8 1 17t2 17q0 2 1 2
q-1 -21 -1 -42.5t2 -42.5q0 5 -0.5 10t0.5 10q0 11 -0.5 23t0.5 23q4 64 23 129q5 19 11.5 37.5t12.5 37.5q4 11 7 22.5t8 22.5q7 17 15.5 32t20.5 11v-6q3 7 9 8q9 0 12 -2t5 -4t4.5 -5.5t0.5 -7.5q-1 -1 0.5 -3t1.5 -4q0 -5 -1 -7q-6 -22 -12 -43.5t-11 -42.5
q-2 -8 -3 -15.5t-3 -15.5q-4 -14 -7 -27.5t-6 -27.5l-9 -42v-3q6 25 11.5 49.5t11.5 49.5h1q-4 -18 -7.5 -35.5t-7.5 -35.5q2 0 2 -1q2 9 4 17.5t4 16.5h1q-1 -5 -1.5 -10.5t-2.5 -10.5q-5 -28 -10 -55.5t-8 -55.5q-1 -5 -1 -9.5v-9.5q0 -11 0.5 -20.5t1.5 -19.5
q0 -2 0.5 -3t0.5 -2q1 54 12 108q-2 -26 -5.5 -52t-1.5 -52q3 3 6 5.5t5 5.5q38 46 72.5 94t66.5 98q24 36 48 72.5t47 73.5q8 13 15.5 25.5t15.5 25.5q2 3 5.5 6t6.5 1q32 -17 39 -30t1 -24q-3 -4 5 -7zM210 -173q1 15 1.5 29.5t1.5 28.5h-1q0 -1 -0.5 -2t-0.5 -3
q-1 -5 -1 -9.5t-1 -9.5q0 -8 -0.5 -14.5t-1.5 -13.5q0 -2 2 -6h1zM267 -198q4 81 18.5 159t30.5 156h-2q-10 -51 -20 -101t-21 -101q2 7 2.5 13.5t1.5 13.5q-1 -1 -1 -3q-2 -14 -4.5 -28t-4.5 -29q-2 -16 -3 -32t-3 -33q0 -8 6 -15zM326 542q3 5 5.5 11t5.5 11q0 1 -1 1
q-3 -3 -4 -5l-8 -12l-8 -12q-15 -22 -30 -43t-30 -43l-57 -81q-8 -11 -17 -21t-18 -21q-5 -5 -6 -11t1 -14q38 39 68.5 82t59.5 87l-1 1q-14 -20 -28.5 -40.5t-29.5 -40.5q0 1 -1 1l12 18h-1v4q2 4 4.5 7t4.5 6q20 29 39.5 57.5t39.5 57.5z" />
    <glyph glyph-name="Z" unicode="Z" horiz-adv-x="454" 
d="M532 -207q4 7 8.5 15.5t2.5 8.5q-3 -5 -8 -11.5t-8 -8.5q-3 -4 -5 0q-4 3 -7.5 12t-6.5 18.5t-4.5 17.5t-1.5 9q-1 7 1.5 13.5t4.5 11.5q3 4 -2 7q-11 8 -22.5 13t-23.5 10q-17 8 -50.5 16.5t-64.5 17.5q-18 4 -56.5 10.5t-84 7.5t-92.5 -8t-81 -37q-11 -8 -22 -14.5
t-24 -9.5q-1 0 -1.5 -0.5t-1.5 -0.5q-7 -4 -8 -3.5t-6 6.5q-13 12 -22 32.5t-15.5 40.5t-10 36t-4.5 19q-2 6 -0.5 13.5t3.5 14.5q2 8 7 12.5t10 9.5q4 4 14 10.5t21.5 12.5t22 10.5t15.5 3.5q2 -1 4.5 0t4.5 3q16 15 31 31q37 42 71.5 84.5t69.5 85.5q25 31 49.5 61
t48.5 61q12 15 23 30.5t23 30.5q17 20 30.5 43t32.5 43q-4 -10 -6.5 -17.5t-8.5 -18.5q-8 -15 -16.5 -30t-17.5 -29q-4 -6 -9.5 -15.5t-12 -20t-13 -20.5t-11.5 -16q2 -1 7.5 5t12 14.5t12 16.5t7.5 11q5 8 9.5 15t9.5 14q8 14 15 26.5t15 25.5q5 9 9 18l8 18q2 2 -0.5 11.5
t-14.5 9.5t-24 -3q-19 -5 -37 -12t-36 -15q-45 -20 -83 -45q5 3 10 5.5t10 5.5q0 -1 1 -1q-5 -4 -10.5 -7t-10.5 -7q-14 -10 -28.5 -19.5t-28.5 -20.5q-8 -5 -14 -12t-13 -13q-3 -3 -7 -6t-7 -6q-14 1 -20.5 16.5t-7.5 34.5t3 36t10 21q-2 -1 -5 -1q21 28 49.5 47t55.5 36
q38 23 75.5 40.5t75.5 32.5q14 5 28.5 8.5t29.5 4.5q6 0 13.5 -0.5t11.5 -2.5q3 -4 4 -4.5l5 -2.5q-1 2 -3 3.5t-3 2.5q12 -2 15 -6q7 -14 10 -30.5t4 -33t0 -31.5t-2 -25q-6 -65 -27.5 -126t-53.5 -117q-11 -20 -22.5 -38.5t-22.5 -38.5q-20 -35 -43.5 -66t-46.5 -63
q-3 -5 -11.5 -16.5t-17.5 -20.5q22 -5 48.5 -11t49.5 -11q-3 -5 -1 -6t5 -2q46 -15 94.5 -28t89.5 -41q42 -27 48 -75q2 -9 3.5 -18t1.5 -19q2 -26 -2.5 -54t-22.5 -46zM242 144l3 3l3 3q7 8 13.5 16.5t12.5 17.5l24 33q5 7 9.5 13.5t9.5 14.5q7 8 13 19q-1 0 -1 1v2z
M430 716q-5 2 -13 2.5t-14 -1.5q3 -1 12.5 -1h14.5zM86 126q1 0 1 -1q7 7 10 11q-1 0 -1 0.5t-1 0.5q-3 -3 -9 -11z" />
    <glyph glyph-name="a" unicode="a" horiz-adv-x="333" 
d="M198 -45q3 13 7.5 27t7.5 26q4 15 7 24.5t5 18t5 18t7 24.5q0 1 2 8t4 15t3 14.5t1 8.5q-2 -7 -4 -13.5t-4 -13.5q-8 -24 -14.5 -48t-14.5 -47q-11 -38 -20 -75t-17 -75q-6 -28 -9 -58q-1 -5 -1 -9t-2 -11q-11 0 -17.5 1t-14.5 3q-21 5 -20 24q0 15 2 30t5 31
q8 43 17.5 85t20.5 85q2 4 2.5 8t1.5 9q-2 -4 -2.5 -7.5t-2.5 -7.5q-8 -34 -16.5 -68t-17.5 -68q-5 -19 -7.5 -39t-7.5 -39q0 31 5.5 61t10.5 60q11 59 24.5 116.5t27.5 115.5q-22 -23 -42 -45.5t-44 -42.5q-7 -5 -15 -10.5t-16 -8.5t-16.5 -3t-15.5 7q-14 11 -27.5 25
t-16.5 31q-2 19 0.5 40t7.5 40.5t11 37.5t12 31q16 35 37.5 68t53.5 56q20 15 44 11q17 -3 32 -18q9 -9 14.5 -20t9.5 -23q0 -1 1.5 -6t2.5 -12t1.5 -15t0.5 -14q4 3 10.5 11t13.5 18q8 14 16 26.5t19 23.5q16 17 24 12q4 -3 10.5 -6.5t12 -7.5t8.5 -8t0 -7q6 -5 9.5 -8
t0.5 -13q2 -5 0.5 -9t-3.5 -12l-8 -26t-9 -27q-8 -21 -15 -42t-15 -43l-33 -96q-14 -42 -25.5 -78t-24.5 -71zM68 273q8 13 15 25t16 23q-26 -42 -45 -86.5t-24 -94.5q6 -3 17.5 5.5t17.5 15.5q24 24 47 48t46 49q2 2 2 4t2 4q-8 0 -12 4.5t-2 9.5q2 8 6 20.5t7 26t4 26
t-3 21.5q-2 8 -7 3q-18 -8 -31 -21.5t-24 -28.5q-9 -13 -17 -26.5t-15 -27.5zM105 315q-47 -73 -70 -160q17 91 70 160z" />
    <glyph glyph-name="b" unicode="b" horiz-adv-x="362" 
d="M11 133q-5 2 -5 8.5t1 11.5q7 22 13.5 43.5t13.5 44.5q6 22 11 43.5t11 43.5q27 94 60.5 184t81.5 175q5 11 10.5 22t11.5 22q2 5 6.5 8.5t9.5 1.5q4 -2 6 -4.5t9 -9.5q1 -2 4.5 -7.5t-1.5 -18.5q-14 -35 -27.5 -69.5t-25.5 -69.5q5 13 11 25.5t11 25.5q1 1 2 0
q1 -2 0 -6q-2 -4 -4.5 -11.5t-5.5 -16t-5.5 -16t-4.5 -11.5q-11 -30 -20.5 -56.5l-19 -53t-19 -53.5t-18.5 -57q0 -1 -1 -3.5t-1 -3.5q3 4 7 8q20 20 41.5 38.5t44.5 33.5q9 6 18.5 11t18.5 10q16 8 31 5q28 -4 42 -31q9 -17 15 -36q4 -11 3.5 -21.5t-2.5 -21.5
q-3 -19 -9.5 -36t-14.5 -34q-16 -33 -33.5 -64.5t-40.5 -61.5q-24 -32 -52.5 -60t-63.5 -50q-28 -16 -57 -20q-8 0 -15 2t-13 7q-8 5 -14.5 11t-12.5 12q-7 16 0 28t21 19t31 10t29 2q8 -2 12 -1t9 7q26 24 46.5 52t40.5 58q23 37 44 75.5t38 80.5q2 5 3.5 11.5t3.5 12.5
q1 7 -6 6q-24 -2 -43 -13q-14 -8 -27 -18t-25 -21q-21 -20 -40 -40.5t-36 -43.5q-4 -6 -9 -16t-10 -19.5t-9 -18t-5 -11.5q-5 -16 -11.5 -31.5t-11.5 -31.5q-2 -8 -9 -3q-3 3 -7 1.5t-8 -0.5q-8 2 -17.5 6t-11.5 5zM120 328q0 2 1 4q0 2 2 8q1 5 3 11q-2 -4 -6 -18t-5 -18h1
q1 3 2 6.5t2 6.5z" />
    <glyph glyph-name="c" unicode="c" horiz-adv-x="288" 
d="M218 366l-8 -16t-10 -19.5t-9 -16l-4 -6.5q8 20 16 34.5t12 32.5q-15 -7 -27.5 -19t-23.5 -26q-13 -17 -25 -33.5t-20 -35.5q-10 -23 -20.5 -44.5t-18.5 -44.5q-1 -1 -1 -3q17 38 36.5 73.5t46.5 67.5q-34 -48 -56 -99q-12 -26 -22 -53t-15 -56q7 1 18.5 7t23.5 12.5
t22 11.5t12 5q-8 -5 -14.5 -10.5t-14.5 -10.5q30 17 57 34.5t50 32.5q3 2 6 3.5t8 -3.5q8 -2 10.5 -5t7.5 -8q5 0 6 -2t5 -8q3 -5 0.5 -7.5t-6.5 -5.5q-24 -17 -48 -35l-48 -36q-9 -6 -15 -10.5t-12.5 -9t-15 -9.5t-22.5 -11q7 1 18.5 7t24 14t24 16.5t19.5 15.5
q-17 -19 -36 -36t-43 -27q5 2 12.5 3.5t12.5 3.5q-12 -10 -23.5 -10t-19.5 4q-10 4 -18.5 9.5t-16.5 12.5q-8 8 -17.5 14.5t-18 15t-14.5 19.5t-8 28q0 17 3 34t8 34t12.5 33.5t15.5 32.5q1 3 4 6q-2 -5 -4.5 -10t-4.5 -11q-2 -5 -4 -10.5t-4 -10.5l1 -1q2 3 2.5 6t2.5 6
q16 33 34 64.5t41 60.5q15 18 33.5 34.5t41.5 24.5q-4 -3 -9.5 -5.5t-9.5 -5.5q7 4 14 6.5t14 6.5q19 6 31 6t26 -12q17 -17 24 -39q2 -8 2 -16t-2 -16q-8 -28 -20 -52.5t-26 -46.5q-3 -5 -7 -11t-6 -4q-6 4 -4.5 5.5t-3.5 5.5q-3 1 -9.5 2t-12 3t-9.5 5t-3 9q16 24 31 51
t21 54z" />
    <glyph glyph-name="d" unicode="d" horiz-adv-x="394" 
d="M243 243q-6 -7 -11 -16q-21 -33 -44 -63.5t-51 -57.5q-19 -19 -41 -29q4 0 6 1q-5 -2 -10 -3.5t-10 0.5q-19 2 -37 7.5t-35 16.5q-6 4 -9 9t-5 11q-5 14 -5.5 27.5t1.5 27.5q4 34 15 65t28 60q18 29 37 51q19 24 47 33q8 2 15 3.5t15 -1.5q14 -7 22 -16q7 -7 12.5 -15
t10.5 -16t4.5 -16.5t-2.5 -16.5q-2 -10 -4 -17q-2 -3 -4 -5l-4 -4q1 4 2.5 10.5t3 14t1.5 14.5t-1 12q0 -5 -1 -13t-2.5 -16.5t-4 -14t-5.5 -4.5q-1 0 -0.5 5.5t1.5 12t2 11t0 3.5q-2 -3 -4 -15.5t-4 -17.5q-9 1 -11.5 4t-3.5 6t-3 5t-11 2q1 4 2 10.5t2 10.5q-2 -1 -3 -4.5
t-9 -1.5q5 18 1 34q-5 -3 -11.5 -10.5t-11.5 -15.5q-11 -19 -21 -35.5t-18 -33t-14 -34t-10 -39.5q-3 -14 -3 -26v-25q2 8 2 15v15q1 -3 1 -6.5v-6.5l9 42q6 18 14 40q4 11 8 20.5t9 19.5q5 9 10 18.5t12 17.5q-23 -40 -40 -81.5t-19 -88.5q-1 -6 1 -7t10 1q22 17 39 38
l34 42q8 9 15 18.5t14 18.5q9 11 17 23t16 23q6 8 12.5 17t12.5 18q0 -2 -2 -4q-8 -14 -17 -28l-18 -28q0 -5 -3.5 -11t-5.5 -8l1 -1q9 11 17 23l16 24q11 17 21.5 34t21.5 34q20 32 39 63.5t39 63.5q3 5 5 11.5t4 11.5q24 58 47 108t49 109q4 11 13.5 10t15.5 -4
q2 -1 3.5 -1t3.5 -1q7 -3 9.5 -5.5t3 -5.5t1 -5.5t2.5 -3.5q6 -3 7.5 -7.5t2 -9t0.5 -8.5t2 -5t-2 -16t-10.5 -36.5t-15.5 -46t-17.5 -46.5t-14.5 -37.5t-8 -17.5l7 20t16 44t16 44t7 21q-3 -5 -12 -28.5t-19 -50t-18 -49.5t-9 -27q3 6 5 11.5t6 13.5q5 -1 0.5 -13t-6.5 -20
q-1 -2 0 -4.5t1 -4.5q-6 -18 -11.5 -36t-10.5 -36q-12 -43 -24.5 -86t-25.5 -87l-2 -4q-1 -1 -1 -3q0 -1 -1 -2q1 5 3 13.5t3 13.5h-1q-8 -35 -16.5 -71t-16.5 -71h-1q5 27 11 54t11 55q-1 -2 -3 -9.5t-3 -9.5l-1 1q8 35 18.5 75t19.5 75q-27 -91 -46.5 -181.5t-36.5 -183.5
q8 57 18.5 112t22.5 111l-1 1q-8 -32 -14.5 -62.5t-13.5 -62.5h-1l27 132q-18 -74 -32.5 -148t-22.5 -150q5 56 13.5 110.5t19.5 108.5h-1q-6 -32 -12.5 -65t-11.5 -66q-6 -33 -10 -66t-5 -66q0 43 6 85l12 84q-2 -7 -3 -13t-2 -13l-6 -40t-5 -40q-2 -11 -3.5 -25.5t-1 -29
t3.5 -26t10 -17.5q-2 -6 -7 -7.5t-13 -0.5q-19 2 -26.5 9.5t-14.5 24.5q-5 35 -1.5 69.5t7.5 68.5q5 35 10 68t12 66q5 28 11 55t11 54q3 16 6 30.5t7 29.5q2 10 5 20t6 21q0 1 0.5 2t0.5 3q-11 -13 -14 -28.5t-9 -29.5q1 6 2 12.5t2 13.5q-1 0 -2 1q-10 -16 -20 -31
t-21 -30q-1 0 -1 1q4 6 7.5 12t8.5 13q6 9 12 18.5t12 18.5q2 4 3.5 8t3.5 9t3 11t3 12h-2l-15 -24q-24 -38 -49 -75t-53 -72q-13 -17 -27 -32t-31 -28q-4 -3 -8 -5.5t-9 -6.5q17 8 31.5 18.5t27.5 24.5q21 23 39 46.5t36 49.5q8 11 17 25q1 0 2 -1zM53 312l1 -1
q12 17 23.5 33t27.5 30q-5 -2 -7 -4q-6 -5 -11.5 -10t-10.5 -10t-9.5 -10.5t-5.5 -13.5q-1 -4 -3.5 -7.5t-4.5 -6.5zM406 406h-1q-3 -11 -6.5 -22.5t-7.5 -22.5h1q4 11 7 22.5t7 22.5zM419 446h-1q-4 -15 -11 -34h1q3 8 6 16.5t5 17.5z" />
    <glyph glyph-name="e" unicode="e" horiz-adv-x="327" 
d="M308 254q-1 -2 -6 -6t-5 -5q3 1 7 4t7 3t3 -3q3 -4 1.5 -6t-6.5 -7q5 2 6.5 3l4.5 3q7 -7 9 -10.5t-5 -11.5q-3 -3 -6 -6.5t-6 -6.5q-5 -5 -11 -10.5t-12 -10.5q-27 -23 -54 -47t-55 -47q-8 -7 -15.5 -13t-15.5 -13q-5 -4 -9 -7.5t-8 -7.5q-14 -13 -34 -16q-2 -1 -7 -1
q-11 3 -20.5 5.5t-19.5 7.5q-2 1 -4.5 1t-4.5 1q-12 7 -24 13t-22 17q-7 8 -9.5 16.5t-4.5 18.5q-4 24 -1 48t8 47q8 31 20 59t28 55q4 7 9 12.5t10 12.5q2 2 4 5l4 6q15 20 32.5 37t40.5 29q14 8 28 12q36 9 66 -20q20 -20 26 -49q4 -17 1 -32.5t-11 -30.5q-23 -44 -67 -66
q-8 -5 -16 -6q-12 -2 -20 4q-5 3 -10 5.5t-10 5.5q-4 2 -7.5 4.5t-6.5 5.5q-4 3 -6 -1q-13 -29 -22.5 -59.5t-14.5 -62.5q-1 -7 -1 -14t-1 -14q0 -2 0.5 -3t0.5 -3q2 1 3 1t2 1q42 23 82 54l54 40t55 40q6 5 12 8.5t13 8.5q8 4 12 5.5t9 -3.5zM147 292v-1q3 0 4 1
q22 16 36.5 36t21.5 46q2 5 2 10t2 11q-13 -3 -19 -7q-14 -11 -26 -24.5t-23 -27.5q-2 -2 -2.5 -5t-1.5 -5q0 -4 4 -3q1 1 2 1h1q3 -2 4 -7t-1 -8l-4 -10l-4 -10h2q0 1 2 3zM209 398q-14 -1 -31 -13q8 4 15.5 7t15.5 6z" />
    <glyph glyph-name="f" unicode="f" horiz-adv-x="256" 
d="M286 408l-32 -30t-31 -32q-13 -13 -25 -27t-25 -28q-6 -6 -8 -10q-2 -2 -2 -3t-1 -3l1 -1l60 63q1 0 1 -1l-3 -3q-14 -15 -28 -30.5t-28 -29.5q-7 -7 -12 -21q-7 -17 -11 -34q8 18 13 34t20 28q-6 -12 -13 -28.5t-15 -30.5q-10 -12 -17 -30q-10 -34 -20 -67.5t-20 -66.5
q12 -2 24.5 -3t23.5 -5q18 -5 32 -15t26 -24q3 -3 7 -9q22 -28 14 -63q-7 -27 -21.5 -60.5t-35 -61t-46 -44t-52.5 -10.5q-8 2 -15.5 3t-15.5 3q-11 2 -21.5 3t-20.5 6q-13 5 -19.5 15t-9.5 22t-4 25t-1 25q0 29 3.5 56.5t8.5 55.5q2 6 1 7t-6 4q-11 6 -21 9.5t-20 9.5
q-8 5 -10 14.5t0 16.5q7 25 21 44.5t31 39.5t33 39t32 39q3 3 7 11q17 50 31.5 87.5t28 69t27.5 60.5t31 63q13 23 27 48t26 46.5t21 38.5t14 25q11 19 17 30.5t14 24.5q1 2 3 4.5t4 2.5q2 -1 9 -3t8 -4q2 -5 1 -7q-2 -11 -8 -21.5t-11 -21.5t-10 -20.5t-10 -20.5l-27 -57
v-1q0 -1 1 -2q4 9 11.5 24l15.5 31l15.5 31t11.5 24q2 5 4 8t4 7q5 9 6.5 11.5t6.5 7.5q-13 -27 -29.5 -62t-33.5 -71t-32.5 -71t-27.5 -63q3 1 12 19t21 44t25.5 56.5t25.5 57.5t21 46.5t12 23.5h1l-1.5 -4t-3.5 -9t-3.5 -9t-1.5 -5q3 8 6.5 14.5t7.5 13.5h1
q-5 -13 -10 -25l-10 -24q1 0 1 -0.5t1 -0.5q8 17 15 33t15 33q5 -1 2 -8.5t-6 -15.5q2 4 4 8.5t4 6.5l1 -1q-5 -15 -10.5 -30.5t-10.5 -29.5q-26 -62 -51 -124.5t-54 -120.5q25 19 49.5 40t48.5 40q1 1 3.5 3t3.5 2q5 3 12 -1t12 -11q-1 0 -2 -1q-2 -2 -2 -3
q-11 -11 -17.5 -17t-14.5 -14q-4 -5 -8.5 -8t-8.5 -8q-1 -2 -4 -5l-2 -2q2 2 8.5 7.5t9.5 7.5zM54 -161q26 24 49 52.5t38 60.5q12 23 11 47q0 6 -6 6q-17 -3 -34 -5.5t-34 -10.5q-6 -3 -6 -8q-8 -35 -13.5 -70.5t-4.5 -71.5zM201 -19q-2 -25 -11 -48.5t-19 -46.5
q5 5 8.5 10.5t8.5 11.5q10 18 14 31.5t6 27.5v5t-2 5q-1 -2 -1 -4t-1 -3q0 5 -0.5 7t-2.5 4zM186 -109q3 3 7.5 12t9 20t7 21.5t1.5 15.5q-3 -8 -5.5 -17t-5.5 -18t-6.5 -17.5t-7.5 -16.5zM-17 50q-2 -2 -4 -5t-4 -5l1 -1q5 2 7 11zM247 361q-5 -5 -9.5 -10t-9.5 -10
q0 -1 1 -1q5 5 9.5 10t9.5 10zM255 365l12 15q-3 -4 -6.5 -7t-6.5 -7q1 0 1 -1z" />
    <glyph glyph-name="g" unicode="g" horiz-adv-x="352" 
d="M155 416q-47 -31 -82 -78q-20 -27 -35.5 -55.5t-26.5 -60.5l1 -1q1 2 1.5 2.5t1.5 2.5q5 11 9.5 22.5t10.5 22.5q4 8 8.5 14t9.5 13q13 20 27 38.5t31 34.5q14 13 29 23.5t32 17.5q10 2 21.5 3.5t19.5 -6.5q17 -14 22 -32t3 -38t-9.5 -38t-21.5 -33q-5 -8 -7.5 -3.5
t-8.5 7.5q-5 5 -5 9q-4 5 -2 8.5t4 7.5q5 12 10 23.5t8 23.5q3 9 3 18t1 18q0 4 -2.5 4.5t-4.5 -0.5q-14 -2 -27 -11.5t-24 -22.5t-21.5 -26t-20.5 -22q-23 -35 -41.5 -71t-29.5 -76q-7 -25 -9 -53v-6q20 10 37 23l34 26q-2 -2 -4.5 -5t-4.5 -5q1 0 1 -1q5 5 10.5 9.5
t10.5 9.5q38 37 72.5 75.5t68.5 79.5q11 14 23 29t23 29q8 11 11 7t11 -8q7 -5 11.5 -9t6.5 -12q3 -8 3 -16t-2 -16q-8 -41 -19.5 -80t-24.5 -77q-3 -16 -10 -34.5t-10 -26.5q-15 -41 -31 -80t-36 -77q-13 -25 -27 -48.5t-34 -44.5q-9 -13 -22 -22q-23 -14 -45.5 -28
t-50.5 -17q2 -2 1 -2q-11 0 -21 3t-21 7q-10 3 -19.5 9t-14.5 12q-7 7 -8.5 15.5t0.5 16t6.5 13.5t9.5 10q7 5 14 9t13 3q-5 -4 -14.5 -12t-12.5 -12q-5 -6 -5.5 -11t-0.5 -12q2 4 4 7.5t4 7.5q6 11 14 19.5t19 13.5q6 3 12 6.5t11 6.5q3 2 9 4q12 4 24 7t25 3h6
q5 -1 7.5 -0.5t5.5 5.5q8 15 16.5 29.5t15.5 29.5q17 35 32 69t31 69q11 29 24.5 56.5t22.5 55.5q-20 -23 -39.5 -45.5t-39.5 -45.5q-13 -14 -26.5 -27.5l-27.5 -27.5q-16 -16 -35 -23q-18 -6 -33 2l-24 12q-2 1 -3 1t-3 2q-5 4 -10.5 8t-10.5 8q-8 8 -11.5 17t-4.5 20
q-2 18 0.5 36t7.5 35q14 48 36 91t56 81q4 5 13.5 13.5t10.5 5.5q13 11 26.5 21.5t30.5 16.5zM58 92h2q1 1 2 1t2 1q11 9 21.5 17.5t20.5 17.5q22 21 42 42q16 17 31.5 33.5t29.5 33.5q20 23 39.5 46t39.5 46q3 4 5 9l4 10q-4 -6 -11.5 -15t-16 -18.5t-17 -18.5t-14.5 -15
q-19 -22 -38 -43.5t-39 -43.5q-23 -25 -46.5 -48t-51.5 -43q-6 -5 -5 -12zM7 -174q2 -2 11 2.5t19.5 11.5t19 14.5t10.5 11.5q-14 -5 -26 -11.5t-23 -15.5q-3 -3 -5.5 -6t-5.5 -7zM-15 131q6 66 35 129q-6 -9 -13 -26.5t-12.5 -37t-8.5 -37.5t-1 -28zM132 -173h-1l13 13h1z
" />
    <glyph glyph-name="h" unicode="h" horiz-adv-x="282" 
d="M257 287q2 -6 2 -12.5t-2 -12.5q-4 -14 -6 -23t-6 -23q-4 -13 -8 -30t-7.5 -34.5l-6.5 -32.5t-5 -24q-10 -46 -17 -85q-6 -34 -10 -65.5t1 -43.5q8 -23 7 -27.5t-2 -9.5l-3 3q0 -5 -7 -5q-4 0 -8 8v-3q0 -3 -1 -5q-3 2 -6.5 2.5t-7.5 2.5t-7 4t-7 4q-9 5 -11 15
q-2 7 -3 13t-2 13q-2 23 0 44.5t5 43.5q12 103 33 203q4 20 11 39l14 38q2 4 1 6l-3.5 -3.5l-3.5 -3.5q-32 -30 -61 -63t-55 -68l-12 -16t-11 -16q-2 -4 -4 -7.5t-4 -8.5l-2 -4l-2 -4t-3.5 -7.5t-4.5 -10.5q-2 -4 -5 -1.5t-8 2.5q-6 0 -11.5 2t-15.5 7q-15 6 -13 20
q0 20 3 41q17 85 40.5 167.5t54.5 163.5q7 17 13.5 33.5t13.5 33.5q14 31 27.5 61.5t27.5 60.5q4 5 1 9q-1 1 2.5 6t8.5 12q7 9 10 9.5t12 -3.5q10 -4 13.5 -7t4.5 -7q0 -2 -3 -6.5t-6 -9.5q-3 -6 -5.5 -13t-7.5 -15q-21 -47 -39.5 -93t-35.5 -94l-24 -76t-23 -76
q-11 -35 -20 -70.5t-19 -71.5q-1 -3 -1 -12q40 148 72 245.5t54 154.5q26 67 44 103q8 6 12.5 7.5t7.5 0.5q4 -1 5 -4l-15 -35q-9 -21 -20.5 -50.5t-24 -64t-25.5 -71.5t-25 -73q-28 -84 -57 -178q22 26 44.5 50.5t45.5 47.5q12 12 24.5 24t25.5 24q4 4 10 7q6 2 11 0l10 -4
q13 -7 16 -24q2 -8 9 -14q2 -1 3.5 -4t2.5 -6zM244 285l-2 -12t-3 -13l8 17q1 3 1 6.5v6.5q-1 2 -1.5 5.5t-1.5 3.5q0 -5 -0.5 -7.5t-0.5 -6.5z" />
    <glyph glyph-name="i" unicode="i" horiz-adv-x="117" 
d="M114 385q5 -2 7 -8.5t0 -12.5q-4 -10 -12.5 -32.5t-17.5 -47t-16.5 -45t-9.5 -25.5q-13 -37 -24 -77t-17 -81q0 -1 -2 -5q2 9 3 18t2 17q2 9 3.5 18t2.5 18q-2 -6 -3 -12.5t-3 -13.5q-2 -14 -3.5 -22.5t-3.5 -22.5q0 -3 -1.5 -12.5t-1.5 -11.5q2 6 3 10l3 12
q2 -1 0.5 -9.5t-3.5 -19.5q-3 -12 -7 -25q-5 1 -12 2t-15 4q-12 5 -12 17q-2 24 0 47q6 67 24 132q1 1 1 3q0 5 1 9q-2 -5 -4.5 -12.5t-4.5 -12.5q-1 -3 -2 -5l-2 -4l-1 -1q19 62 37 109.5t38 88.5l15 24q1 2 4 5t5 2q4 -2 8.5 -2.5t8.5 -2.5q3 -2 5 -6.5t7 -6.5zM141 462
q-8 5 -14 9.5t-12 10.5q-6 7 6 15q5 3 9 1q9 -4 13 -7.5t10 -9.5q-1 -3 -2 -5q-1 -1 -1 -3v-2q-2 -3 -3 -7t-6 -2z" />
    <glyph glyph-name="j" unicode="j" horiz-adv-x="168" 
d="M-230 -118q4 93 84 148q-7 -8 -13.5 -14.5l-13.5 -13.5q-12 -14 -22 -29.5t-17 -32.5q-1 -2 -1 -5q3 4 7 12q19 38 54 68q19 17 39.5 30t41.5 25q12 7 24.5 13.5t25.5 13.5q5 2 7 6.5t4 9.5l4 10l4 10q0 -2 -0.5 -3.5t-0.5 -3.5h1l12 42l1 -1q-4 -14 -7.5 -26.5
t-7.5 -26.5l1 -1q5 13 8.5 26t7.5 26h1q0 -2 -0.5 -4t-0.5 -4q4 11 6.5 20t5.5 17h1l-10 -38l-10 -38q5 0 7 6q3 11 6 21l6 20l22 84l22 84q2 10 4 19t4 19q1 5 -1 15q-1 5 6 8q5 1 7.5 -0.5t4 -3.5l3 -4t5.5 -2q6 1 9 -3q7 -11 7.5 -20.5t0.5 -20.5v-2h1q1 5 1 10t1 10h1
q1 -4 1 -13q-1 -8 -1.5 -17t-1.5 -17q0 -21 -3 -38t-11 -50q-5 -17 -11 -39t-11 -42q20 7 48.5 11.5t55.5 4.5q25 -1 44 -11.5t36 -27.5q2 -2 3 -3.5t-1 -4.5q0 -1 1 -2t2 -3l2 -6t3 -7q-3 0 -3 1q-5 2 -8.5 4.5t-7.5 4.5q-14 8 -29.5 10t-31 1t-31.5 -4.5t-30 -7.5
q-13 -4 -25 -8t-25 -8q-8 -3 -10 -12q-1 -2 -1.5 -4t-3.5 -1q-1 0 -3 -5t-3.5 -10t-3.5 -10q-3 -11 -6.5 -21t-5.5 -21q5 14 9.5 27t9.5 27q1 0 2 -1l-16 -48l-16 -48h1q2 5 4.5 11t4.5 12t4.5 12t5.5 13q0 -3 -3.5 -15t-8.5 -25.5t-10 -26t-8 -17.5q2 6 4.5 11.5t4.5 11.5
h-1q-1 -1 -1.5 -2t-1.5 -2q-7 -14 -13 -27.5t-14 -27.5q-4 -8 -8.5 -14t-9.5 -12q-9 -12 -18.5 -23t-21.5 -20q-28 -21 -65 -24q-28 -2 -52 7q-10 4 -19.5 8t-18.5 9t-15 12t-10 15q-2 5 -4.5 10t-4.5 10t-2 14q2 -11 5.5 -20t13.5 -15q-4 7 -8.5 13.5t-3.5 16.5q2 -5 3 -8
t3 -7h1v1q-8 14 -8 28.5t3 29.5q5 25 22 51q-3 -8 -6.5 -14.5t-5.5 -13.5q-7 -15 -8 -29q-2 -8 -2 -15t2 -15zM-56 2l-4 -2q-9 -7 -18.5 -12.5t-17.5 -13.5q-8 -7 -14 -14.5t-13 -15.5q-14 -17 -24 -35t-15 -40q-5 -16 -2 -31q7 -3 15 3q2 2 3.5 4t3.5 4q10 8 17 18t14 21
q15 25 27.5 51.5t23.5 52.5q2 6 4 10zM-99 -21h1q5 2 9.5 4.5t9.5 5.5t10.5 6.5t10.5 7.5q2 1 2.5 2.5t2.5 3.5l-2 2l-22 -16zM135 483q-7 5 -13.5 10.5t-12.5 11.5q-4 3 -7 7.5t-5 9.5q-2 3 0 7q3 5 8 2t10 -5.5t8 -7.5q5 -7 8 -14.5t6 -15.5q1 -2 0.5 -4.5t-2.5 -0.5z" />
    <glyph glyph-name="k" unicode="k" horiz-adv-x="313" 
d="M130 11q4 1 10 3v-1q-4 -2 -12.5 -5.5t-17 -7.5t-15 -7t-6.5 -4q8 3 15.5 6.5t15.5 6.5q-8 -7 -19.5 -13.5t-23 -11t-20.5 -7t-12 -0.5q-5 1 -15.5 10t-18.5 19q-3 -5 -5.5 -18t-5 -28t-5 -29t-3.5 -22q-1 -2 -7 -1.5t-9 1.5q-12 2 -15.5 4.5t-5.5 13.5q0 1 -2 1
t-3.5 0.5t-3 2t0.5 7.5q0 4 2.5 16t5 25t4.5 24.5t3 15.5q11 48 20.5 96t22.5 96q14 53 25.5 96t24 86.5t27.5 92.5t36 114q1 3 1.5 6t-2.5 6q-2 2 0 6q10 28 29 57q5 5 9 -2q7 -8 15 -15t9 -15q1 -21 -5 -45t-12 -47q-5 -17 -9.5 -34.5t-9.5 -34.5q-8 -29 -16.5 -57.5
t-16.5 -57.5q-11 -38 -23.5 -75.5t-22.5 -75.5q43 64 95 122q33 38 74.5 67.5t87.5 49.5q5 1 5.5 -3t3.5 -6q4 -4 9 -13.5t1 -11.5q-14 -4 -26 -13.5t-23 -17.5q-11 -11 -22.5 -19.5t-21.5 -21.5q23 18 47.5 39.5t43.5 27.5q3 2 7 0q-35 -18 -68 -46.5t-57 -58.5
q8 8 17.5 18t17.5 17l-4 -6q-2 -3 -4 -5q-54 -66 -101.5 -131.5t-81.5 -145.5q46 13 91 25t93 20q19 3 37.5 5t37.5 0q17 -1 34 -5t33 -13q38 -22 44 -69v-10.5t-5 -6.5q-10 -1 -10 4t-4 7q-2 -1 -2 1.5t-2 4.5q-5 2 -5 3.5t-1 3.5q0 6 -0.5 12.5t-0.5 12.5q-1 5 -7 8
q-12 5 -24.5 6.5t-25.5 1.5q-21 1 -41.5 -1.5t-40.5 -6.5q-57 -11 -111 -30q-18 -9 -21 -11zM392 58l-6 3q-14 5 -28.5 6.5t-29.5 1.5q-16 -1 -31 -2.5t-30 -5.5q-16 -4 -31.5 -7t-31.5 -7q-13 -3 -25.5 -7t-25.5 -12q3 1 6 1q58 21 120 30q20 3 39 5t39 0q9 -1 18 -2.5
t17 -3.5zM102 317q10 42 22 83t26 83q-9 -42 -22 -83t-26 -83zM178 588l-5 -22.5t-6.5 -27.5t-7.5 -27t-8 -21q3 9 6.5 22t7 27t7 27t6.5 22z" />
    <glyph glyph-name="l" unicode="l" horiz-adv-x="233" 
d="M182 668q-3 -9 -8 -21t-11 -25.5t-11 -27t-8 -23.5q11 27 23.5 53.5t23.5 53.5q3 8 6 15t5 15q5 4 8.5 2t8.5 -2q8 -4 14 -5.5t9 -6t1.5 -13t-8.5 -26.5q-6 -18 -12 -33t-11 -32q3 4 4.5 7t3 7.5t4.5 11t8 17.5q-6 -25 -14.5 -54t-16.5 -52q-8 -25 -17 -49t-18 -49
q-26 -73 -45 -148t-36 -152q-1 -5 -3 -14t-3.5 -17.5t-2.5 -15t-1 -7.5q8 32 15 66t15 66q12 48 25.5 95t26.5 95q7 20 12 35.5t10 26.5q-4 -14 -8 -26.5t-11 -36.5q-23 -78 -44.5 -159.5t-35.5 -160.5q9 10 20.5 24t24.5 26t26.5 20t27.5 6q17 -2 24.5 -8t11.5 -11
q5 -5 6 -11.5t1 -11.5q0 -1 -2 -3q-1 2 -1 4.5t-2 5.5q1 -5 2 -8t-5 0q-4 0 -4 5q-1 11 -9.5 11t-16.5 -5q-12 -10 -26 -23.5t-27 -28t-24 -27t-17 -20.5q2 1 6.5 5t9.5 5q-6 -9 -12.5 -19.5t-14.5 -15.5q-9 -6 -24 1q-12 4 -18.5 8t-10.5 7.5t-8 6t-12 4.5q-11 1 -13 11
q-1 3 -1.5 9.5t-0.5 14t0.5 15t0.5 12.5q8 57 20.5 112t27.5 110q20 74 45 146t57 141q3 6 8.5 16.5t11.5 21.5t11.5 21t8.5 13zM151 120q-2 -2 -9.5 -8t-9.5 -8q7 10 22 21.5t22 16.5q-5 -2 -9 -2.5t-13 -5.5q5 6 9.5 9.5t10.5 7.5q-20 -4 -32.5 -15.5t-25.5 -24.5
q-7 -8 -16 -18.5t-16 -18.5q8 5 19 15.5t17 17.5q5 6 15 14t16 11q-5 -6 -15 -16.5t-20.5 -22t-18 -21t-7.5 -13.5q4 4 12.5 12t17.5 17l17.5 17.5t13.5 14.5zM119 68q3 2 9 8t12.5 13.5t13 14.5t10.5 11q-10 -9 -23 -23t-22 -24z" />
    <glyph glyph-name="m" unicode="m" horiz-adv-x="577" 
d="M247 335l2 4q26 -17 26.5 -33.5t-4.5 -37.5q-5 -23 -10.5 -44.5t-10.5 -44.5q-13 -58 -12 -116q14 11 25.5 24.5t23.5 27.5q41 51 81 100t80 100q28 35 55 69.5t54 69.5q9 13 15 22.5t14 18.5q18 -5 18.5 -8.5t3.5 -8.5q9 -8 10 -12.5t-1 -8.5q3 -2 2 -9.5t-3 -12.5
q-6 -17 -12.5 -33t-13.5 -33q-13 -32 -26 -63.5t-25 -63.5q-17 -42 -30 -85t-25 -87q-12 -43 -21.5 -86.5t-12.5 -88.5q0 -6 1 -9t2 -5t1.5 -5t-0.5 -9l-24 9h-2q-9 0 -12.5 5t-5.5 12q-8 35 -1.5 71.5t13.5 71.5q3 12 9 37t14 55.5t17 63.5t17 61.5t14.5 49.5t10.5 27
q-9 -9 -18 -19.5t-17 -19.5q-29 -38 -58 -74.5t-58 -74.5q-3 -3 -8 -10.5t-10.5 -15t-10 -14t-5.5 -8.5q2 2 5.5 6.5t5.5 6.5q1 -1 -2 -7.5t-4 -7.5q17 23 35 47t35 47q-10 -17 -22.5 -33.5t-23.5 -33.5q-5 -8 -10 -14t-10 -14l-8 -10t-9 -10q1 0 5.5 5t5.5 5
q-11 -13 -21.5 -24.5t-20.5 -23.5q-5 -5 -11.5 -8t-13.5 -2q-12 1 -22.5 5.5t-21.5 6.5q-14 6 -19 22t-6 30q-4 36 2 71t11 70q-37 -47 -70.5 -96t-65.5 -100q-12 -18 -24 -32q-5 -6 -8.5 -6.5t-10.5 2.5q-3 2 -6 2t-9 2q-5 2 -12 2t-11 5q-7 12 -7 23q0 22 3 43t6 41
q13 77 32 152t47 147q2 6 5.5 15t7 17.5t7 14.5t6.5 5q7 -3 10 -5t4 -3t0.5 -2.5t0.5 -2.5q2 -2 3 -4q8 -4 8 -11.5t-2 -15.5q-20 -75 -40.5 -149.5t-36.5 -150.5q-5 -23 -5 -44q32 48 66.5 94t69.5 91q13 17 24.5 33t23.5 33q9 11 14.5 15t13.5 -4zM87 89q1 1 1 1.5t1 1.5
q10 14 25.5 34.5t31.5 42t29.5 41.5t21.5 32q-29 -37 -56.5 -75t-53.5 -78zM183 139q1 19 4.5 37.5t8.5 37.5q-4 -19 -7 -37.5t-6 -37.5z" />
    <glyph glyph-name="n" unicode="n" horiz-adv-x="300" 
d="M209 288q-40 -46 -78.5 -92.5t-73.5 -96.5q-4 -5 -8.5 -10t-8.5 -10q-3 -3 -9 -3q-17 4 -31 17q-8 6 -9.5 13.5t-1.5 15.5q5 63 17.5 119.5t33.5 116.5q7 21 15 42l16 42q2 4 4.5 10t7.5 3q2 -2 5 0t8 0q4 -2 5.5 -3.5l3.5 -3.5q9 -6 9 -12.5t-4 -14.5q-10 -25 -17 -46
q-13 -39 -24.5 -78.5t-20.5 -79.5q-5 -19 -8.5 -37t-5.5 -37q25 31 49.5 61.5t49.5 60.5q18 23 37 44l38 42q14 17 25 29.5t23 24.5q4 1 6 3t5 2.5t6.5 -1.5t10.5 -8q8 -7 11 -13t4 -10.5t1 -8.5t2 -7v-5q-9 -25 -17.5 -49.5t-16.5 -49.5q-3 -9 -9 -27.5t-12.5 -42
t-13.5 -49t-13 -48t-10.5 -40t-5.5 -24.5q-4 -15 -7.5 -30t-6.5 -30q-4 -22 -7.5 -43.5t-3.5 -43.5q0 -6 3.5 -10t1.5 -9t-15 -2t-20 9q-2 2 -3 2q-8 5 -10 12.5t-3 15.5q4 73 18 145t31 143q7 26 14 51.5t13 50.5zM284 289q-1 -4 -4 -12t-4 -12q6 15 13.5 36.5t12.5 36.5
q2 -10 -5 -27q-11 -26 -24 -68t-25.5 -86t-22.5 -83.5t-15 -59.5v3q0 6 4.5 25.5t11 46t14.5 56t15.5 55.5t13 45.5t7.5 24.5q4 12 5.5 16t2.5 3z" />
    <glyph glyph-name="p" unicode="p" horiz-adv-x="358" 
d="M-4 -105q-2 -6 -2.5 -11.5t-2.5 -10.5q-5 -22 -6.5 -33t-3 -20.5t-4.5 -21t-11 -34.5q-6 2 -8 5t-13 3q-3 0 -8.5 1t-11 3.5t-9.5 5.5t-3 8q21 99 40 196t41 194q14 57 28.5 113t33.5 111q11 34 27.5 65.5t39.5 58.5q4 4 7.5 8.5t8.5 8.5q5 3 6.5 3t5.5 -3q5 -4 8.5 -7
t8.5 -7q5 -3 5 -7.5v-9.5q0 -2 -2 -4q-3 -17 -8.5 -34t-7.5 -22q-11 -31 -19.5 -59t-18.5 -56q-11 -28 -18.5 -56t-15.5 -57h1q4 6 8 10q37 52 82 97q16 15 33 28t37 22q12 5 24.5 8t26.5 1q19 -2 33 -14q5 -4 7 -10q2 -8 5.5 -15t7.5 -14q7 -11 7 -22t-2 -23q-1 -2 -2.5 -3
t-2.5 -2q-11 -14 -20.5 -27.5t-20.5 -26.5q-68 -82 -174 -109q-12 -3 -24 -4t-24 -1q-5 0 -9.5 -1t-9.5 -1l-3 -3q-9 -14 -14 -29t-9 -31q-2 -10 -9.5 -38.5t-15.5 -60t-14.5 -58.5t-6.5 -34l-4 -20l1.5 9t3 22t1.5 19zM217 184q2 2 3.5 2.5t3.5 2.5q21 14 39.5 31t34.5 38
q8 11 16.5 22.5t16.5 23.5l4 10l4 10q-1 0 -2 1q-1 -2 -1.5 -5t-2.5 -5q-8 -17 -19.5 -32.5t-23.5 -30.5q-13 -16 -27 -29t-30 -24q-5 -4 -8.5 -7.5l-7.5 -7.5q-5 -2 -10.5 -5t-10.5 -6l1 -1l10 6zM115 199q0 -1 -0.5 -1.5t-0.5 -1.5q57 23 101 62t80 87l6 9q-11 0 -21 -3.5
t-19 -8.5q4 3 12 7q7 2 13.5 4t13.5 4q5 2 5 7q-3 0 -4 -1q-8 -2 -15 -3.5t-14 -3.5q-22 -9 -40 -22t-35 -29q-24 -23 -45 -48.5t-41 -52.5l-4 -6t-4 -7q5 1 7.5 3.5zM305 367q-4 7 -10 5q-8 -2 -16.5 -3t-16.5 -4q-12 -4 -22.5 -10.5t-20.5 -14.5q-14 -11 -26.5 -22.5
t-24.5 -24.5q-21 -23 -39.5 -46.5t-35.5 -49.5q-3 -5 -6 -12q9 1 14 9q3 7 8 13q5 8 11 15.5t12 15.5q9 11 18.5 22.5t20.5 22.5t23 21.5t24 21.5q17 14 35 24t40 15q2 1 5 1t7 1zM348 325q0 1 -1 1q-3 -8 -5.5 -15t-6.5 -13q-7 -11 -14 -21.5t-15 -20.5q-14 -17 -29 -32
t-32 -28l-21 -15h3q5 3 9 6l8 6q33 23 61 57q11 14 21 27.5t17 30.5q3 8 5 17zM96 336h-1q-13 -40 -25.5 -79.5t-20.5 -81.5q2 3 3.5 6t2.5 7q2 6 3.5 12t3.5 12q7 26 13.5 50.5t13.5 49.5q2 6 3.5 12t3.5 12zM-36 -222q6 21 11.5 45.5t8.5 47.5q-3 -9 -6.5 -22t-6.5 -26
t-5 -25t-2 -20zM335 304q-26 -43 -64 -81q20 18 36 38t28 43zM275 244l-1 1q-11 -9 -21 -18.5t-21 -18.5q0 -1 0.5 -1t0.5 -1q11 10 21 19.5t21 18.5zM313 254q10 11 18.5 23t13.5 26l-16 -24t-16 -25zM84 126v-2q16 4 30 6v2zM51 100l1 -1l6 12v3q-1 0 -1 -0.5t-1 -0.5h-1
q-2 -5 -4 -13zM128 255l-1 1q-2 -3 -4.5 -5.5t-4.5 -5.5l1 -1q2 3 4.5 5.5t4.5 5.5zM182 281q7 6 13 13q-6 -7 -13 -13z" />
    <glyph glyph-name="q" unicode="q" horiz-adv-x="331" 
d="M62 193q23 17 43.5 37t37.5 38q8 8 15 16.5t16 16.5q6 5 11.5 10.5l10.5 10.5q-8 -11 -16.5 -21t-17.5 -21q4 2 20.5 22.5t35.5 45t34.5 46t17.5 26.5l-18 -24l-1 1q1 1 1.5 2t1.5 2l45 75q3 5 9.5 1t12.5 -9q8 -6 11.5 -9t9.5 -12q7 -5 6 -10.5t5 -7.5q1 -1 1 -5
q-1 -5 -2.5 -10t-3.5 -10q-26 -63 -47 -125.5t-41 -127.5q-21 -73 -38.5 -146.5t-32.5 -148.5q4 25 9.5 50.5t7.5 48.5q-5 -15 -9.5 -35t-8 -40t-7 -38.5t-4.5 -30.5q-1 -3 -1 -6.5t-1 -7.5q-2 -6 -0.5 -11.5t3.5 -10.5q0 -5 -1 -10q-12 3 -19 6t-18 7q-6 0 -10 13
q-1 11 -2 21t-1 21q14 102 27.5 194.5t37.5 177.5q2 8 6.5 25t9.5 29q-20 -33 -43.5 -53.5t-45.5 -44.5q0 -1 1 -1q-8 -8 -12 -11.5t-6.5 -5t-5.5 -1.5h-9q0 -6 -9 -5t-20.5 5.5t-22 10.5t-13.5 9q-19 12 -22 33q-5 26 1 56q12 67 54 118q4 4 10 9.5t12 10t11 7t6 0.5
q10 4 15.5 6.5t14.5 -1.5q17 -6 28.5 -20t10.5 -31q-5 -17 -8 -19.5t-4 -4.5q3 9 5.5 18t2.5 16q-5 -11 -6 -21t-12 -19q3 6 5.5 10.5t3.5 9.5l-3 -6t-5 -8t-6 -7t-6 -2q3 10 7.5 19t6.5 20q-5 -11 -7 -17t-5 -12q-3 -5 -5.5 -9t-8.5 -2q-3 10 -0.5 19t1.5 20
q-13 -20 -26 -39.5t-20 -42.5q1 2 1.5 3.5t1.5 3.5h1q-4 -12 -7.5 -24t-8.5 -23q1 -1 2 -1q2 4 3 8t3 9l2 -1l-8 -28t-1 -27zM92 167q1 -1 1 -2q38 29 67.5 61t50.5 59q6 8 9.5 16t6.5 17q1 1 1 3q-3 -1 -4 -4q-11 -14 -21.5 -29t-21.5 -29q-4 -6 -8.5 -11.5t-9.5 -10.5
q-17 -20 -34 -37t-37 -33zM127 216q4 3 7.5 6t6.5 6q8 8 15 17t15 17q5 5 9.5 10t8.5 10q10 11 19 23t18 23q2 4 5.5 7.5t5.5 8.5q4 7 6.5 13.5t5.5 13.5v1q0 1 1 2q-32 -40 -62.5 -79.5t-60.5 -78.5zM146 -199q2 34 8 67t11 66q-10 -32 -14 -65.5t-5 -67.5zM213 280
q-13 -15 -26.5 -31.5t-18.5 -24t2 0t36 39.5q2 3 3.5 7t3.5 9zM93 344q1 1 1.5 2t2.5 3q7 8 16 16.5t10 17.5q-8 -5 -14.5 -13t-12.5 -16q1 1 1.5 2t2.5 2q1 -3 -4 -8.5t-3 -5.5zM107 385q-3 -1 -9 -5.5t-12 -11t-10.5 -12.5t-5.5 -10q8 11 18 20t19 19zM218 341q1 0 2 -1
q16 24 36 48q-1 0 -1 0.5t-1 0.5zM167 -205q0 14 2.5 26t2.5 25q-1 -1 -1 -5t-2 -9q-1 -14 -2 -20t0 -17zM345 405q1 5 2.5 9.5t3.5 9.5q-4 -3 -6 -9t0 -10zM71 270h-1q-3 -8 -5.5 -15.5t-4.5 -15.5l1 -1q2 8 5 16t5 16zM347 384q0 -5 -1 -10.5t-3 -10.5q-7 -19 -18 -53
t-24.5 -75.5t-27 -86t-25 -84t-20.5 -69.5t-12 -42q0 4 3.5 19.5t9 37.5t11.5 46.5t11.5 46.5l9.5 38t6 21q7 20 17 49.5t21 60.5t22 61t20 51z" />
    <glyph glyph-name="r" unicode="r" horiz-adv-x="284" 
d="M-10 -31q5 -8 9 -10.5t4 -4.5q-1 -5 -4.5 -4t-7.5 3q2 -1 4.5 -2.5t4.5 -2.5q-4 0 -9.5 0.5t-8.5 2.5q-19 10 -26.5 22.5t-7.5 31.5q5 40 12 79t18 77q8 29 16 57l16 56q2 8 4.5 14.5t4.5 14.5q0 2 -0.5 4t-0.5 4q1 4 2 7.5t2 7.5q9 28 20 55t26 53q7 12 10 17t11 16
q2 3 9 11t10 10t7 -1t5 -6q2 -9 11 -14.5t9 -14.5q-2 -8 5 -10q5 -2 1 -6q-6 -5 -9.5 -11.5t-6.5 -13.5q-11 -24 -22.5 -48.5t-22.5 -49.5q-1 -1 -2 0q8 18 15.5 36.5t15.5 36.5q0 1 -1 1l-24 -54l-1 1q10 26 23 55h-1l-9 -18q-4 -7 -7 -14l-6 -14q-9 -17 -17 -34
q-5 -13 -9.5 -26t-9.5 -26q-6 -22 -13 -44t-12 -44q5 7 10 12.5t10 13.5q7 10 9 18q10 28 19 55.5t19 55.5q8 22 17.5 43t21.5 41q0 1 2 3q-19 -49 -38.5 -97t-33.5 -99l7 7t6 7q20 22 40.5 43t43.5 41q14 12 29 23.5t30 22.5q8 5 15.5 9t15.5 7q22 10 39 -10q5 -6 9.5 -17
t3.5 -16q-3 2 -4.5 6t-7.5 0q-2 2 -6 3t-6 -1q-10 -6 -20 -11.5t-19 -13.5q-53 -41 -97 -91q-4 -4 -7 -8l-6 -8q14 14 28.5 29t29.5 30q0 -1 1 -1l-2 -2q-44 -42 -79 -90t-64 -101q-22 -40 -32 -83q-2 -2 -3 -9.5t-4 -15.5q-14 5 -14 4zM279 345q-1 5 -7 3q-5 -2 -10.5 -4.5
t-10.5 -5.5q-18 -11 -34 -24.5t-32 -27.5q-2 -2 -3.5 -4t-3.5 -4q5 3 8.5 6.5t8.5 7.5q1 1 2 1t2 1v-2l-52 -52q0 -1 1 -2q1 2 3 4q11 10 21.5 20.5t21.5 20.5q15 14 30.5 26t32.5 23q5 4 11 7t11 6zM138 429q-4 -1 -8 -8t-3 -11q3 5 5.5 9.5t5.5 9.5z" />
    <glyph glyph-name="o" unicode="o" horiz-adv-x="327" 
d="M211 76q5 7 9.5 13.5t9.5 12.5q-14 -23 -30 -44.5t-36 -40.5q-19 -20 -46 -28.5t-54 -0.5q-14 1 -26.5 7t-25.5 10q-12 10 -20 23.5t-9 30.5q-5 40 -1 79.5t15 78.5q5 17 12.5 33t15.5 31q2 2 4 4.5t7 0.5q12 -7 20 -12.5t17 -14.5q3 -5 5 2q3 9 5.5 18t6.5 18
q8 25 19.5 52t28 49.5t39 38.5t52.5 21q27 -1 44 -14t29 -33q14 -21 16.5 -42.5t-1.5 -44.5q9 -12 1 -38t-21.5 -53.5t-26.5 -51.5t-16 -32q0 -3 -1 -4q-11 -17 -21.5 -34t-21.5 -35h1zM63 196q-2 -6 -2 -7q-2 -8 -3 -17l-2 -18q-2 -18 -3.5 -35.5t-3.5 -35.5q-3 -27 7 -50
q2 -5 6 -2q7 5 13.5 10t13.5 11q17 15 30.5 32t26.5 36q52 75 88 158q10 23 17.5 46.5t10.5 48.5q1 8 1 15v15t-8 5q-23 -8 -38 -22q-13 -11 -23.5 -25t-18.5 -29q-45 -78 -63 -165q-2 -12 -3 -24.5t7 -24.5q-6 4 -8 4q-5 -1 -8.5 1.5t-7.5 5.5q-2 2 -5 4.5t-5 3.5
q-11 3 -15 15q-2 7 -2.5 13t-1.5 12q-1 5 -0.5 9.5t0.5 9.5z" />
    <glyph glyph-name="s" unicode="s" horiz-adv-x="284" 
d="M164 -56v2q-11 -14 -22.5 -26.5t-22.5 -25.5q-1 0 -2 1q5 5 9.5 10.5t9.5 11.5q-17 -18 -33.5 -36.5t-36.5 -33.5l2 2l-1 1l-12 -9q-8 -6 -15.5 -10.5t-17.5 -6.5q-12 -3 -23 3q-2 1 -3.5 1t-3.5 1q-15 3 -29 12q-5 3 -10 5q-19 8 -19 27q-2 19 7 33q25 49 65 79
q5 4 11 6.5t12 5.5q11 5 22 -2q4 -2 12 -4q3 0 3 2q19 27 36 55t28 59q3 8 5 16.5t1 17.5q0 5 -5 8q-15 8 -30.5 16t-29.5 17q-23 13 -42 33q-25 26 -17 61q3 17 10.5 31.5t18.5 27.5q23 27 50 47.5t58 37.5q10 5 19.5 9t20.5 8q13 5 26.5 7t27.5 0q8 -1 15 -4t14 -8
q13 -9 20 -23q8 -19 -2 -41q-3 -9 -7 -17.5t-8 -17.5q-5 -14 -14 -26.5t-17 -25.5q-10 -16 -20 -31l-20 -30q-5 -7 -9 -13t-9 -12q-2 -2 -3 -2q-3 1 -7.5 0.5t-6.5 4.5l-1 1h-1q-1 3 -1 5.5t-1 4.5l2 4l20 30t21 30q2 2 3 5t3 5q1 2 2.5 3.5t-1.5 3.5l2 2q1 2 2 4.5t2 4.5
q-15 -23 -30 -45t-29 -43q-11 -2 -18 -3q-3 7 -0.5 11.5t5.5 9.5q16 23 31.5 45.5t31.5 45.5q11 16 21 32.5t19 33.5q3 5 5.5 10.5t2.5 13.5q-11 -2 -21 -6t-20 -9l15 6v-1q-2 -1 -3.5 -2t-3.5 -2l-36 -21q-46 -28 -83 -66q0 -1 -2 -3q20 20 41.5 36t46.5 29q-1 0 -3 -2
q-22 -16 -42 -32t-39 -36q-10 -10 -18 -20t-14 -22q-5 -10 -8 -20.5t-1 -21.5q2 -12 10 -16l19 -9.5t18 -9.5q7 -2 13 -5t12 -5q30 -14 51 -35q14 -15 24.5 -32t12.5 -39q1 -17 -7 -37q-9 -22 -22.5 -41.5t-28.5 -38.5q-2 -2 -3 -3.5t-3 -3.5h-1zM-24 -76q3 2 5.5 3.5
t4.5 3.5q1 2 1.5 2.5t1.5 2.5q1 1 1 4l30 33q8 7 19 14q-21 -11 -35.5 -27.5t-27.5 -35.5zM2 -91q1 0 2 -1q6 9 12.5 17.5t13.5 17.5q-1 0 -1 1q-7 -9 -13.5 -17.5t-13.5 -17.5zM16 -23q0 -1 1 -2q4 4 8 7l8 6l-1 1l-8 -6zM96 354l1 -1q-4 -3 -10 -11l-1 1l5 5t5 6z" />
    <glyph glyph-name="t" unicode="t" horiz-adv-x="130" 
d="M374 505q-2 2 -3.5 4.5t-3.5 4.5q-4 4 -4 10q-3 18 -21 24q-12 4 -24.5 5t-26.5 2q-28 1 -55.5 -1t-55.5 -5q-3 -1 -5 -5q-5 -19 -11 -37.5t-12 -36.5q-14 -50 -28.5 -98.5t-28.5 -97.5q-2 -7 -6.5 -27t-11 -46.5t-14 -56.5t-14 -56.5t-11.5 -46.5t-7 -27q-1 1 0.5 7.5
t0.5 6.5l-42 -174q8 44 17 78.5t14 66.5q-1 -2 -3 -11.5t-4 -12.5q-2 -5 -5 -13.5t-5 -17.5q-4 -11 -6 -22q0 3 2 9q5 25 11 49t12 49q2 9 7.5 31t12 50t14 59.5t14 59.5t12 50t7.5 32q2 9 4 17.5t4 16.5q0 2 3.5 14.5t7.5 27.5t7 28t3 15q-1 -2 -1.5 -4t-1.5 -4
q-1 0 0.5 6.5t4 15.5t5.5 18.5t5 17.5h-1l-2 -6t-2 -7l-12 -42q-2 -3 -2 -6.5t-2 -6.5t-3.5 -5.5t-2.5 -5.5q-5 -17 -9 -33.5t-9 -33.5q-6 -23 -12 -45.5t-12 -45.5q-4 -14 -7 -26.5t-6 -26.5q-9 -35 -17.5 -71t-16.5 -71q-1 -3 -3.5 -15t-6 -26t-6 -26t-3.5 -15
q2 13 6.5 35.5t9.5 45.5t9 42.5t6 27.5q-3 -8 -4.5 -15t-3.5 -15q-5 -23 -10 -45.5t-10 -45.5q-8 -40 -13 -67t-8 -59q1 -14 4 -25.5t5 -13.5q0 -1 -3 -1.5t-4 -1.5q-2 1 -4 2.5t-5 3.5q2 -3 8 -9q-1 -3 -4.5 -4t-5.5 1q-13 10 -14 24q-3 24 2 52q2 14 5 32t7 38.5t8 41.5
t7 40q2 2 0 4q-4 -17 -7.5 -34t-7.5 -34q24 135 55.5 268.5t65.5 267.5q-22 -5 -43 -9.5t-42 -9.5q-2 4 5 6.5t15 4.5q17 5 26 6.5t24 5.5q6 2 12.5 3t6.5 6l-44 -11t-45 -11q-11 -3 -21 -6t-21 -2q-6 -1 -12 1.5t-8 4.5q-3 0 -4 5t-3 10t1 10q-3 0 -3 9.5t1 14.5
q2 -1 2.5 -0.5t1.5 -0.5q7 -6 20 -2q20 4 38.5 8t37.5 9q16 3 31.5 6t31.5 5q6 1 9 8q5 12 11 24t11 24q6 14 11.5 28.5t12.5 28.5q5 9 9.5 18.5t9.5 18.5q4 8 11 2q4 -2 9.5 -8t5.5 -9q-1 -5 2.5 -12t5.5 -12q5 -9 0 -21q-5 -20 -14.5 -42.5t-11.5 -35.5q5 10 8 20t7 21
q5 14 10 26q2 4 4 5q0 -2 -1 -3q-4 -17 -8 -33l-8 -32q-2 -5 4 -5q14 1 27 2t26 1q20 1 39 0t38 -6q12 -3 24 -10q21 -10 26 -36q2 -9 3 -18.5t-1 -19.5q0 -4 -4 -4zM50 205q-2 -5 -5.5 -17t-7 -25.5t-6.5 -25.5l-4 -16q1 4 4.5 16t7.5 25.5t7 25.5t4 17z" />
    <glyph glyph-name="u" unicode="u" horiz-adv-x="269" 
d="M36 96q6 4 8 6q18 18 32.5 38.5t28.5 41.5q27 40 51.5 80.5t46.5 83.5q7 12 12.5 24.5t10.5 25.5q2 4 3 5q3 5 7 0q2 -2 5.5 -3t7.5 -3h4q3 -7 7 -14q0 -1 1 -1q5 0 5.5 -3t1.5 -6q2 -5 3 -9.5t3 -9.5q2 -3 0 -5q-3 -27 -14 -56q0 -1 -1 -1q0 2 0.5 4.5t0.5 4.5
q-5 -7 -6.5 -11t-3.5 -8l-30 -111q-1 -4 -7 -10q0 -1 -0.5 -1.5t-0.5 -2.5q-4 -18 -7.5 -36.5t-6.5 -36.5q-5 -35 -9.5 -68.5t-6.5 -68.5q0 -5 0.5 -10.5t0.5 -11.5q1 -2 2 -3.5t6 0.5q-2 -6 -2 -7q1 -1 3 -1q-3 -9 -13 -5q-3 1 -6 2.5t-5 3.5t-3.5 3t-4.5 1q-8 0 -11 7
q-1 5 -2 9t-2 9q-2 17 -2 35t2 35q3 26 6.5 52.5t7.5 52.5v2q-2 5 -1 9.5t2 9.5q2 14 4 27t4 27q0 2 -1 3q-1 -1 -3 -5q-14 -23 -28.5 -46t-29.5 -46q-8 -14 -19 -24t-25 -19q-7 -5 -13 -4t-12 3q-8 3 -15 7t-15 9q-18 12 -21 34q-2 17 -1.5 33t2.5 32q7 56 22.5 108.5
t37.5 103.5q5 11 10.5 21.5t11.5 21.5q2 6 8 4q2 0 4.5 -0.5t1.5 -4.5q0 -1 1 -1l1 -1q3 1 4.5 -1.5t3.5 -4.5q2 -3 4.5 -4.5t3.5 -5.5q2 -5 3 -9.5t-1 -9.5q-5 -14 -11 -28.5t-9 -29.5q-5 -22 -12 -42.5t-12 -42.5t-10 -43.5t-9 -43.5q-2 -13 -2.5 -26.5t-1.5 -27.5v-6z
M129 143l1 -1q0 1 1 1q9 15 18 29.5t18 28.5q2 2 2 5q0 1 -1 1q-10 -17 -19.5 -32.5t-19.5 -31.5z" />
    <glyph glyph-name="w" unicode="w" horiz-adv-x="372" 
d="M195 -9q2 1 3.5 1t2.5 1q6 5 12.5 10.5t11.5 11.5q16 18 29 38t24 41q6 12 12.5 24t12.5 24q3 7 6 13.5t6 14.5q6 13 12 25t11 26q6 13 11 26t10 27q0 2 2 2l-4 -12l-4 -12q-14 -40 -29.5 -78t-34.5 -75q-10 -20 -20 -39t-23 -36q-8 -11 -16 -20.5t-19 -17.5q-3 -3 -7 -5
t-9 -5h7q-7 -3 -12.5 -1.5t-11.5 4.5q-3 2 -5.5 3t-5.5 2q-1 0 -1 -1l2 2q-2 0 -2.5 0.5t-2.5 0.5q-10 0 -17 7l-1 2q-2 4 -4.5 5t-6.5 2q-16 4 -21 21q-2 7 -3 14l-2 14q-2 22 -0.5 43t4.5 42q1 8 2.5 17t2.5 17q0 2 0.5 3t0.5 3h-1q-5 -8 -9 -14.5t-9 -13.5q-3 -5 -5.5 -9
t-6.5 -9q-9 -15 -18.5 -30t-20.5 -29q-3 -5 -6 -9l-6 -8q-2 -2 -2.5 -4.5t1.5 -6.5q4 4 7.5 6.5t6.5 5.5q8 10 14.5 19.5t13.5 19.5q5 7 10.5 13.5t11.5 14.5l-3 -6q-11 -17 -21.5 -33t-21.5 -33q-3 -5 -7 -8.5t-9 -7.5l-3 -3q-6 1 -12 9q-2 2 -5 2.5t-5 1.5t-3 0.5t-3 -0.5
q-8 -1 -10 5q-1 5 -3.5 6.5t-6.5 3.5q-9 5 -14 9.5t-4 15.5q2 28 6 55q8 42 19 82.5t25 80.5l33 93q2 4 3.5 8t3.5 8q4 6 7.5 12t7.5 13q4 2 7 1q1 0 3 -4v-7q5 2 7 1t4 -6q1 -6 5 -11q4 -4 3.5 -8t-2.5 -8q-5 -15 -9.5 -30t-9.5 -30l-16 -56t-15 -57q-5 -20 -9 -39.5
t-9 -39.5v-1q1 0 1 -1q5 17 9 33.5t9 33.5t9.5 33.5t9.5 33.5t10.5 33t11.5 33q-11 -45 -22.5 -89t-22.5 -89q1 0 1 -0.5t1 -0.5q2 2 3 4t3 4q6 8 11.5 15.5t12.5 15.5q23 26 40.5 55t36.5 58q2 2 2 5q2 5 6 6.5t8 -0.5q2 -2 2 -3q1 -2 1 -3.5t1 -3.5q9 0 10 -7q1 -2 5 -6
l4 -12l4 -12q0 -3 -1 -4l-2 -4l-2 -4q-4 -15 -7.5 -30.5t-6.5 -30.5q-3 -17 -5.5 -33.5t-5.5 -33.5q-1 -5 -1 -15q6 35 14 69.5t18 68.5h2q-10 -50 -17.5 -99.5t-11.5 -100.5l1 -1q2 1 2.5 2t2.5 3q19 25 35.5 51t31.5 54q25 48 45.5 97t38.5 100q9 28 18.5 55.5t18.5 55.5
q2 10 2 14q-1 4 3 6q6 2 7 -3q1 -6 9 -8q1 -1 3 -5q3 -5 6 -12q2 -3 2.5 -6.5t2.5 -7.5q0 -4 -2 -4q-2 -2 -2.5 -4t-1.5 -5q-4 -10 -4 -18q-2 -19 -8.5 -36.5t-10.5 -36.5q-7 -29 -17.5 -57.5t-20.5 -57.5q-8 -27 -19 -52.5t-24 -50.5q-12 -26 -26 -50.5t-31 -47.5
q-8 -11 -17 -21t-20 -18q-1 -1 -2 -1.5t-2 -1.5q0 -1 0.5 -1t0.5 -1z" />
    <glyph glyph-name="v" unicode="v" horiz-adv-x="300" 
d="M271 419q-36 -68 -75.5 -133t-77.5 -131l1 1q5 7 9 14t9 14q17 26 33 53t33 54q16 26 31.5 53t31.5 54l8 12l8 12q12 22 24.5 43.5t24.5 43.5q8 14 17 29t17 29l6 15q4 9 13 6q2 -1 3 -1t2 -1q2 0 2 -1q2 -4 4 -7.5t3 -7.5t0.5 -8.5t-1.5 -8.5q-1 -2 -2.5 -4.5t-3.5 -4.5
q-3 -3 -4 -5l-39 -69q-5 -8 -9.5 -17t-9.5 -18q-10 -17 -19 -34.5t-19 -35.5v-3q21 36 41.5 71.5t40.5 70.5q0 -1 1 -1q-3 -5 -5.5 -9t-4.5 -9q-16 -28 -31.5 -56t-31.5 -56q-19 -33 -37 -66t-37 -66q-15 -26 -30.5 -50.5t-30.5 -50.5l-24 -45q-9 -17 -19 -35q0 -1 -0.5 -1
t0.5 -2q2 4 4.5 7t4.5 6q-1 -5 -5 -13q-5 -12 -10 -26q-5 -9 -9.5 -17t-11.5 -15v3q-1 0 -1 -0.5t-1 -0.5q-11 -15 -24 -21l-2 -1q-7 2 -13.5 2t-12.5 5q-5 4 -10.5 5t-10.5 1q-6 1 -11.5 2t-9.5 7q0 1 -3 1q-12 5 -14 17l-2 24t0 23q1 35 6 68.5t13 66.5q5 22 10 43t11 42
q7 22 13.5 43t13.5 43q0 1 1 1q4 7 -4 15q-2 -8 -2 -9q-5 5 0 13q6 10 12.5 20t13.5 20q3 5 5.5 9.5t4.5 9.5q3 3 4 3q5 0 15 -2q5 0 7.5 -3.5t4.5 -6.5q14 -24 8 -50q-3 -15 -6 -30.5t-5 -31.5v-2q1 2 1 2.5t1 2.5l1 -1q0 -5 -1 -8q-4 -17 -7.5 -35t-8.5 -35l-9 -45
q-5 -25 -9 -49t-9 -49q-1 -3 -1 -5.5t-1 -5.5h1q51 80 102 159.5t103 159.5h1z" />
    <glyph glyph-name="x" unicode="x" horiz-adv-x="293" 
d="M80 257q-5 -6 -9.5 -12t-9.5 -12q-26 -33 -51 -65.5t-50 -66.5q-14 -18 -25.5 -37t-25.5 -37q-17 -25 -27 -49q-1 0 -1 -1q-1 0 -2 1q4 8 7 15t7 15q18 33 38.5 64.5t43.5 62.5q26 35 52 69.5t52 69.5q3 3 3 10q-1 29 -0.5 57t4.5 57q2 18 5.5 36t7.5 36q1 10 11 16
q4 2 5 -3q1 -4 5 -2q2 1 4 1.5t4 -1.5t4.5 -2t4.5 -2q4 -3 7.5 -6t6.5 -8q5 -8 6.5 -16.5t0.5 -17.5q0 -14 0.5 -27t0.5 -26q0 -1 1 -3l3 3q27 31 58.5 57t65.5 49l7 3.5t6 3.5q6 2 11 -3q2 -2 6 -2q4 -2 8 -2t8 -1q9 -1 14 -13q4 -10 5 -15q0 -2 -0.5 -3.5t-0.5 -3.5
q-8 2 -9 -2t-3 -8q-11 8 -23 -4q-5 -5 -10 -9.5t-10 -9.5q-18 -14 -34.5 -31t-32.5 -34q-17 -18 -33.5 -36.5t-33.5 -37.5q-8 -8 -6 -18v-83q1 -32 2.5 -63t5.5 -63q2 -14 5 -27t6 -27t12 -20q1 -1 3 -5h-3q-6 1 -11.5 1.5t-10.5 1.5q-16 2 -27 10l-3 3q-3 2 -6.5 4t-5.5 5
q-8 8 -12 18t-6 21q-8 31 -11.5 62.5t-6.5 63.5v10t-1 10l-2 2q-1 -2 -1 -2.5t-1 -2.5q-34 -43 -66.5 -86.5t-61.5 -89.5q-6 -10 -12 -19.5t-11 -20.5q-5 -9 -8.5 -18.5t1.5 -22.5q-5 3 -8 5l-6 4l-2 -2q-5 5 -10 9.5t-10 9.5q-1 1 -5 1q-2 13 2 22q12 27 27.5 52t32.5 50
q3 4 5.5 8t5.5 9q3 4 6.5 7.5t5.5 8.5q2 3 4.5 6t4.5 7q5 6 9.5 13t9.5 13q18 25 36.5 49t37.5 49q2 3 5 6l5 5q1 2 1 3t1 3q-2 0 -2 1zM159 350q1 -1 2 -1l2 2q15 15 29.5 30.5t29.5 29.5q20 19 40.5 36.5t43.5 31.5q1 1 1 1.5t1 1.5q-3 3 -3 1q-6 -2 -10 -4
q-15 -9 -28.5 -20.5t-26.5 -23.5v-1q1 0 1 0.5t1 0.5q-21 -21 -42 -41.5t-41 -43.5zM105 91h-1q1 -5 1 -10.5t1 -11.5q3 -16 6.5 -31.5t6.5 -32.5q1 -5 4.5 -9t6.5 -6q-12 24 -16 49.5t-9 51.5zM298 427l2 -2q5 5 11 9t12 9l-2 2q-5 -5 -11 -9t-12 -9z" />
    <glyph glyph-name="y" unicode="y" horiz-adv-x="271" 
d="M105 32q-4 -11 -5 -19q-2 0 -2 1q11 45 24.5 90.5t21.5 88.5q-14 -16 -28 -33t-28 -25q-6 -4 -16.5 -4t-13.5 2q-11 6 -23 14q-9 7 -13 22.5t-5 33.5t0 36t2 30q6 49 18.5 95t30.5 92q2 5 4.5 9t5.5 9q6 9 14 2q6 -1 10 -6t6.5 -12t4 -13t1.5 -9q0 -5 -5 -4q-4 1 -8 -5
q-9 -39 -19.5 -77.5t-16.5 -78.5q-5 -25 -6.5 -49.5t1.5 -49.5q1 -8 7 -2q7 6 14 12.5t13 14.5q23 26 44.5 53t41.5 56q4 9 11.5 23t14.5 28.5t13 27t9 18.5q8 19 18.5 35.5t22.5 33.5q11 14 24 7t20 -22.5t4 -25.5q5 -3 -1 -11q-4 -6 -8.5 -12t-7.5 -12q-9 -18 -17.5 -36
t-16.5 -37q-24 -57 -44 -117q-14 -39 -26 -78l-24 -78q-6 -19 -11.5 -37.5t-10.5 -37.5q-8 -25 -14.5 -49.5t-13.5 -48.5l-9 -36h-1q8 34 16.5 68t16.5 69q-2 -5 -3 -10t-3 -10q-9 -35 -17.5 -70t-15.5 -71q-2 -6 -2.5 -12.5t-1.5 -13.5v-9.5t3 -8.5q1 -2 1 -7
q-3 -2 -9 -0.5t-12.5 4.5t-12 6.5t-8.5 5.5q-6 4 -6 15q1 10 1 19.5t2 19.5q5 36 13.5 71.5t17.5 70.5q3 13 6.5 25t6.5 25q0 1 0.5 1.5t0.5 2.5h-1zM148 -12h1l2 8t2 9h-1q-1 -5 -2 -8.5t-2 -8.5z" />
    <glyph glyph-name="z" unicode="z" horiz-adv-x="309" 
d="M334 409l2 1q-2 -6 -4 -11q-5 -8 -9.5 -16.5t-9.5 -17.5q-4 -5 -7.5 -10.5t-5.5 -11.5q-2 -8 -7 -14.5t-10 -13.5v-2l1 -1q5 6 9 11.5t9 11.5q0 -1 1 -1q-9 -13 -17.5 -26t-17.5 -25q-6 -8 -12.5 -16t-12.5 -16q-16 -23 -33.5 -43t-35.5 -40q-14 -16 -27.5 -30.5
t-27.5 -28.5q-3 -3 -5 -6q7 0 10 -1q46 -3 84 -20q26 -13 43 -39q2 -2 3 -4l-6 2q-9 5 -17 4q-8 0 -12 4q-2 2 -4 2.5t-4 2.5q-2 0 -4 2q-6 10 -19 12q-12 2 -23.5 3.5t-23.5 2.5q-12 2 -24 1.5t-24 0.5q-9 0 -18 -7t-17.5 -14t-18.5 -13q-10 -7 -19.5 -12.5t-20.5 -10.5
q-5 -3 -10 -3t-6 3q-3 2 -5.5 3.5t-7.5 1.5t-10.5 1t-10.5 2h-1q-6 6 -16 8q-5 2 -6.5 8t3.5 11q19 20 42 32q13 4 22 15q8 8 15 16t15 16q23 26 44.5 52.5t44.5 52.5q26 30 51 61t51 61q17 20 32 40.5t30 42.5q4 5 6.5 11t5.5 12h-6q-14 -2 -27.5 -7t-26.5 -11
q-12 -5 -23.5 -11t-23.5 -12q-2 -2 -4 -1t2 1q11 5 20.5 10.5t20.5 10.5q4 2 7.5 3.5t7.5 3.5v1q-36 -15 -70.5 -33.5t-65.5 -42.5q3 0 9 4q11 7 22.5 14t22.5 15q6 3 11.5 6t11.5 6q-4 -2 -8 -5t-8 -5l-28 -18t-28 -19q-2 -2 -3 -4q2 1 3 1t3 1q-3 -3 -4 -5q-3 -4 -2.5 -5
t5.5 -5q-7 -2 -12 -5.5t-13 -0.5q-2 1 -5 1t-5 2q-4 2 -7 4.5t-6 4.5t-9 4q-4 0 -3 4q3 5 4 6q5 4 9 8t9 7q2 2 4.5 3t4.5 3q3 2 5 4q40 28 73 44.5t57 26.5q28 11 50 16q3 1 5.5 1.5t5.5 0.5q8 -1 16 -1.5t16 -2.5q11 -3 16 -14q2 -2 4 -6q2 -3 4 -5.5t4 -6.5q4 -13 5 -22
q2 -6 0 -11.5t-5 -10.5q1 6 2.5 11.5t-0.5 11.5q-1 -1 -1 -2q-7 -18 -17 -34t-21 -32q-11 -17 -23.5 -33t-24.5 -33l-12 -16l-12 -16q-2 0 0 -2q3 4 7 7q9 12 18.5 23t19.5 23l16 22t18 21q10 11 17 22t14 23zM80 391l4.5 4.5l4.5 4.5q-1 0 -4 -2q-2 -2 -5 -4t-7 -4
q-3 -2 -7 -5t-7 -6q6 3 11 5t10 7zM26 43q11 8 20.5 14t19.5 15q-11 -4 -23.5 -11t-19.5 -11q-9 -7 -15.5 -12t-15.5 -14q0 -1 4.5 1.5t11 6.5t12 7t6.5 4zM139 168q2 3 8 9q-1 1 -1 2q-17 -18 -33 -36t-32 -35v-2q7 2 8 3q4 4 8 8.5t8 9.5q8 10 17 20t17 21z" />
    <glyph glyph-name="D" unicode="D" horiz-adv-x="430" 
d="M-104 -204q-2 5 4 5q21 0 44 13.5t40 27.5q17 15 34 31t34 33q35 34 68 74q24 31 41.5 55.5t35 50.5t37 56.5t46.5 72.5q40 63 72 125t59 125q10 23 18 46.5t16 47.5l12 54q1 6 -0.5 7t-7.5 1q-12 -1 -22 -5.5t-19 -9.5q-23 -13 -42.5 -30t-37.5 -36q-19 -19 -37 -39
t-34 -42l-60 -84q-33 -47 -60.5 -95.5t-50.5 -99.5q-5 -13 -13 -34.5t-17.5 -47.5t-18.5 -54t-16 -52t-10.5 -42t-1.5 -25q-1 -2 -1 -6t-1 -7q-4 -2 -6 -0.5t-3 -3.5t-4.5 -8t-8.5 -1q-7 2 -11.5 3.5t-12.5 4.5q-6 4 -7 13t-2 15q3 32 12 78t19 90.5t19 81.5t14 51
q5 20 10.5 39.5t10.5 39.5v3h-2q3 11 5.5 21.5t4.5 21.5q11 45 26.5 88.5t33.5 87.5q12 31 24.5 61.5t28.5 59.5q-4 -12 -8.5 -25t-9.5 -25q17 22 26 47.5t23 48.5l12 21q8 -5 16 -5.5t7 -8.5q7 0 10.5 -4.5t5 -10t2 -10t2.5 -5.5q5 -3 6.5 -8.5t0.5 -12t-2.5 -12.5
l-2.5 -10l-16 -52t-18 -52t-20.5 -51.5t-18.5 -51.5q12 15 23 31t23 31q26 35 54 66t61 59q14 12 29 22.5t32 18.5q10 5 19.5 8t20.5 3q15 0 28 -13q14 -14 18 -33t4 -39q2 -30 -4.5 -59t-17.5 -58q-21 -58 -44 -109t-49 -101q-26 -48 -52.5 -95.5t-55.5 -92.5t-61 -86.5
t-69 -76.5q-30 -31 -60.5 -56t-62.5 -44q-18 -14 -40.5 -20.5t-44.5 -6.5q-5 0 -8.5 0.5t-7.5 1.5q-13 2 -12 14zM167 428q-2 -4 -3 -7t-3 -7q2 3 4 7t2 7z" />
    <glyph glyph-name="exclam" unicode="!" horiz-adv-x="132" 
d="M194 740q3 -4 7 -5q2 -2 4 -3t2 -4q0 -2 1 -3l2.5 -2.5t2.5 -3.5t2 -3t0 -3l-1 -1q3 -5 1.5 -7.5t-2.5 -6.5q-2 -3 -3.5 -7t-2.5 -9q-8 -11 -9 -24q-10 -31 -19 -61.5t-17 -60.5l-2 -4h1q3 8 5.5 16.5t5.5 16.5h1q-1 -2 -1 -6q-8 -26 -14.5 -50.5t-14.5 -49.5
q-13 -45 -26 -89.5t-26 -89.5l-45 -171q-3 -8 -4.5 -15.5t-3.5 -15.5q-1 0 -1 0.5t-1 0.5q11 44 22.5 87t23.5 87q-1 0 -1 1q-4 -10 -6 -23l-20 -72t-19 -73q-7 -29 -13.5 -58.5t-11.5 -58.5q-2 -8 -3 -16.5t-3 -16.5v-16t3 -16q-3 1 -8 1q-2 1 -5 5q-2 2 -4 8q1 -5 5 -11
q-3 2 -6.5 3.5t-3.5 0.5q-1 -1 -2 0q-3 4 -11 12q2 -3 4 -7q1 -1 -1.5 -0.5t-4.5 2.5q-2 4 -4 6q-3 8 -3 15.5t1 15.5q2 20 5 40t8 40q2 13 5.5 25.5t5.5 25.5q1 1 1 1.5t1 1.5q-1 1 -2 1q-2 -11 -4.5 -21.5t-6.5 -22.5q0 6 9 43.5t23 91t31 114.5t32 115t26.5 92t15.5 45
v-1q0 -1 0.5 -1.5t0.5 -1.5q2 9 5 17.5t5 16.5q12 33 23.5 67t23.5 67q2 6 5.5 12t6.5 13q2 6 9 4zM-7 102h-2v-4t-1 -4q1 0 1 -1q2 6 2 9zM-45 -242q2 11 2 22v22q0 2 0.5 3.5t0.5 3.5q2 3 2.5 6.5t6.5 4.5l-1 -1q5 1 8 4q2 -1 6.5 -2.5t5.5 -1.5q0 -4 -1 -6
q-2 -12 -4 -23.5t-4 -22.5v-5q-2 -5 -7 -5t-11 -1l-2 1q-1 1 -2 1zM30 53q2 4 3 7.5t1 8.5h1q0 -5 -1.5 -8.5t-3.5 -8.5v1z" />
    <glyph glyph-name="quotedbl" unicode="&#x22;" horiz-adv-x="179" 
d="M204 629q-1 0 -2 1q-8 -23 -17 -44.5t-17 -43.5q-2 2 -3 2.5l-3 1.5l-1 -1v8q-4 -2 -5 -3q1 2 1 5t1 5l-2 1q-3 -9 -13 -10q0 3 -2 7q-2 2 -3 4.5t-3 3.5q-5 3 -3 9h-4v2l2 14t3 14q6 23 14.5 45.5t17.5 45.5q3 7 6.5 13.5t7.5 13.5q0 1 5 3q1 1 2 1t2 2q2 2 4 4.5t7 0.5
v-3q5 4 8.5 1.5t7.5 -4.5q8 -3 4 -13q6 -2 7 -2q-3 -1 -4 -4q2 2 3 2.5t2 1.5q1 0 1 -1t-2 -5q2 0 2.5 0.5t1.5 0.5q2 -3 3.5 -6.5t-0.5 -8.5q1 -10 -4 -17.5t-9 -15.5q-5 -11 -10.5 -23t-10.5 -23l-2 -4q3 12 7 19zM286 700q-5 -11 -10.5 -20.5t-10.5 -20.5
q-8 -18 -16.5 -35.5t-16.5 -35.5l-9 -21l-1 1q6 14 12.5 29t12.5 29l-1 1q-2 -4 -3.5 -7.5t-3.5 -7.5q-8 -18 -16 -38q-3 -8 -10 -12q-4 6 -8 2q0 4 1 5q24 67 52 128q2 5 4.5 9.5t4.5 9.5q5 8 12 11q3 1 10 -1q-1 -7 -1.5 -13.5t-1.5 -12.5zM286 700q2 4 8 12q1 0 1 -1
q-8 -19 -17.5 -36.5t-17.5 -36.5l-33 -75q-1 0 -2 1q0 1 0.5 1.5t0.5 2.5q14 31 28.5 62t28.5 63q2 4 3 7zM291 689q2 4 4.5 7.5t4.5 6.5q-17 -35 -33.5 -70.5t-33.5 -71.5l4 8q13 29 25.5 56.5t25.5 56.5l3 6v1zM291 689v-1q-5 -8 -9 -16l-8 -16q-8 -17 -16.5 -34
t-16.5 -34q12 29 25.5 56.5t27.5 55.5l1 -1q-1 -2 -2 -5t-2 -5z" />
    <glyph glyph-name="numbersign" unicode="#" horiz-adv-x="463" 
d="M402 243q-28 -8 -56 -12l-56 -8q16 0 31.5 0.5t31.5 2.5q16 3 31 6t31 5l-6 -3q-18 -5 -36.5 -8.5t-37.5 -5.5q-11 -2 -23 -2.5t-23 -2.5q-6 0 -9 -6q-17 -51 -35 -102t-32 -105q-2 -9 -3.5 -18t-3.5 -18q-1 -5 -0.5 -10.5t0.5 -10.5q-3 4 -8.5 6.5t-7.5 10.5
q-2 -2 -2.5 -3l-1.5 -3l-3 3q-2 2 -3 3.5t-3 1.5q-5 2 -6 5t-2 7q-2 20 4 37q7 26 14.5 53t15.5 53q7 23 14.5 45.5t15.5 45.5q-12 -1 -23.5 -1t-22.5 -2q-8 0 -11 -8q-3 -9 -6.5 -18t-7.5 -17q3 10 6.5 19.5t7.5 18.5l-2 1q-9 -21 -17 -43t-16 -43q2 5 4 11t4 11
q5 14 10 29t10 29q1 2 0.5 3t0.5 2l-2 1q-1 -1 -1 -1.5t-1 -1.5q-11 -30 -21.5 -60t-17.5 -62q-2 -10 -2 -15q-1 -3 0 -5.5t1 -5.5h2q0 4 1 5q0 -4 0.5 -8t1.5 -9q-18 3 -33 18q-8 8 -10 16.5t0 18.5q2 17 6 32.5t9 31.5q2 4 3.5 11l3 14t2.5 13t2 8q-23 -2 -44.5 -4.5
t-43.5 -4.5q2 5 1 6.5t-6 3.5l-4 4q-2 2 -4 2.5t-4 2.5q-7 7 2 9t17.5 3t17.5 1q18 2 36.5 3t37.5 3q5 0 7 5q8 19 14.5 38t14.5 38q0 2 1 5q-26 -3 -52 -5.5t-51 -11.5v1q1 1 1.5 2t2.5 3q-4 4 -11 0q0 1 0.5 1t0.5 1v1l-4 4q-1 -1 -4 -1v1q2 2 3 4q-2 5 -4 5t-10 -2
q1 2 1 2.5t1 2.5q-2 0 -2.5 -0.5t-2.5 -0.5q0 2 -0.5 3t-0.5 3q0 6 6 8q21 5 42 7.5t42 4.5q14 1 27 1.5t26 1.5q5 0 7 5q15 37 32 72t38 68q7 11 14 20t17 17q3 3 6 3h7q1 0 1 -1q3 -6 8 -6q2 0 2 -3q0 -5 2 -7.5t4 -6.5l2 -2q5 -2 5 -6t2 -9l2 -4l2 -4q-2 -5 -4.5 -8
t-4.5 -7l-12 -22t-12 -23l-2 4q-4 -4 -5 -6q-8 -17 -17 -34t-17 -34q10 -1 19.5 0t19.5 1q2 0 5 5q9 23 17.5 45.5t17.5 45.5q9 20 19 40.5t20 41.5q2 5 6 7.5t9 4.5l5 -2q3 -5 6.5 -8.5t6.5 -8.5l2 -2l2 -6t2 -7t-1 -10q-8 -19 -16.5 -37t-16.5 -37q-2 -5 -3.5 -9.5
t-4.5 -8.5q-8 -11 -12 -24.5t-9 -25.5q23 0 45 1t45 1q6 0 16 -2t14 -9q1 -3 6 -5q5 -4 5.5 -5t-2.5 -6l2 -4l-1 -1q-13 4 -26 3.5t-27 -1.5l-40 -2t-40 -3q-11 0 -14 -10q-7 -17 -13.5 -35t-12.5 -35q-2 -5 -1 -6t6 -1q22 2 44 5.5t44 9.5q2 1 4 1t4 1q1 -1 1 -2
q-2 -2 -4 -3q6 -2 9 -4q-6 -5 -1 -10zM274 327q-11 -1 -20.5 -1.5t-19.5 -1.5q-7 -1 -10 -9q-8 -18 -15 -35.5t-15 -34.5q-3 -8 5 -8h5l33 3q6 0 9 7q6 20 14 40t14 40zM240 361q1 0 1 -0.5t1 -0.5q9 18 18 36.5t19 36.5q-1 1 -2 1q-11 -18 -19.5 -36t-17.5 -37zM332 334
q32 2 62.5 3t61.5 3q-31 2 -61.5 -1t-62.5 -5zM188 241q1 0 1 -0.5t1 -0.5q8 20 16 38.5t16 38.5l-1 1q-8 -20 -16.5 -38.5t-16.5 -38.5zM201 288q-5 -13 -9.5 -24.5t-9.5 -23.5q2 0 5.5 6t6.5 14t5 16t2 12zM239 328v-1q9 1 17.5 1.5t17.5 1.5v1q-9 -1 -17.5 -1.5
t-17.5 -1.5z" />
    <glyph glyph-name="dollar" unicode="$" horiz-adv-x="457" 
d="M558 497q1 -6 -3 -11q-11 5 -46.5 6.5t-75.5 -0.5q-47 -2 -102 -5q0 -1 -2 -1q-7 -1 -13.5 -1.5t-12.5 -2.5q-3 0 -5 -4q-17 -39 -30 -79t-26 -81q-3 -9 -5.5 -18.5t-5.5 -19.5q-2 -5 -2 -6.5t5 -3.5q18 -10 37 -18.5t36 -18.5l22 -14t21 -18q12 -14 20.5 -30.5
t9.5 -35.5q1 -7 1 -13.5t1 -13.5q0 -7 0.5 -13.5t0.5 -13.5q-3 -24 -19 -43q-17 -19 -41 -33q-37 -23 -76 -40.5t-81 -31.5q-18 -6 -18 -22q-4 -24 -7 -47t-6 -47q0 -1 -0.5 -2t-0.5 -3h-2q4 28 7.5 55.5t6.5 55.5q-6 -34 -10.5 -68.5t-5.5 -69.5l1 1l1 1q2 -3 1 -6.5
t4 -5.5q1 -2 -1 -5t-5 -3.5t-5 2.5q-6 4 -9 2q-4 -1 -7 2q-2 1 -3.5 2t-2.5 1q-7 0 -7 8q-1 6 -1 12.5v12.5q3 25 6 49t6 49q0 2 1 5l-78 -28q-30 -11 -55.5 -19.5t-28.5 -8.5q-6 -1 -12 4.5t-8 6.5l8 3.5t18.5 7.5t20 7.5t10.5 3.5l-11 -1l60 22l1 1l-1 1q-4 -2 -12 -4
l-30 -10l-30 -10q-9 -4 -17 -7t-16 -7h-1q0 -1 1 -1q-6 -6 -12 -1q-1 2 -2.5 2t-3.5 1q0 8 -8 11q-1 2 -2 3.5t-1 3.5v2q2 8 2 12h-1q-2 1 -5 4q-4 2 -1 5q1 1 -2 4q-3 4 3 6q8 4 18 8q32 13 63 25t63 26q21 9 40 18.5t39 18.5q8 4 11 12.5t4 19t2 23.5t4 27q5 28 9.5 56
t8.5 57q2 6 2.5 12t2.5 12q1 4 -3 6q-14 8 -27.5 16t-24.5 16q-9 6 -18 13t-17 14q-2 1 -3.5 2.5l-3.5 3.5q-9 14 -18.5 28t-14.5 30q-4 10 -7 19.5t-4 20.5q-2 14 1.5 25.5t10.5 22.5q8 14 19.5 23.5t23.5 17.5q23 15 48 26t50 21q14 5 28 9l28 8q13 4 27 6q1 1 5 1
q0 -1 -2 -3q-5 -1 -8.5 -1t-8.5 -1l1 -2q6 2 16 4q6 1 9 4t6 8q20 38 39.5 76.5t45.5 73.5q2 3 4.5 5.5l5.5 5.5q1 -3 1 -5q8 -1 10.5 -3t6.5 -10q1 -2 1 -4.5t5 -4.5q3 -2 3.5 -7t-0.5 -8q-8 -14 -15 -28.5t-13 -29.5q-5 -12 -10 -23.5t-13 -22.5q-4 -4 -4 -10h42v-2h-13
v-1h14q24 0 48 -2t48 -9q8 -3 16.5 -6t16.5 -7q13 -7 24 -19q5 -8 11 -14.5t11 -12.5q-1 -5 -0.5 -8t0.5 -6h-2zM123 -208q2 14 3 28.5t2 28.5q-2 -4 -3 -12.5t-2 -18t-1 -17.5t1 -9zM203 484q-23 -7 -46 -15.5t-44 -20.5q-12 -7 -23.5 -15.5t-20.5 -19.5q-1 -2 -2.5 -4.5
t-3.5 -5.5q9 9 30 22t61 30q38 16 55 23t23 9q-4 2 -7.5 1t-7.5 -2q-5 -2 -9 -3t-9 -3v1q1 1 5 3h-1zM109 449q-6 -3 -14.5 -8t-16.5 -11t-13.5 -12.5t-5.5 -11.5q4 2 5 3q8 11 18.5 20t21.5 17q4 2 5 3zM158 -64q16 6 30 12v1q-7 -3 -14.5 -5.5t-15.5 -5.5v-2zM285 171
q-17 9 -33.5 18.5t-34.5 14.5q-5 2 -6.5 1.5t-2.5 -5.5q-8 -35 -15.5 -69.5t-15.5 -69.5q-1 -3 -1.5 -5.5t-1.5 -6.5q2 1 3.5 1.5t3.5 1.5q23 11 47 22t46 25q24 15 43 31q3 2 5 4l4 4q-9 7 -19 13.5t-23 14.5q11 -5 21 -10.5t21 -11.5q-1 1 -1 2q-10 6 -19.5 13t-20.5 12z
M223 457q0 3 1 6t2 7q-4 -2 -8 -3t-9 -3q-15 -5 -39.5 -14.5t-48 -21.5t-42 -25t-22.5 -25q-2 -7 4 -11l12 -12t14 -11q20 -15 40.5 -25t42.5 -20q6 -2 4 3q2 4 2 7.5t2 7.5q18 73 45 140zM232 483l1 4q-1 -1 -1 -4z" />
    <glyph glyph-name="percent" unicode="%" horiz-adv-x="398" 
d="M250 308q-2 -2 -3 -2.5t-2 -2.5q-17 -24 -33.5 -48.5t-33.5 -49.5q-1 0 -1.5 -0.5t-1.5 -0.5q9 13 17 28q-51 -78 -93 -147t-80 -140v3h-1q-6 -11 -11.5 -21t-10.5 -21q0 3 2 7h-1q-3 -6 -5.5 -12t-4.5 -12q-8 -22 -16 -43.5t-13 -43.5q-1 -5 -1 -8.5v-7.5q-1 -6 4 -4
q2 0 3 -0.5t3 -0.5q-1 -2 -0.5 -3.5t-1.5 -2.5q-9 -9 -21 -3q-5 2 -8.5 4t-8.5 4q-9 5 -8 15q0 13 3 27q6 21 12.5 41.5t12.5 40.5q3 9 5.5 18.5t5.5 18.5q2 7 4 13.5t5 12.5q13 28 25.5 55.5t24.5 54.5q9 21 21 41t22 40q25 49 54 94t60 90t63 88t68 85q33 39 68 76.5
t73 72.5q9 8 18 15.5t18 15.5q2 2 4.5 3.5t5.5 0.5q2 -1 3.5 -1.5t3.5 -1.5l3.5 -3.5t2.5 -3.5q2 -2 2 -4q-1 -5 0 -6t6 -3q1 -4 1.5 -7t0.5 -7t-2 -6q-14 -11 -25 -25t-22 -27q-7 -8 -13 -14.5t-12 -14.5q0 -1 1 -1l6 6h1q-2 -2 -2.5 -4t-2.5 -4q-5 -6 -10.5 -12.5
t-10.5 -13.5q-3 -5 -5.5 -9t-4.5 -9l-4 -6l-4 -6q-12 -15 -24 -30.5t-24 -31.5q-2 -2 -2 -5l3 3v-2l-6 -8t-6 -9q-26 -38 -53 -75.5t-53 -75.5l-12 -18t-13 -18q-2 -3 -5 -6.5t-6 -7.5q-3 -5 -5.5 -9.5t-6.5 -9.5q-7 -11 -14.5 -21.5t-15.5 -21.5q-2 -2 -3.5 -5t-3.5 -5
q0 1 -1 1q3 5 5.5 9t5.5 9q41 61 83 126q1 1 1 1.5t1 1.5q3 5 6 9t7 9h-1q-3 -3 -7 -9q-2 -2 -2.5 -4.5t-2.5 -4.5zM270 557q3 2 6.5 4.5t7.5 4.5q-21 -10 -41 -21t-41 -19l-1 1q6 4 9 5q0 1 -1 1t-1.5 -0.5t-1.5 -0.5q-8 -3 -14.5 -5.5t-14.5 -5.5q-18 -6 -29 5
q-6 6 -11 12l-10 12q-3 4 -1 14t7.5 17.5t11.5 14.5q18 20 37 38t40 35q14 11 28 20.5t28 19.5q9 6 16 -3q1 -1 1 -2t1 -2q0 -3 1 -3q4 -1 3.5 -3t-0.5 -5v-4.5t4 -2.5q1 0 1 -3q1 -7 9 -7q13 0 21 -12q8 -11 11 -23t3 -26q0 -5 -3 -8q-4 -5 -7 -8.5t-8 -6.5
q-14 -11 -29 -18.5t-32 -14.5zM296 676q0 1 -0.5 1t-0.5 1q-30 -19 -55.5 -42t-50.5 -48v-1q14 11 27 23t27 23h1q-10 -10 -19.5 -20t-19.5 -21q6 4 8 5q20 14 38.5 27.5t37.5 27.5q8 6 11 10q5 4 4.5 6t-4.5 6l-3 -1.5l-3 -1.5q1 2 1 3t1 2zM285 676q-3 5 -7 1
q-8 -7 -17 -13.5t-17 -13.5q-8 -8 -16 -15l-16 -14q-1 -1 -1.5 -2t-1.5 -2h1q19 15 37.5 29.5t37.5 29.5zM205 536v1q-18 -6 -40 -14q11 0 20.5 4.5t19.5 8.5zM295 57q-1 -3 -4 -7q-2 -3 -5.5 -8t-7.5 -10q2 8 7 13.5t10 11.5q-3 -1 -5 -1.5t-4 -1.5q-1 2 -1.5 4t-1.5 5
q-5 -5 -10 -10.5t-10 -10.5h-1q4 5 7.5 11t7.5 11q-2 0 -3 0.5t-3 0.5q2 2 2.5 4.5t2.5 4.5q-9 3 -15 -4q-5 -5 -10 -10.5t-10 -11.5q-7 -11 -15.5 -20t-17.5 -17q-15 -13 -31 -24.5t-34 -21.5h-2q15 24 32.5 46.5t40.5 41.5q2 -2 2 -2.5t1 -1.5q2 1 4 3.5t4 -1.5q2 1 2.5 2
t1.5 2l6 -9q2 5 3 8t3 6q3 7 -2 10q-2 2 -4.5 4t-4.5 4l-2 2q-4 -2 -4 0.5t-2 3.5t-4 1t-2 2q-6 12 -18 7q-10 -4 -20 -11q-50 -38 -81 -93q-5 -9 -8 -21q-5 -19 13 -32q4 -4 8.5 -6.5t9.5 -4.5q2 -1 4 -3q7 -7 19 -7q13 0 29 7q7 4 18 10q9 5 22 14t30 23q1 1 2 1.5t2 1.5
q3 2 6 5t7 6q4 4 7 6q8 10 16 21q7 9 13 19t9 18q1 1 1 3q-2 4 -10 6zM205 54q-6 -7 -12.5 -13.5t-13.5 -14.5q1 4 4.5 9t7.5 9.5t8 7t6 2.5zM193 71q-6 -8 -12.5 -14.5t-12.5 -13.5l-1 1q6 7 12.5 13.5zM178 40q-13 -16 -25.5 -32t-25.5 -33q22 36 51 65zM284 53q1 -1 2 -1
q-10 -14 -19 -28t-22 -25zM272 63q1 0 2 -1l-16 -22l-16 -22h-1q16 24 31 45z" />
    <glyph glyph-name="ampersand" unicode="&#x26;" horiz-adv-x="421" 
d="M368 185q2 0 3 -5t-1 -8l-7.5 -7.5t-6.5 -7.5q-8 -9 -16.5 -18t-15.5 -20q-14 -18 -26.5 -37.5t-26.5 -38.5q-23 -35 -44 -70t-41 -71l-30 -60q-2 -2 -2 -4q-1 0 -1 1q8 17 16 33.5t16 33.5v1q-11 -21 -22 -43l-26 -52q3 8 6 15.5t6 15.5h-1q-5 -11 -9.5 -21.5
t-9.5 -21.5h-1q8 18 15 36t15 35q9 18 18 35t17 35q-1 -2 -3 -4h-1q8 15 17 30t17 30h-1q-6 -8 -11 -17t-11 -17q-5 -9 -9.5 -18t-9.5 -18l-10 -18l-10 -18t-9.5 -18t-8.5 -18q-5 -9 -9 -18.5t-9 -18.5h-1q5 11 10 23h-2q-2 -7 -5.5 -14t-6.5 -15t-6 -14.5t-5 -14.5
t-2.5 -15.5t-1.5 -15.5q-3 8 -9.5 7t-11.5 -1v-2q-16 8 -15 27q2 17 6.5 32t10.5 29q14 35 31 68.5t34 65.5q14 25 26.5 50t26.5 49q2 4 2 5l-1 1q-1 -1 -2 -1.5t-2 -1.5q-19 -10 -38 -19.5t-40 -16.5q-8 -3 -18 -6q-25 -6 -48 5q-6 3 -12.5 6t-11.5 6q-15 8 -21.5 18.5
t-2.5 31.5q2 16 8.5 29.5t14.5 27.5q17 27 38 51.5t46 47.5q13 12 26.5 23.5t27.5 22.5l3 3v2q-5 -1 -10 -1.5t-9 -0.5q-11 -1 -22 -1t-22 3q-13 4 -19 10q-7 5 -13.5 9.5t-13.5 9.5q-5 4 -8.5 7.5l-7.5 7.5q-11 13 -8 29t12 28q6 8 12 16.5t14 16.5q30 36 69 60.5t84 38.5
q14 4 27.5 7t27.5 4q14 0 25.5 -2.5t22.5 -12.5q6 -5 10 -11q2 2 2 2.5t1 2.5q17 26 33.5 52.5t33.5 52.5q14 21 28 41.5t28 40.5q3 4 6.5 8t7.5 8q2 2 5 2q4 -2 3 -5q0 -2 2 -8h1q1 0 1 0.5t2 0.5q-1 -2 -1.5 -2.5t-1.5 -2.5q-12 -21 -25.5 -41t-26.5 -40
q-12 -20 -23.5 -39t-23.5 -39q-8 -15 -17 -30l-18 -30q-1 -1 -1 -5q1 1 1.5 2t1.5 2q16 26 31 51.5t31 51.5q13 22 27 43l28 42q4 7 13 16q2 6 5 9q2 2 6 4q-20 -27 -38 -56t-37 -58q-17 -29 -34.5 -58t-34.5 -59l77 123q5 8 10 16.5t11 18.5l46 73l3 -3q3 -1 5 -6l2 -4
l-143 -240q0 -1 -1 -1q-1 -2 -2.5 -4t-2.5 -4q-2 -2 -3.5 -5.5t-2.5 -6.5q-3 -8 -6 -15t-7 -15q-2 -9 -11 -12q-2 2 -2 3q0 8 -7 9q-7 0 -9 5q-4 6 -10 4q-2 -1 -5 0t-5 3q-5 5 -5.5 7.5t1.5 9.5q5 13 10 25t10 26q2 5 2.5 9.5t2.5 10.5q-9 0 -12 -1q-20 -2 -39 -9t-38 -15
q-6 -4 -12.5 -7t-13.5 -8q20 10 41 19q11 4 21.5 7.5t21.5 5.5l-20 -6t-19 -7q-23 -9 -42.5 -21.5t-38.5 -27.5l-20 -16t-19 -17q-13 -11 -22.5 -23.5t-15.5 -27.5q-2 -5 -1.5 -6t5.5 -1q17 1 32.5 1t31.5 1q15 2 29 4l28 4h19q6 0 11 -3.5t10 -7.5q3 -2 3 -7q0 -11 11 -18
q5 -2 7 -8t-1 -11q-2 -3 -4.5 -5.5t-4.5 -5.5l-24 -22t-26 -21q-51 -37 -92 -81q-1 -1 -1.5 -1t-1.5 -1q6 6 11 14h-1q-4 -7 -13 -14q-13 -15 -25.5 -31t-21.5 -34q-5 -8 -9.5 -16t-4.5 -17q-1 -8 6 -6q11 4 20.5 6.5t19.5 7.5q13 6 26 12.5t27 12.5q27 14 52.5 29t51.5 32
q8 6 16.5 13t16.5 14q7 6 14 11.5t15 10.5q4 3 7 0q2 -1 8 -1q1 -4 4.5 -4t5.5 -1q5 -1 5 -5q-2 -9 4 -11q1 -2 1.5 -3.5t2.5 -3.5q3 -5 8 -4zM115 413q5 4 9 8.5t9 9.5h-1l-8.5 -8.5t-9.5 -8.5q0 -1 1 -1zM241 499q8 4 17 6.5t18 6.5q-18 -5 -35 -12t-33 -16q8 4 16.5 8
t16.5 7zM313 521l-1 1q-5 -1 -9.5 -1t-9.5 -1q-14 -2 -26.5 -6t-24.5 -9l-7 -3.5t-8 -3.5q11 4 21.5 7.5t21.5 7.5q11 2 21.5 4t21.5 4zM300 526q-6 1 -22 -2.5t-32.5 -9.5t-29.5 -12.5t-15 -10.5q23 12 48 21t51 14zM194 499q-6 -3 -11 -8q1 0 1 -1q2 0 3 1q4 2 8 3.5
t7 3.5q2 1 3.5 2t3.5 2q2 2 3.5 3t4.5 2q17 8 36 14t39 9q1 0 1 2q-4 2 -9 0q-20 -2 -38.5 -9t-35.5 -15l-1 -1q-4 -2 -7.5 -4t-7.5 -4zM172 483q-33 -19 -58 -46q14 12 28.5 23t29.5 23zM111 436q-3 -3 -5.5 -6t-5.5 -5l1 -1q3 2 5.5 5t5.5 6zM145 455q-9 -4 -20 -14
t-21.5 -21.5t-18 -22.5t-7.5 -17q13 23 30 40.5t37 34.5zM81 375q-1 -2 -1 -3.5t-1 -3.5q15 28 36.5 48.5t44.5 39.5h-2q-8 -7 -17 -13.5t-17 -14.5q-14 -12 -26 -26q7 8 14.5 17t14.5 17q-11 -11 -22 -22.5t-18 -25.5q3 4 5 6.5t5 6.5q-2 -4 -4 -6l-6 -10zM252 318
q-5 -3 -9 -7l-7 -7q0 -1 1 -1q4 3 7.5 6.5l7.5 7.5v1zM238 315q-7 -6 -13 -11t-13 -10l1 -1q7 5 13 10t13 11zM191 326q-29 -3 -60 -6q14 1 28 1.5t28 1.5q1 0 2 1t3 1zM125 314q5 -1 13.5 -1.5t16.5 0t15 1.5t9 2q-14 0 -27.5 -0.5t-26.5 -1.5zM49 107q-1 -1 -1 -2t-1 -3
q15 32 37.5 57.5t45.5 51.5q-1 0 -3 -2q-23 -23 -44 -47q-11 -13 -20 -26.5t-14 -28.5zM105 179q-11 -11 -21 -23t-18 -26q10 13 19.5 25t19.5 24zM50 81q0 -2 0.5 -4t0.5 -5q2 11 5.5 20.5t8.5 19.5q6 9 11.5 18t11.5 17v1q-6 -8 -11.5 -15.5t-11.5 -15.5h-1q5 8 10.5 15.5
t10.5 15.5q25 32 54 60.5t61 54.5q6 4 12 12q1 0 1.5 0.5t1.5 0.5q11 9 23 19t23 20q2 1 3 2q0 1 -1 1q-4 -2 -5 -2q-5 -6 -11.5 -12t-12.5 -11t-11 -9t-11 -9l-1 -1q-13 -11 -25.5 -21.5t-25.5 -21.5q-7 -5 -13 -11.5t-13 -12.5q-16 -17 -31 -34t-29 -36q-8 -11 -15 -23
t-9 -26q-2 -3 -2 -6t-1 -6h1q1 1 1 2t1 3zM94 57q-1 -1 -1 -1.5t-1 -1.5q2 -2 3 -1q8 0 13 3q8 3 16.5 6t16.5 7q20 11 39.5 22t39.5 22q5 3 7.5 7t5.5 9q-1 0 -1.5 -0.5t-1.5 -0.5q-17 -10 -34.5 -20t-35.5 -20q-11 -6 -22.5 -12t-23.5 -12l-10 -4t-10 -3zM200 83
q7 3 10 7.5t6 11.5l-4 -2q2 2 5 4t5 7q-33 -18 -65.5 -36.5t-67.5 -29.5q2 -1 4 -1q7 2 13 3.5t12 4.5l26 12t27 13q-21 -12 -42 -22t-45 -18q8 0 17 1.5t21 6.5q20 8 39 17.5t39 20.5zM253 60q1 2 1 2.5t1 2.5h-1q-2 -2 -2 -3.5t-2 -3.5q-6 -8 -11.5 -17t-11.5 -19
q-17 -29 -32.5 -57t-32.5 -57q-15 -28 -29 -56.5t-25 -59.5q-2 -4 -2.5 -8.5t-1.5 -8.5q1 0 1 1l10 26l10 26q17 39 37 76.5t42 75.5q12 20 24.5 40t24.5 40z" />
    <glyph glyph-name="parenleft" unicode="(" horiz-adv-x="258" 
d="M109 -243q-5 2 -9.5 3.5t-9.5 3.5q-1 1 -2 1q-5 2 -9 2.5t-9 1.5t-8 6q-9 8 -14 17.5t-8 20.5q-10 25 -16 50t-11 51q-4 20 -7.5 41t-5.5 41q-2 18 -1.5 37t-0.5 37q0 5 -1 7q0 -4 -0.5 -7.5t-0.5 -7.5q-1 -5 -1 -15q-1 9 -1 18t-1 18q-1 -5 -1 -8.5v-8.5q-2 9 0.5 31.5
t7.5 51.5t12 61.5t15 60.5q32 102 87 191q29 47 62.5 88.5t71.5 80.5q-3 -4 -9 -10v-1q2 1 4 3q32 38 71 67q7 6 14.5 10.5t15.5 9.5q10 6 20 11l20 10q10 6 22 0q2 -2 7 -2q-4 -2 -5 -2v-6q3 1 8 1q4 0 4 -1v-4q0 -1 1 -1t1 -0.5t2 -0.5q-2 -1 -4 -1t-4 -1q3 -3 -1 -5
q-8 -3 -17 -8q-12 -9 -24 -17.5t-23 -18.5q-13 -12 -25 -24.5t-25 -25.5q-8 -8 -15 -16l-14 -16q-8 -9 -14.5 -17.5t-13.5 -17.5q-14 -17 -28 -37q-4 -4 -6 -12q3 3 5.5 6.5t5.5 7.5l6 6q4 5 8 9t7 8q17 20 34 40.5t37 39.5l18 18t19 18q1 0 1.5 0.5t1.5 0.5l-20 -20
q-32 -32 -60 -66t-54 -69l-8 -12t-8 -13q-11 -20 -21.5 -38.5t-20.5 -37.5q-1 -3 -1 -10q11 17 21 34t21 34l1 -1q-1 -2 -1 -4q-5 -8 -10 -16.5t-10 -17.5q-6 -11 -11 -23t-11 -23q-11 -23 -21 -46.5t-19 -46.5q-15 -42 -27 -82t-19 -82q-2 -7 -1.5 -13.5t-0.5 -12.5
q-2 -12 -2 -23.5t-1 -22.5q-3 -24 -4 -48.5t3 -49.5q4 -28 7.5 -55.5t8.5 -56.5l4 -18l4 -18q3 -10 7 -18.5t9 -16.5q0 -1 0.5 -1t0.5 -1zM79 -183h-2l4 -12l4 -12l1 1q-3 13 -7 23z" />
    <glyph glyph-name="quotesingle" unicode="'" horiz-adv-x="108" 
d="M185 737q6 -1 7.5 -2.5t1.5 -8.5q1 -3 4 -5.5t6 -0.5q4 0 4 -1q2 -4 2 -7q-2 -11 -6 -20.5t-9 -19.5q-9 -18 -15 -36.5t-11 -37.5q-2 -10 -10 -4l-2 1q-5 -3 -6 -0.5t-2 4.5l-4 8t-4 9q0 2 -0.5 2.5t0.5 2.5q3 26 14 51q5 14 11 27.5t11 27.5q1 4 5 8q1 1 2 1t1 1z" />
    <glyph glyph-name="parenright" unicode=")" horiz-adv-x="275" 
d="M166 121q14 33 26 67t23 69q-2 -8 -5 -14.5t-6 -14.5q-1 -4 -2 -7l-2 -6q-9 -24 -17.5 -48t-19.5 -47l-2 -4q2 3 2.5 6t2.5 6q7 19 14 37.5t15 38.5q-32 -76 -82 -170.5t-122 -209.5l6 20q-7 -11 -14 -20.5t-15 -19.5q-6 -8 -13 -16t-14 -15q-5 -5 -11.5 -6.5t-11.5 -3.5
q-5 -1 -13 1q0 1 -0.5 1.5t-0.5 1.5q-2 0 -4 0.5t-4 0.5q0 3 1 4q11 17 21 34.5t20 35.5q10 20 20 39.5t21 39.5q21 40 41 79t38 80q20 45 38 90t33 92q7 21 13.5 42.5t12.5 42.5q7 23 13 47t13 47q16 64 17 126q2 20 1.5 38.5t-1.5 38.5q0 3 -0.5 6t2.5 7q1 1 1 7
q-4 14 -7 28.5t-6 29.5q0 2 -1 4l-2 4q5 0 5 1.5t-2 7.5q1 -1 1.5 -1t1.5 -1q3 -3 4 1q0 1 3 1q2 -2 4.5 -3.5t5.5 -3.5q1 0 1 -1t1 -1q9 -5 13.5 -13t8.5 -17q4 -10 6.5 -19.5t6.5 -19.5q2 -7 4.5 -13t4.5 -12q1 -2 2.5 -4.5t2.5 -5.5q2 -7 3 -13.5t3 -13.5q2 -6 4 -14
q0 5 -0.5 10t-1.5 11h1q0 -2 0.5 -3t0.5 -2q2 -11 2.5 -20.5t1.5 -20.5q5 -26 2 -66q-2 -34 -13 -86.5t-38 -127.5q-12 -41 -26.5 -80.5t-31.5 -78.5zM257 617q3 -20 3.5 -39.5t-1.5 -39.5q-1 -16 -3 -32.5t-4 -32.5l12 51q2 23 0.5 47.5t-7.5 49.5v-4z" />
    <glyph glyph-name="asterisk" unicode="*" horiz-adv-x="326" 
d="M71 361q11 2 17.5 -3.5t11.5 -13.5v7l1 1l7 -7q4 -4 7 -5l3 -3q2 -5 3.5 -9t3.5 -9q2 -4 4 -6l1.5 -3t2.5 -3l4 6q10 16 19 31t19 31q1 2 1 8l3 6q3 6 6.5 11t6.5 11t9 3h6q3 0 5 -2q3 -3 2 -3q6 -2 6.5 -6.5t-0.5 -9.5v-2h1q10 0 6 -9q-2 -5 -4 -8.5t-4 -7.5l-22 -34
l-22 -34q-2 -5 -1 -6q0 -2 5 -2h49q17 -1 33 -1.5t33 -2.5q14 0 26 -14q2 -2 2 -4t1 -4q2 -6 -2 -5l2 -6t-1 -5q-1 -2 -3.5 -2.5t-4.5 -2.5q-3 5 -7.5 6.5t-9.5 1.5q-18 1 -36 1.5t-36 0.5q-16 0 -31 -1t-31 -2h-5q10 -21 20.5 -40.5t23.5 -37.5q-8 -2 -11 2q-3 3 -8.5 2.5
t-7.5 -3.5q-6 2 -9.5 6t-7.5 9q-6 8 -11.5 16.5t-11.5 17.5l-1.5 3t-2.5 3q-16 -29 -32 -56.5t-25 -59.5q-3 3 -1 9q2 7 4.5 13.5t5.5 13.5q11 20 21.5 40.5t21.5 40.5q1 2 1.5 3.5t-2.5 3.5q-1 -2 -3 -4q-11 -21 -22.5 -42t-22.5 -43q-2 -5 -3.5 -10.5t-3.5 -10.5
q-1 -3 -2.5 -5t-3.5 -5q-3 7 -4 12q-1 -2 -4 -5q-1 3 -1 5.5t-1 4.5q-4 0 -6 -1q0 16 7 29q6 15 13 29.5t15 28.5l3.5 7t0.5 7q0 3 0.5 5.5t0.5 6.5q-5 -1 -9 -1t-9 -1q-14 -2 -29 -3t-29 -3q-3 0 -6.5 1t-7.5 2q2 1 5 4l3 3q-2 2 -4 3q5 4 -3 8q4 5 -1 6t-3 5q1 1 5 3
q-1 1 -1 1.5t-2 2.5q2 1 4.5 2.5t4.5 1.5q20 5 41.5 6t42.5 0q7 0 7.5 1.5t-2.5 7.5l-12 22l-12 22q0 1 -0.5 2t-0.5 2q-3 5 -4 9.5t5 8.5zM216 376l-1 1l-3 -3q-4 -5 -7.5 -9t-6.5 -9q-10 -15 -19 -30t-18 -29q-1 -1 -1 -2t-1 -2q4 -2 7 3q12 19 23.5 38t23.5 38q1 1 1.5 2
t1.5 2z" />
    <glyph glyph-name="plus" unicode="+" horiz-adv-x="419" 
d="M126 57q-1 2 -1 2.5t-1 2.5q-1 -1 -5 -2q0 5 -0.5 9t0.5 9q5 33 14.5 65.5t19.5 64.5q5 14 8 25l-1 1q-3 -3 -4 -5q-6 -18 -11.5 -36t-11.5 -36q-5 -15 -9 -29.5t-9 -29.5q1 4 1.5 7t0.5 7q2 10 3 14q8 26 15 51l14 50q3 9 -6 8q-7 0 -11 -1q-9 -5 -19 -5.5t-20 -1.5
q-13 -3 -32 -1q-5 1 -10 3t-8 9q-2 5 -5 8.5t-5 7.5q-4 4 -2 10v3.5t-3 3.5q-1 0 -1 0.5t-1 0.5h7q2 2 2 3q-4 2 -5 2q-6 3 -6.5 6t1.5 8q3 0 6 0.5t5 0.5q11 1 21 2l20 2q21 1 42 1t42 1q6 0 7 1t3 6q9 28 18.5 55.5t19.5 55.5q2 5 4.5 10t4.5 10q2 4 4.5 7.5t5.5 7.5
q2 -3 3 -1t3 3v-3q6 2 10 2q1 0 4 -3q1 -2 1 -5q7 -1 13 3q2 2 4 0t3 -5q6 1 7 0t3 -6q2 -2 2 -3q1 -2 0.5 -2.5t-0.5 -2.5q5 1 7 -5v-3q-1 -10 -3.5 -19.5t-6.5 -18.5q-7 -18 -14 -36.5t-15 -36.5q-1 -2 -1 -3t-1 -3q2 0 3 -0.5t3 -0.5q18 0 36 0.5t36 0.5q14 0 26.5 -0.5
t26.5 -1.5q12 -1 16 -10q2 -2 2 -4.5t1 -4.5t1 -4t1 -4q-2 -2 -4 -3q1 -3 2.5 -6.5t-2.5 -6.5q-10 0 -19 0.5t-19 0.5q-13 -1 -25 -1.5t-25 -1.5q-15 -2 -30.5 -3t-30.5 -3q-3 0 -4 -1q32 1 63 2t63 3v-1q-31 -2 -61.5 -4t-62.5 -4q-9 -1 -22 -5q-1 0 -3 -4l-14 -42t-14 -43
q-5 -12 -8 -24.5t-8 -24.5q-5 -11 -6.5 -22.5t-4.5 -22.5q6 48 20 92t28 89q-16 -45 -30.5 -89.5t-22.5 -92.5q1 3 1 6.5t1 6.5q0 5 2 13q0 3 0.5 6t1.5 7h-1q-2 -10 -3.5 -19.5t-3.5 -19.5q-4 -2 -5 -2v1q0 1 -0.5 1.5t-0.5 1.5q-2 0 -3.5 -2t-3.5 1q-2 -1 -3 -2t-2 -1
q-2 1 -2.5 2t-2.5 3l-3 -6h-1q-1 2 -1 4.5t-1 4.5q-1 -2 -1 -2.5t-1 -2.5zM275 410l-1 1q-11 -27 -20.5 -54t-20.5 -54h2q10 27 20 53.5t20 53.5zM53 232v-1q4 0 7.5 0.5t8.5 0.5h-16zM244 304h2q1 2 1.5 5t2.5 6h-2q-1 -3 -2 -5.5t-2 -5.5z" />
    <glyph glyph-name="comma" unicode="," horiz-adv-x="161" 
d="M37 176q1 2 7.5 -1.5t13.5 -8.5t12.5 -10t6.5 -6q5 -2 0 -18q-6 -17 -12.5 -33t-14.5 -33q2 5 3.5 10.5t3.5 10.5q-2 -2 -4.5 -8t-2.5 -7q-6 -14 -9.5 -22.5t-9.5 -22.5q-1 -7 -6.5 -6.5t-12.5 5t-14 10t-10 8.5q-2 2 -0.5 4t1.5 4q10 28 19.5 55.5t20.5 55.5q2 4 3 7.5
t5 5.5z" />
    <glyph glyph-name="hyphen" unicode="-" horiz-adv-x="253" 
d="M213 280q8 0 10 -5q0 -3 -1 -5l2 -9q-2 0 -11 -0.5t-20 -1.5q-15 -1 -39 -2.5t-49 -2t-46 -1t-28 0.5h-12q0 3 1 7q1 3 1 5t1 4q0 3 1 5t2 3q-3 1 -2.5 6t2.5 5q3 0 5 3q2 5 5.5 5t7.5 1q9 1 17.5 1h17.5h52q20 -1 39 -1t39 -1q5 0 11.5 -1t5.5 -7q-3 -1 -3 -7
q0 -1 -5.5 -1.5t-3.5 -0.5z" />
    <glyph glyph-name="period" unicode="." horiz-adv-x="141" 
d="M60 88q-3 -5 -9 -5t-11 2q-16 4 -32 14q-14 9 -11 23q4 11 7 20.5t13 25.5q2 1 7.5 0.5t7.5 -1.5q6 4 13 0t34 -20q6 -5 3 -9t-1 -7q-3 -9 -5.5 -13t-4.5 -8t-4.5 -8.5t-6.5 -13.5z" />
    <glyph glyph-name="slash" unicode="/" horiz-adv-x="326" 
d="M436 744q19 -2 19.5 -11t-7.5 -23q3 4 5.5 8t5.5 4q-1 -2 -2 -6t-3 -6q-7 -13 -13.5 -25t-13.5 -24q0 3 -17.5 -24.5t-45.5 -75.5t-64 -110.5t-73.5 -129t-73.5 -131t-64.5 -117t-46.5 -87t-19 -40.5q-18 -34 -35.5 -67.5t-34.5 -68.5q-11 -23 -14 -30t-7 -15
q-2 -3 -4 -5.5t-7 -0.5q-4 6 -8.5 3t-11.5 2q-11 5 -6 14q3 8 5.5 16.5t6.5 16.5q1 5 18.5 40.5t46 91t65.5 125t75.5 142t76.5 143t69.5 127t53 94.5t28.5 46q20 31 40.5 61t40.5 60q4 6 7 10q3 -2 6.5 -2t1.5 -5z" />
    <glyph glyph-name="zero" unicode="0" horiz-adv-x="419" 
d="M50 62q0 16 2.5 31.5t5.5 31.5l-1 1l-9 -45q-1 8 5.5 35t15.5 57.5t19 57.5t16 36q-17 -51 -32.5 -101.5t-21.5 -103.5zM34 276q-6 -19 -12 -37l-12 -36q-5 -18 -10 -36.5t-10 -35.5q0 10 4.5 29.5t11.5 41.5t14.5 42.5t13.5 31.5zM165 66q-3 -2 -6 -5t-6 -5q5 6 11 11z
M354 537q19 -7 34.5 -20t25 -29.5t14 -34.5t1.5 -35q-22 -82 -62 -162q-17 -34 -40.5 -71.5t-54 -75t-68.5 -73t-84 -66.5q-13 -3 -21 -4.5t-15.5 -2t-16.5 1.5t-22 7q-16 5 -25 17q-9 9 -13 20t-5.5 23t-2 24.5t-2.5 25.5q-2 15 0 29.5t5 28.5q24 112 75 216q8 17 17.5 33
t21.5 31q2 1 2.5 2t1.5 2q1 0 1 0.5t1 0.5q-2 -3 -3 -5t-3 -5q4 -2 3.5 -3.5t-1.5 -3.5q-6 -8 -8 -13h1l12 18q10 15 20.5 28.5t24.5 25.5q3 3 11 7q5 2 8 -2l16 -16v-2q-1 -3 2 -7v-2h-1q-7 4 -9 3.5t-7 -5.5q-12 -10 -21.5 -22t-17.5 -26q-13 -22 -24 -44.5t-22 -45.5
q-1 -1 -0.5 -2.5t-0.5 -3.5v-4q-7 -16 -13 -31.5t-12 -31.5q0 -2 -0.5 -3t0.5 -3q5 13 10 25.5t10 25.5h1q-2 -4 -2.5 -8t-2.5 -8q-25 -61 -39 -122q-9 -39 -12 -78v11q0 8 1 12q1 11 2 21.5t3 21.5q2 9 4 17.5t4 16.5q1 3 1 8h-2q-1 -3 -3 -11q-5 -19 -8.5 -37.5
t-5.5 -38.5q-2 -14 -1.5 -28.5t3.5 -28.5q0 -2 1 -5t2 -5h1v38q1 -8 1 -15.5t1 -15.5q1 -5 1.5 -9.5t2.5 -8.5q4 -13 18 -10q16 4 32 14q21 12 37.5 28.5l33.5 33.5q20 20 37 41.5t34 44.5q2 2 2 5q-13 -16 -25.5 -31.5t-25.5 -32.5l-1 1q2 2 2 4v1l-14 -14q5 7 10 13l10 12
q43 57 80 116.5t65 125.5q10 23 17.5 46t10.5 48q2 10 2 19.5t-3 20.5q-1 8 -9 13.5t-18.5 9.5t-21.5 5.5t-18 1.5q-18 2 -35 0t-26 -15q-2 -2 -2.5 -1t-2.5 0q3 7 9.5 11t13.5 6t13.5 2.5t10.5 0.5v1q-18 0 -28 -4t-17 -10q-5 -4 -6 -3t-2 0q0 2 2.5 5t2.5 6q-2 -3 -4 -5.5
t-5 -4.5q-1 2 0.5 6.5t9.5 11.5q2 2 5 3.5t6 3.5q0 1 -1 2q-4 -2 -9.5 -6t-10.5 -6q1 4 3 6.5t4 4.5q-7 -4 -8.5 -10t-3.5 -11q-1 0 -1 1v3q1 16 18 24q8 4 15.5 5t15.5 2q21 2 41.5 -1.5t40.5 -10.5zM180 464q-4 -1 -6 -4.5t-4 -5.5q3 2 5.5 4t5.5 4q0 1 -1 2zM183 456
q-13 -10 -21 -22q7 5 13 10.5t14 11.5h-6zM123 366q-1 -1 -1 -3q1 1 1.5 2t1.5 2q9 14 18 27.5t19 26.5q4 6 9 10.5t10 9.5q3 2 5.5 4.5t5.5 4.5l-1 1q-8 -3 -13 -8q-8 -6 -14 -14q-11 -16 -20.5 -31.5t-20.5 -31.5z" />
    <glyph glyph-name="one" unicode="1" horiz-adv-x="163" 
d="M158 561q7 -1 16.5 -8.5t10.5 -16.5q2 -2 2.5 -4t2.5 -4q-7 -4 -10.5 -10t-6.5 -13q-21 -60 -40.5 -119t-36.5 -119l-45 -159q-5 -19 -8 -37.5t-7 -37.5q-1 -5 -0.5 -11.5t0.5 -12.5q0 -2 -0.5 -3.5t-0.5 -3.5l-1 1q-2 -1 -2.5 -2t-2.5 -3q-3 3 -5 6q-1 -2 -1 -3.5
t-1 -3.5q-5 2 -7 7.5t-6 10.5l-1.5 -3t-0.5 -3q-6 5 -6 14q-2 14 -0.5 27t3.5 27q7 37 15.5 73t18.5 71q5 19 10.5 37t10.5 37q11 45 25 88.5t29 86.5q8 23 17 44t18 44q2 5 3.5 5t6.5 -2zM126 378l9 21q-1 0 -2 1q-3 -14 -7 -22q-2 -5 -3 -10.5t-3 -11.5q-2 -4 -2 -5
q-12 -38 -23.5 -75.5t-22.5 -75.5q-10 -35 -19 -69t-16 -69v-4q2 4 2 5q4 17 7.5 33t8.5 32q11 41 22.5 81.5t22.5 81.5q5 17 10 32.5t10 32.5q2 6 3 11.5t3 10.5zM67 272q-1 0 -1 0.5t-1 0.5q-2 -4 -3 -7q-3 -12 -6.5 -24t-7.5 -24q-6 -23 -12 -45.5t-12 -45.5
q-5 -21 -9 -42t-6 -43q-1 -2 -0.5 -5t0.5 -5q2 13 3.5 26t4.5 26q9 43 20.5 84.5t23.5 83.5q2 5 3 10t3 10zM147 524q-1 1 -2 1q-5 -16 -10.5 -31.5t-11.5 -31.5q1 0 1 -0.5t1 -0.5q5 16 10.5 31.5t11.5 31.5zM145 434q-4 -9 -7 -20h1q2 5 3 10t3 10zM70 135q0 1 -1 1
q0 -2 -0.5 -2t-0.5 -2q-7 -25 -13 -50.5t-9 -51.5q-1 -8 -0.5 -16.5t1.5 -16.5v-4q-1 -1 -2 -1q-2 6 -3 10q-2 11 -0.5 22t3.5 22q5 29 11.5 58t14.5 58l33 114q6 22 12.5 43t13.5 43q9 29 18.5 57.5t19.5 57.5q4 12 11 26v-3h1q0 1 2 5v-2q-8 -29 -16.5 -56.5t-17.5 -55.5
q-20 -65 -40 -128.5t-37 -128.5q0 -2 -1 -2v3z" />
    <glyph glyph-name="two" unicode="2" horiz-adv-x="341" 
d="M118 332q1 9 4.5 17t8.5 16q20 30 44 56t53 47q16 12 36 18q3 0 4 1t1.5 1t1.5 1l-4 2q-4 -1 -8 -1.5t-8 -1.5q-11 -5 -21.5 -11.5t-20.5 -14.5q-24 -19 -44 -41t-35 -48q-9 -16 -15 -31q-4 -7 -1 -17q-2 -9 -4.5 -6.5t-7.5 4.5q-2 -1 -7 1t-10.5 5.5t-9.5 7.5t-3 7
q-4 11 -1.5 21.5t7.5 20.5q10 20 23.5 37.5t28.5 34.5q16 17 32.5 32.5t35.5 27.5q20 14 41 17q12 2 22 -1t19 -10q17 -14 26 -31.5t14 -37.5q3 -13 1 -25t-6 -24q-8 -26 -19 -51t-25 -49q-11 -20 -22 -39t-24 -39l-32 -48t-33 -48q-10 -14 -20 -26.5t-20 -26.5q-1 -1 -1 -3
h4q34 2 67.5 3t67.5 -1q24 -2 48 -6q17 -3 32 -18q3 -1 5 -8q2 -2 2 -3q3 -4 4 -8q-1 0 -1 -1q-2 1 -4 1t-4 1q-11 5 -23 6t-24 1q-30 2 -59.5 0.5t-59.5 -3.5q-17 -2 -33.5 -3.5t-33.5 -3.5q-6 -2 -9 -5q82 9 166 9h-22t-22 -1t-21.5 -1t-21.5 -2q-41 -3 -79 -9
q-12 -1 -26 -6q-3 -1 -5.5 -2.5t-4.5 -3.5l-6 -3q1 1 1 1.5t2 2.5l-2 -1q-4 -4 -7 -6q-2 -2 -4.5 -2.5t-4.5 -2.5q-3 -2 -5.5 -4t-5.5 -4q-9 -7 -18 -13.5t-19 -13.5q-3 -2 -5.5 -4.5t-4.5 -7.5q0 -1 -2 -1q-6 0 -10 4q-8 5 -16 6q-10 3 -18 12q-1 1 -2 1.5t-2 1.5
q-1 2 -2 2.5t-1 1.5q-4 8 -7 17q0 7 1 9q4 8 9.5 13.5t12.5 10.5q12 9 26 14.5t28 10.5q14 4 23 16q14 18 27 36l26 36q14 18 26 35.5t25 35.5q10 14 19 28.5t19 28.5q22 31 41 63.5t36 65.5l24 54q0 1 0.5 2t0.5 2h2q-2 -6 -4 -12.5t-4 -12.5t-4.5 -12.5t-4.5 -12.5
q-3 -6 -5.5 -12t-5.5 -13l-12 -24l-6 -12t-6 -11l1 -1q1 2 2 3.5t2 3.5q12 23 23 45.5t19 47.5q3 10 4.5 20t3.5 21q1 5 0 5.5t-6 -0.5q-14 -4 -26.5 -11t-23.5 -16q-62 -48 -94 -115q-2 -3 -4 -9zM-36 39v1q-8 -4 -12 -7q-16 -10 -24 -23q-2 -2 -2 -4.5t-1 -4.5h2
q8 11 16.5 21t20.5 17z" />
    <glyph glyph-name="three" unicode="3" horiz-adv-x="356" 
d="M181 243q31 -15 56 -36t43 -50q16 -26 10 -51.5t-23.5 -47t-42.5 -37.5t-46 -23q-46 -17 -97 -25q-7 -3 -19 -1.5t-24.5 6t-23 11t-14.5 12.5q-3 3 -5 6q-2 4 3 6l10 4q-7 -8 1 -2q0 -1 -0.5 -2t-0.5 -3q7 1 13 1.5t13 2.5q26 6 51.5 14t48.5 22q29 17 49 42.5t34 56.5
q7 21 -4 40q-2 4 -6 5.5t-7 3.5q-21 8 -41 17.5t-34 26.5q-2 2 -4 3q-2 2 -5 4.5t-5 4.5q-6 9 -1 19.5t12 16.5l71 71l42 42t42 41q24 25 46 57l3 6q-2 0 -4 -0.5t-4 -0.5q-23 -5 -43 -14.5t-40 -21.5q-35 -21 -66 -47.5t-57 -58.5q-7 -8 -12.5 -17.5t-11.5 -18.5
q-2 -2 -3 -1q-11 5 -22 12.5t-19 18.5q-7 8 -2 18q16 29 35 50.5t48 44.5q22 18 45 34t49 28q19 9 38.5 16.5t41.5 9.5q5 0 11 0.5t11 -0.5q29 -6 45 -36q5 -10 8 -19.5t5 -20.5q1 -6 -1 -14q-3 -14 -10 -26.5t-15 -23.5q-35 -46 -78 -88q-23 -23 -47 -44t-47 -44zM161 434
q4 2 5 4q23 18 47.5 34t51.5 29q2 2 5 2.5t6 2.5h-3l-15 -6q-45 -23 -87 -56q-3 -2 -5.5 -5t-4.5 -5q-3 -2 -6.5 -4.5t-6.5 -4.5q1 -1 1 -2q8 8 12 11zM330 517q-4 0 -6 -1q-16 -2 -31 -7t-30 -12q-29 -14 -55.5 -32t-50.5 -39q-18 -16 -34 -32.5t-29 -36.5q-2 -2 -4.5 -6
t-4.5 -7.5t-2.5 -6t1.5 -2.5q1 0 5 5.5t8.5 12t9 12t5.5 5.5q8 8 15.5 16.5t15.5 16.5q20 21 43 38.5t48 32.5q21 12 43.5 21.5t46.5 13.5q4 1 6 8zM76 349h2q24 38 57.5 68t70.5 56q-2 0 -3 -1q-20 -12 -37.5 -26.5t-34.5 -29.5q-8 -8 -15.5 -16t-15.5 -16
q-6 -7 -11.5 -14.5t-10.5 -15.5q-1 -1 -1 -2t-1 -3zM332 410q13 15 25.5 30t18.5 35l-2 2q-8 -19 -19 -35t-23 -32zM304 516q-5 1 -13.5 -2t-10.5 -6l12 4z" />
    <glyph glyph-name="four" unicode="4" horiz-adv-x="363" 
d="M380 423q3 -6 -1 -13.5t-6 -12.5q-1 -3 -1 -6t-2 -6q-3 -9 -6.5 -18t-6.5 -17q-17 -43 -32 -86t-29 -88l-20 -68t-19 -69q-3 -11 -5.5 -21.5t-4.5 -21.5q-2 -7 -3 -12t-4 -7.5t-8.5 -0.5t-16.5 10q-5 3 -9.5 6t-7.5 8q-6 10 -5.5 20t2.5 21q5 38 14.5 76t19.5 76
q6 23 12.5 46t12.5 46q-28 -28 -52 -45.5t-42 -28.5q-21 -12 -39 -19q-12 -6 -23 -3q-4 2 -7 3t-6 3q-9 5 -18.5 8t-17.5 9q-23 17 -26 48q-2 18 0.5 36t7.5 36q10 39 26.5 74.5t39.5 68.5q7 11 13.5 22.5t14.5 22.5q5 7 9.5 13t9.5 12q1 0 3 0.5t3 0.5q-3 -5 -8 -10t-8 -10
q5 4 13.5 14.5t13.5 14.5q0 -2 -0.5 -3l-1.5 -3l7 7q6 6 7 -3.5t1 -12.5q-2 -14 -9 -23.5t-14 -20.5q-15 -26 -29 -52t-26 -53q-4 -10 -4 -14q17 37 36 73.5t47 68.5q-11 -19 -22 -37t-22 -37q-22 -39 -36 -77q19 39 40 77.5t50 71.5q0 -1 1 -1l-27 -42l1 -1q10 13 16 23
q-32 -51 -58.5 -104t-41.5 -112q11 38 26.5 74t34.5 71l1 -1q-2 -4 -3.5 -7.5t-3.5 -7.5q-6 -14 -12.5 -28.5t-12.5 -28.5q-5 -14 -10 -28.5t-10 -29.5q-11 -30 -8 -61q0 -5 5 -5q8 2 12 4q5 2 10 4.5t10 4.5q2 1 2.5 1t2.5 1v-1q-2 -2 -5 -4t-5 -4l1 -1q48 29 89 64.5
t78 76.5q-2 -2 -4.5 -3.5t-4.5 -3.5q-2 -3 -8 -7l7.5 7.5t7.5 8.5q11 9 19 26l18 34t19 34q0 1 3 2t8.5 -2t14.5 -13.5t22 -33.5zM243 -2q2 8 3 16.5t3 17.5h-1q-2 -8 -3 -17t-3 -17h1z" />
    <glyph glyph-name="five" unicode="5" horiz-adv-x="368" 
d="M460 486q2 -6 3 -12t1 -13q0 -12 -7 -20q-3 4 -3.5 8.5t-3.5 6.5q-1 0 -1 4q0 2 -1 4q-6 1 -4 8q2 5 1.5 6t-5.5 3q-14 5 -27.5 6t-27.5 1q-16 1 -32 0.5t-32 -1.5h10q-23 -2 -46.5 -4t-46.5 -6q-8 -6 -22.5 -24t-29 -37.5t-26 -35l-11.5 -15.5q-1 -2 -1.5 -2.5
t-1.5 -2.5q-17 -28 -34.5 -56.5t-33.5 -57.5l50 10t51 7q13 2 26 1.5t26 -3.5q45 -7 71 -46q2 -4 4 -6.5t4 -5.5q23 -32 9 -68q-8 -20 -19.5 -37.5t-25.5 -33.5q-26 -28 -56.5 -50t-62.5 -41q0 -1 -2 -1q11 8 22 14.5t22 14.5l-1 1q-5 -3 -10 -6.5t-10 -6.5q-1 0 -1 1
q7 5 13 9t13 9q-1 0 -1 1q-6 -4 -10 -6q-23 -16 -46 -29.5t-49 -24.5q-11 -4 -21 -6.5t-21 -3.5q-12 -2 -21 5q-1 0 -1.5 0.5t-1.5 0.5q-11 3 -18 10l-15 15q-5 5 -6 10.5t-1 11.5t6 6l2 -4l3 3q3 -4 5.5 -7.5t7.5 -5.5q5 -3 6 -4q2 -3 8 -3q25 6 50 20q29 15 56 32.5
t50 40.5q26 24 47 52t36 60q2 5 3 10t3 10q3 10 -8 13q-30 6 -63 1q-9 -2 -18 -3.5t-18 -3.5q-17 -4 -33.5 -8t-33.5 -8q-8 -2 -13 -2q-4 0 -11 3.5t-15 8.5t-15.5 10t-11.5 9q-17 12 -14 31q2 13 6.5 25t9.5 23q12 26 28 48t34 44q12 14 25 27.5t24 29.5q-7 0 -16 -2
t-20 -4q-1 -1 -2 -1q-1 -1 -1.5 -2.5t-2.5 -1.5q-11 0 -20 3q-4 0 -8.5 6.5t-8 15t-6 16t-1.5 9.5q1 3 4 4.5t6 1.5q11 1 20.5 1.5t20.5 1.5q9 1 18.5 1.5t19.5 2.5q35 5 68.5 10t68.5 7q29 2 57 2t57 -3q8 -1 17 -3l18 -4q9 -3 16 -8.5t10 -16.5zM243 219q-21 2 -42 -0.5
t-41 -7.5q20 3 41 6t42 2zM125 456q9 0 16 1t15 6q-8 -2 -15.5 -3.5t-15.5 -3.5z" />
    <glyph glyph-name="six" unicode="6" horiz-adv-x="337" 
d="M315 533q5 -4 -1 -8q-9 -6 -18 -11.5t-17 -11.5q-24 -19 -45 -40.5t-41 -44.5q-61 -77 -103 -162q-16 -31 -29 -63t-23 -65q-1 -2 -1 -3.5t-1 -3.5q18 24 43.5 46t48.5 38.5t39.5 27t17.5 10.5q2 2 3.5 2.5t3.5 1.5q8 5 16.5 8t17.5 3q27 3 50 -14q25 -19 31 -46
q1 -4 0.5 -7t-0.5 -7q0 -2 -1.5 -4t-2.5 -4q-3 -8 -6 -16.5t-7 -16.5q-8 -14 -17 -26t-19 -23q-19 -23 -40 -43t-46 -37q-15 -11 -30.5 -20t-33.5 -15q-7 -2 -13.5 -4t-14.5 -2q-13 0 -30 5q-8 3 -15.5 7t-15.5 8q-14 7 -22 18t-13 24q-6 17 -6.5 34t1.5 34q4 28 11.5 54
t18.5 52q14 35 30.5 67t36.5 63q1 2 4 5q-2 -4 -3.5 -7.5t-3.5 -7.5q1 -1 2 -1q1 2 1.5 2.5t1.5 2.5q14 25 30 47.5t34 45.5q2 2 5.5 4.5t7.5 5.5q-51 -66 -89.5 -137t-64.5 -150h2q1 2 2 4.5t2 4.5q3 8 5.5 15t4.5 14q5 13 10.5 25t10.5 25q8 16 15.5 31.5t16.5 30.5
q10 17 19.5 34t20.5 33t22 31t22 29q11 13 22 25l22 24q35 36 77 65q4 2 7.5 4.5t8.5 4.5q3 2 9 2v-1q-1 -1 -2 -1.5t-3 -2.5v-1q4 2 7 2q4 2 8.5 -1t5.5 -7q0 -2 3 -5zM226 213q-25 -13 -47.5 -29t-43.5 -33q-17 -14 -32.5 -29t-29.5 -32q-10 -11 -18 -23t-13 -26
q-4 -14 -1 -26q2 -6 -3 -7v-2h11l12 4t11 5q26 11 48 27.5t42 35.5q19 17 34 36.5t29 39.5q16 26 23 49q2 5 2 8.5v8.5l-1 1l-12 -4t-11 -4z" />
    <glyph glyph-name="seven" unicode="7" horiz-adv-x="271" 
d="M40 -57q-6 0 -11 0.5t-10 3.5q-11 6 -22 13.5t-19 17t-11.5 21.5t1.5 26q5 20 12.5 38t15.5 36q18 38 39.5 74.5t44.5 72.5l2 4q3 6 -4 6l-90 -9q-5 -1 -9.5 1.5t-9.5 5.5q2 1 2.5 1.5t2.5 1.5h-11l-2 4t3 6l105 9q6 0 12 0.5t12 0.5q4 1 6.5 2t4.5 5q5 8 22 34t37 54.5
t38 52t24 26.5q6 8 11.5 15t12.5 14l8 8t6 9l2 3q-2 -1 -3 -1t-2 -1q-80 -37 -151 -90q-6 -5 -9.5 -7t-8.5 -4q-10 2 -18 11.5t-5 15.5q2 2 4.5 3.5t4.5 3.5q66 44 139 82q15 8 30.5 15.5t30.5 15.5q7 4 19 7q6 1 10 -4q1 -1 1.5 -1t1.5 -1q4 -4 8.5 -7t6.5 -7q4 -7 4 -18
q2 -20 -7 -36q-26 -53 -61.5 -99.5t-68.5 -94.5q12 -2 24 -1t24 1q4 0 14 -2q-2 -1 -2 -1.5t-1 -1.5q5 -3 9 -5.5t8 -5.5v-1q-2 -1 -5 -1q-20 -1 -38.5 -1.5t-37.5 -0.5q-11 -1 -16 -9q-29 -42 -55.5 -83t-50.5 -84q-12 -21 -23 -42t-19 -44q-2 -5 -3 -11t-3 -11q-2 -7 5 -7
q20 -13 24 -19t-5 -10zM270 509q-5 -1 -22.5 -10t-38 -20.5t-37 -21t-18.5 -12.5q29 16 58 31.5t58 32.5zM258 485h1q3 3 9 11l-1 1z" />
    <glyph glyph-name="eight" unicode="8" horiz-adv-x="293" 
d="M317 508q1 -13 1.5 -26t-3.5 -25q-4 -10 -7 -19l-6 -18h-1q4 13 8 25t6 26h-1q-1 -1 -1 -2t-1 -2q-15 -46 -34.5 -89.5t-42.5 -86.5q-5 -8 -10 -16.5t-10 -17.5q-2 -3 1 -6q18 -14 25.5 -28t12.5 -27q3 -10 2.5 -21.5t-1.5 -22.5q-3 -17 -14 -35q-9 -17 -28 -38t-52 -45
t-59 -41t-47 -26.5t-38.5 -11.5t-34.5 4q-1 0 -1.5 0.5t-1.5 0.5l-8 6l-8 6q-1 1 -2 1.5t-2 1.5q-13 14 -20 31t-5 37q2 26 11 49.5t21 46.5q11 20 23.5 39t26.5 37q10 15 23 29q8 9 17 17.5t17 17.5q3 3 2 6q-14 23 -13 45t13 45q11 19 24 36t28 34q24 28 52 51t57 44
q4 4 12.5 8.5t17.5 7.5t16.5 4t10.5 -2q5 -5 8 -9t7 -9q2 -4 4 -10q4 -13 5 -22zM-7 61q-2 -5 -4.5 -11t-4.5 -12h1q15 35 34 67t41 63v-3q-5 -8 -10.5 -17t-10.5 -17q-13 -22 -25 -43.5t-21 -44.5l-4 -12l-4 -12q1 0 1 -1q4 1 10 3q7 4 13.5 7t13.5 7q42 26 80.5 55.5
t73.5 64.5q19 19 30 40q4 7 -4 10l-39 12q-14 4 -26.5 9t-23.5 14q-4 3 -5 3t-5 -4q-19 -21 -35.5 -44t-30.5 -47q-4 -6 -6.5 -12.5t-5.5 -12.5q-8 -16 -16.5 -31t-16.5 -31zM213 256q5 8 10 19q-3 -5 -6 -9t-5 -9zM271 481q2 7 3.5 13.5t3.5 13.5q-1 0 -1 1q-5 -2 -10 -3.5
t-9 -4.5q-25 -15 -46.5 -36t-41.5 -41q-3 -3 -5.5 -6t-5.5 -6l1 -1q1 2 2 2.5t3 2.5q-8 -11 -16 -21t-16 -21q-10 -13 -17.5 -27t-11.5 -30v-4q0 1 1 1q4 6 7.5 12.5t7.5 13.5l1 -1l-3 -6q-3 -7 -6 -13.5t-5 -13.5q-3 -7 4 -9q14 -5 29 -10.5t30 -10.5q4 -1 7 3
q8 14 15 26.5t14 26.5q18 36 34.5 73t30.5 76z" />
    <glyph glyph-name="nine" unicode="9" horiz-adv-x="278" 
d="M343 506q4 -4 1 -11l-27 -54q-3 -4 -4 -8q-33 -87 -63 -171q-13 -36 -26.5 -74.5t-26 -76.5t-23.5 -74t-18 -66q-8 -3 -8.5 -3.5t-3.5 -0.5q-5 0 -6 3t-1 7q2 10 3.5 19.5t3.5 19.5q5 17 9 33t8 33q1 1 0 4q-3 -14 -7 -22l-15 -66q-2 -6 -2 -12t-2 -11q-1 -4 -3 -4t-5 -2
q-3 0 -6 1t-4 6q-1 14 2 30q6 34 14 66.5t17 64.5q11 42 22 82.5t22 82.5q1 1 1 2q-3 -3 -12.5 -14t-23.5 -21.5t-31 -17t-35 -1.5q-4 0 -8 1.5t-8 3.5q-7 3 -14 7t-15 7q-11 5 -17 14t-8 21q-3 13 -2 25.5t3 25.5q9 54 43 92q11 11 22.5 18.5t27.5 9.5q47 5 76 -35
q4 -5 8 -9t7 -9q3 -4 6 -1q8 12 17 23.5t17 23.5q11 16 19.5 33t18.5 34q4 5 6 10.5t10 2.5q13 -5 16 -11.5t11 -15.5q3 -4 6.5 -7.5zM50 369q-3 -12 -5.5 -24t-0.5 -25q2 12 3 24t3 25zM50 336q2 2 2 4q5 29 17 53t34 42q10 7 22 14l10 4l10 4q-3 1 -5.5 2t-4.5 1
q-5 -1 -10.5 -2t-10.5 -3q-13 -8 -23 -18q-16 -18 -26 -42q-5 -12 -8.5 -24t-5.5 -25q-1 -2 -0.5 -4.5t-0.5 -5.5zM56 303q0 2 0.5 3t-0.5 3q0 13 4 28q3 13 10 30t21 36q5 8 11 16q11 14 30 25q12 8 9.5 5.5t-6.5 -4.5l10 2l10 2q-4 5 -14 3l-8 -2t-8 -3q-14 -6 -23 -15.5
t-17 -21.5q-31 -47 -30 -103v-4h1zM168 421q1 5 0.5 8.5t-1.5 8.5q0 7 -9 8q-12 2 -23 -3h-3q-7 -4 -13 -10q-6 -5 -12.5 -12.5t-12.5 -18.5q-14 -21 -24.5 -49.5t-12.5 -43.5l3 -18q0 -9 7 -5q10 3 18 9q14 12 27.5 24.5t27.5 24.5q2 2 3.5 3t2.5 2l2 -1q-6 -4 -9 -7
q1 0 3 -1q6 8 13 15t14 15q2 2 1 4.5t0 4.5q0 1 -1 1.5t-1 1.5q-1 10 -1.5 19.5t1.5 19.5zM133 -17q0 2 1.5 9t-0.5 8q0 -4 -0.5 -8t-0.5 -9zM163 39v-1q-2 -5 -3 -9.5t-3 -9.5zM174 87q1 3 2 6.5t1 7.5h-1q-1 -4 -1.5 -7t-0.5 -7l-1 -1v-1l-3 -3q-1 -5 -3 -13
q-5 -23 -11 -44.5t-11 -44.5q0 -3 -1 -4q1 1 3 4q2 8 3 16t3 16q5 18 10 36.5t10 36.5v1zM221 269q-2 -7 -4 -13t-4 -13q-6 -21 -12.5 -42.5t-12.5 -42.5q-5 -15 -8.5 -29.5t-8.5 -29.5q-3 -12 -6.5 -24t-6.5 -24q-2 -8 -4.5 -15.5t-4.5 -15.5q-2 -11 -4 -21.5t-4 -21.5
q0 -2 1 -3q14 64 32 127l36 126zM305 432q0 3 2 5l-2 -1q-1 -1 -4 -8.5l-5 -12.5v-2v2z" />
    <glyph glyph-name="colon" unicode=":" horiz-adv-x="153" 
d="M72 143q-3 -3 -9.5 -2t-13 4t-13.5 7.5t-11 7.5q-5 4 -7 5.5t0 8.5q1 6 3.5 12t4.5 11q5 6 9.5 7t8 -0.5t6.5 -5t5 -4.5q3 -2 5.5 -4t4.5 -4l5 -5l8 -8q1 0 1 -4q-2 -7 -3.5 -13t-3.5 -13zM121 296q-3 -3 -9.5 -2t-13 4t-13.5 7.5t-11 7.5q-5 4 -7 5.5t0 8.5q1 6 3.5 12
t4.5 11q5 6 9.5 7t8 -0.5t6.5 -5t5 -4.5q3 -2 5.5 -4t4.5 -4l5 -5l8 -8q1 0 1 -4q-2 -7 -3.5 -13t-3.5 -13z" />
    <glyph glyph-name="semicolon" unicode=";" horiz-adv-x="137" 
d="M14 34q4 11 8 20.5t8 20.5h-2q-2 -7 -5 -13t-5 -13l-12 -32t-12 -33q-5 -1 -12.5 -3t-21.5 9v5q4 12 7 24t8 24q8 21 16.5 42t16.5 43l4 14t5 14q3 3 7.5 12.5t12.5 7.5q1 0 3.5 -4.5t2.5 -6.5q4 -2 5 0t3 4q5 -1 7.5 -5t5.5 -7q1 -1 0.5 -2.5t-0.5 -3.5
q-7 -15 -13.5 -30.5t-12.5 -31.5q-5 -13 -10.5 -25.5t-10.5 -26.5q-1 -1 -1 -1.5t-1 -1.5h-1zM99 265q-3 -3 -9.5 -2t-13 4t-13.5 7.5t-11 7.5q-5 4 -7 5.5t0 8.5q1 6 3.5 12t4.5 11q5 6 9.5 7t8 -0.5t6.5 -5t5 -4.5q3 -2 5.5 -4t4.5 -4l5 -5l8 -8q1 0 1 -4q-2 -7 -3.5 -13
t-3.5 -13z" />
    <glyph glyph-name="less" unicode="&#x3c;" horiz-adv-x="340" 
d="M356 380q2 -8 -2 -14q-1 -1 -14 -8t-33.5 -17.5t-46 -24t-52.5 -27.5q-62 -33 -142 -73q3 -3 4 -5q39 -32 78.5 -61.5t79.5 -60.5q3 -2 5 -4t2 -7q-4 0 -2 -4q0 -1 -0.5 -1t-0.5 -1v-1q-6 -3 -5.5 -4.5t2.5 -4.5q-2 -2 -2.5 -1.5t-4.5 2.5l4.5 -4.5t2.5 -3.5l-1 -1
q-42 29 -83 57.5t-83 57.5l-1 -1q1 -1 2 -1.5t2 -1.5q1 0 2 -1l143 -101q-8 -3 -9.5 -2.5t-6.5 2.5q-2 1 -23.5 15.5t-46.5 31.5q-29 20 -65 45q-7 5 -13 8.5t-11 10.5q-2 2 -2 4q-2 8 -3 14.5t-3 14.5l-2 6q-8 15 -4.5 26.5t12.5 22.5q8 8 17.5 15t19.5 12q30 17 59.5 33
t60.5 31q33 17 66.5 32.5t67.5 32.5q4 2 7 2t4 -1q1 0 1.5 -0.5t1.5 -0.5q2 2 5 2q0 -2 -1 -2q2 -1 3.5 -1t1.5 -2q1 -3 2 -7q2 -7 -1 -10q-2 -1 -15.5 -8t-35.5 -18l-131 -69q13 6 26 13q5 3 11 5t12 5q6 2 11.5 5t11.5 5q25 14 50 26.5t51 24.5q1 1 1.5 1t1.5 1q0 -1 1 -1
q-5 -4 -10.5 -7.5t-11.5 -6.5q-29 -15 -59 -29.5t-59 -29.5t-58.5 -30.5t-58.5 -31.5q-3 -2 -5.5 -3.5t-4.5 -3.5q41 23 82.5 44t84.5 41l111 59zM98 265q5 4 10.5 7t11.5 7l-54 -29q-3 -2 -6 -5t-6 -5h1l22 12t21 13z" />
    <glyph glyph-name="equal" unicode="=" horiz-adv-x="310" 
d="M285 279v-3q-10 0 -19.5 0.5t-18.5 -0.5q-26 -2 -50.5 -3.5t-50.5 -3.5q-20 -2 -40.5 -3.5t-40.5 -3.5h-7q-9 2 -11 7q-1 3 -7 9q10 3 7 13q0 1 0.5 1.5t0.5 2.5q0 1 -0.5 2t-0.5 3v5q-1 0 -2 1q-3 3 -4 5q2 1 3.5 2.5t3.5 1.5q5 1 9 1.5t9 0.5q45 1 89 2t89 2
q5 0 9.5 -0.5t9.5 0.5q7 0 12 -3t11 -5l2 -2q2 -3 2 -6t2 -6q1 -1 -1 -7q0 -2 -0.5 -3.5t-0.5 -3.5q1 -4 0.5 -4.5t-5.5 -1.5zM258 197q0 -1 0.5 -1.5t0.5 -1.5q-10 0 -19.5 0.5t-19.5 -0.5q-25 -2 -50 -3.5t-51 -3.5q-20 -2 -40.5 -3.5t-40.5 -3.5h-7q-8 2 -10 7l-4 4t-4 5
q10 2 8 13v3q0 2 -0.5 3t-0.5 3v4q0 1 -0.5 1t-0.5 1q-2 1 -2.5 2t-2.5 3q2 1 3.5 2.5t3.5 1.5q5 1 9 1.5t9 0.5q45 1 89 2t89 2q5 0 10 -0.5t10 0.5q6 0 11.5 -3t10.5 -5q2 0 2 -2q2 -3 2.5 -6t2.5 -6q1 -1 0 -3t-1 -4q-2 -4 -2 -7q1 -4 0.5 -4.5t-5.5 -1.5z" />
    <glyph glyph-name="greater" unicode="&#x3e;" horiz-adv-x="297" 
d="M33 83q4 2 7 4.5t6 4.5v1q-11 -7 -21 -14t-21 -15l-1 1q7 5 14 10.5t14 10.5q0 1 -1 1l-2 -1q-17 -12 -33.5 -24t-33.5 -24q-2 -1 -3 -1t-3 -1l-2 2q2 5 5 9.5t5 9.5q0 -1 1 -1h-7q-4 0 -5 -1q-3 -1 -6 -2.5t-6 -3.5l-1 1q2 2 2.5 5t2.5 5q1 1 1.5 1t1.5 1q3 5 -2 8
q-4 2 -6 4q7 6 13.5 12t13.5 11q17 13 34.5 25.5t34.5 26.5q25 18 49.5 36.5t49.5 35.5q22 16 44 31.5t45 30.5q4 4 6 5q6 4 -1 7t-14 6.5t-15 6.5q-14 5 -28 9.5t-28 9.5q-4 2 -7.5 3.5t-7.5 3.5v1h2q1 0 1 1q-4 4 -7 8t-8 8q-1 2 -2.5 2.5t-3.5 2.5q-5 4 -1 8q2 2 2.5 3
t2.5 3q2 5 -4 11q-2 3 0 6t5 3t4 -1q22 -5 43 -11t41 -15q13 -5 25.5 -12t25.5 -15q5 -3 9 -7l9 -9q3 -5 5 -9.5t2 -10.5q1 -7 2.5 -13t-0.5 -14t-4.5 -16t-8.5 -15q-11 -13 -24.5 -22.5t-27.5 -19.5q-35 -23 -71 -46.5t-71 -46.5q-9 -5 -18 -11l-18 -12q-1 -1 -2 -1.5
t-2 -1.5q0 1 -1 1zM181 319v2q-5 2 -9.5 3t-9.5 3l-1 -1q5 -2 10 -3.5t10 -3.5z" />
    <glyph glyph-name="at" unicode="@" horiz-adv-x="595" 
d="M616 444q2 -11 1.5 -23t-3.5 -23q-2 -5 -2 -10t-2 -10q-6 -22 -16 -41t-23 -38q-40 -59 -95 -108q-4 -4 -8.5 -7t-8.5 -7q-11 -11 -24 -18t-27 -12q-20 -8 -36 3q-9 6 -18 11l-18 10q-14 7 -17 20l-1 2q-4 -2 -12 -8q-14 -8 -27.5 -16.5t-27.5 -16.5l-8 -4t-9 -3
q-10 -3 -20 -2q2 0 4.5 0.5t4.5 0.5l-9 -1l-8 2q-6 4 -13 7.5t-14 7.5q-6 4 -10 6q-11 5 -15.5 13.5t-5.5 19.5q0 21 9 39q35 75 106 115q8 5 17 8t19 4q31 3 50 -23l4 -6t4 -5q5 -6 7.5 -12t1.5 -14v-10q0 2 -0.5 3.5t-0.5 3.5h-1v-7q0 -4 -1 -6q-1 -7 4 -12q3 -3 3 -6
q0 -8 4 -12l9 -9q1 0 1 -0.5t1 -0.5q9 -3 6 -11q-4 -13 -11 -28q-4 -7 -5 -14q23 11 42 26t37 31q0 -1 -2 -3q-1 -2 -1.5 -2t-1.5 -2q1 0 2 1q29 28 54 59.5t45 66.5q11 19 18 38t10 40q2 14 0 27.5t-9 26.5q-6 10 -15 16q-8 4 -15.5 7.5t-15.5 7.5q-21 11 -44.5 13t-46.5 1
q-44 -1 -89 -14q-2 0 -3 -0.5t-3 -0.5q2 1 8 3q26 7 53 11t54 4h17q-2 1 -7 1q-2 0 -3.5 0.5t-3.5 0.5q2 0 4 0.5t4 0.5l-1 1q-53 2 -102 -9.5t-97 -35.5q-47 -25 -85.5 -58.5t-67.5 -78.5q-14 -20 -26.5 -48t-21.5 -55.5t-13.5 -52t-2.5 -37.5q3 34 12 67q20 76 64 136
q5 7 10 12.5t10 12.5q-2 -4 -4.5 -7t-4.5 -6q-23 -28 -39 -59t-27 -64t-15.5 -66t-2.5 -68q0 -3 1 -5.5t2 -5.5q0 -3 0.5 -5.5t1.5 -5.5q3 -29 17 -59q2 -4 9 -11q-1 2 -1 3.5t-1 3.5q-12 30 -16 61.5t-2 63.5q9 98 62 181q12 20 27.5 37.5t32.5 33.5h2q-2 -2 -3 -2.5
t-2 -2.5q-54 -53 -82 -116.5t-34 -138.5q-2 -26 0.5 -51t10.5 -49q7 -23 23 -46q9 -14 21.5 -20.5t28.5 -8.5q30 -4 59 0t58 15q27 10 52 23.5t50 27.5q17 10 34 19.5t34 19.5q2 2 5 2.5t5 1.5l1.5 -3l1.5 -3q-11 -8 -24 -16q1 -1 1 -2l9 5q4 2 8 4.5t8 4.5l1 -1l6 -18
l-83 -48q-41 -26 -74.5 -39t-58.5 -18q-29 -6 -52 -4q-29 3 -56 15q-17 8 -32.5 17t-29.5 21q-35 33 -49 82q-9 30 -10.5 60t2.5 60q5 38 17 73t31 69q43 81 120 136q67 49 146 68q23 6 46.5 9.5t47.5 3.5q29 1 55.5 -3.5t51.5 -17.5q44 -22 69 -67q7 -12 12 -24t7 -26z
M211 482q115 81 254 78q-2 1 -4.5 2t-5.5 2q-4 1 -14 1q-9 -1 -18.5 -0.5t-19.5 -1.5q-18 -2 -36 -4.5t-35 -7.5q-33 -9 -63 -24q-44 -20 -80 -49t-66 -66q-11 -14 -19 -28l-16 -28q-8 -15 -14 -30.5t-12 -30.5q-3 -7 -5 -13.5t-4 -13.5l1 -1q42 136 157 215zM173 203
q1 -1 2 -1q5 20 18 39q13 20 27.5 37.5t33.5 32.5q16 12 32 22t36 14h1l2 1q-2 1 -3 2t-2 1q-5 1 -9 1.5t-7 -0.5q-12 -4 -24 -10q-16 -9 -29.5 -20.5t-25.5 -25.5q-14 -15 -25 -31t-19 -36q-2 -6 -4 -12.5t-4 -13.5zM202 160q1 -3 3.5 -2.5t4.5 0.5q8 2 14.5 4.5t13.5 6.5
q20 10 38 22.5t35 25.5q7 5 7 16q-2 -2 -2.5 -2t-1.5 -1q-14 -9 -27 -19t-27 -18q-13 -8 -26 -14.5t-26 -13.5q-2 -2 -4.5 -2t-1.5 -3zM241 160q14 6 32.5 17.5t42.5 31.5q-2 -2 -6 -4q2 3 5 5t1 7q-4 -3 -7 -5l-6 -4q-16 -11 -32 -22.5t-34 -19.5q-7 -4 -14 -6l-14 -4
l-3 -3q2 -2 3 -2q2 0 3 0.5t3 0.5q11 2 20.5 6.5t18.5 9.5q-6 -5 -13 -8zM246 151l9 4q-2 -1 -4.5 -2t-4.5 -2zM256 156q2 2 5 3t5 3q6 4 12.5 7.5t12.5 8.5zM324 279q4 12 6 24t1 24q0 7 -3 15q0 3 -3 3q-5 0 -8 -1q-10 -2 -19 -6.5t-18 -9.5q-21 -14 -38.5 -32t-32.5 -38
q-8 -11 -14.5 -22.5t-11.5 -25.5t-4 -25q5 25 18 44q-2 -3 -3 -5.5t-3 -5.5q-3 -8 -5.5 -16t-3.5 -16q0 -8 6 -5q8 2 14.5 4.5t13.5 6.5q20 11 38.5 23.5t34.5 29.5q7 8 14.5 13.5t15.5 11.5q4 6 5 9zM355 200q2 5 3 9l2 8l-2 1q-1 -5 -2 -9l-2 -8zM367 223q-4 -4 -7.5 -15
t-1.5 -15q2 8 4.5 15t4.5 15zM374 229q-5 -4 -9.5 -19t-2.5 -21q3 11 6 20t6 20zM366 192q6 15 10 33h-1q-2 -8 -5 -16l-6 -16q1 -1 2 -1zM381 169q-1 -1 -1.5 -2t-2.5 -2q4 -2 6 -2q5 2 10 3.5t10 3.5q21 10 38.5 24t33.5 30q46 43 80 95q4 6 7.5 11.5t6.5 11.5l-1 1
q0 -1 -1 -1q-8 -13 -15.5 -25.5t-20.5 -21.5q-3 -3 -6 -7l-6 -8l-16 -18t-16 -17q-13 -13 -26 -23q-24 -19 -47 -35q-8 -5 -15.5 -10.5t-17.5 -7.5zM380 155h5q4 2 12 4q13 5 24 11.5t22 14.5q41 30 76 72q22 26 40.5 53t32.5 58q3 9 6 17.5t6 16.5q-1 0 -2 1q0 -1 -1 -1
q-8 -29 -22.5 -54t-31.5 -49q-19 -26 -40.5 -50t-47.5 -45q-17 -13 -34 -24.5t-37 -19.5q-2 -1 -4 -1.5t-4 -1.5v-2zM588 337q12 23 20.5 47.5t6.5 51.5q-2 -25 -9 -47.5t-19 -44.5q3 8 6.5 16t6.5 16q6 15 9 32l-2 -2q-5 -20 -12.5 -37.5t-17.5 -34.5q-28 -47 -65 -87
q-28 -30 -59 -55.5t-71 -41.5q2 0 3.5 -0.5t2.5 -0.5q6 2 12.5 3t11.5 3q12 4 22.5 10.5t20.5 14.5q25 18 46 39t41 45q17 22 32.5 45t26.5 49l9 21h-1q-5 -11 -10 -21.5t-10 -21.5q0 1 -1 1z" />
    <glyph glyph-name="bracketleft" unicode="[" horiz-adv-x="188" 
d="M95 209q-3 -3 -3 -2q-6 -22 -12 -43.5t-11 -43.5q-5 -18 -10 -37t-10 -37q-5 -16 -8 -31l-6 -30q-3 -11 -7.5 -31t-8.5 -41t-7.5 -40.5t-4.5 -29.5q-2 -9 -2 -17.5t-1 -16.5q0 -2 -2 -10q4 1 9 1q20 3 39.5 7t39.5 7q10 2 19 2.5t19 -1.5l18 -6q8 -3 4 -8q5 -2 8.5 -4
t5.5 -7q-1 0 -1 -0.5t-1 -0.5q-10 2 -20 1t-18 -3q-24 -5 -47 -10l-46 -10q-8 -2 -15.5 -5t-15.5 -6q-2 1 -4 1q-4 0 -4 1q-7 2 -18.5 6.5t-13.5 9.5l-2.5 2.5t-2.5 3.5q0 5 -2 13q-5 45 0.5 89.5t15.5 86.5q7 32 14 63.5t13 63.5q2 14 3.5 27t6.5 27q12 51 24 100t24 100
q17 64 40 128.5t46 116.5q13 29 30.5 59t33.5 59v1q7 11 12.5 19.5t21.5 1.5q5 -2 16.5 -0.5t20.5 1.5h26.5t26.5 -2q-8 0 -12 -1v-1q3 1 9 1q6 1 13 -2q5 -3 5 -7.5t-5 -4.5q-4 0 -9.5 -1.5t-8.5 -2.5q-11 -1 -20.5 -3t-20.5 -2h13l2 -1q-7 -2 -13 -2h-12q-8 0 -3 -5
q5 -2 2 -8l-4 -8q-5 -11 -8 -22t-8 -22q-8 -17 -15 -34t-15 -34q-2 0 0 -2q8 15 14 30t12 29h2q0 -1 -0.5 -1t-0.5 -2q-3 -16 -9 -31.5t-13 -31.5q-2 -11 -6 -20t-9 -19q-14 -43 -28.5 -85t-29.5 -84q-9 -28 -18.5 -56t-18.5 -57q-5 -18 -10 -35.5t-11 -34.5q0 -1 -1 -2
q2 8 2 13q12 39 23 78t22 79q15 55 34 108q5 15 11 30t11 29q1 2 0 5v-2q-13 -33 -25 -66t-23 -67q-20 -58 -36 -116.5t-32 -117.5q-9 -38 -18.5 -74.5t-18.5 -74.5v-2q11 54 25 107.5t28 107.5q2 6 3 11.5t3 10.5l-1 1q-2 -5 -3 -8.5t-1 -7.5q-2 -4 0 -7zM246 660h2
q5 15 14 32l-2 1q-4 -8 -7.5 -16t-6.5 -17zM-4 -201q1 0 2 -0.5t2 -0.5v35h-1q0 -18 -3 -34zM-42 -210q0 5 -0.5 10t-0.5 10zM102 245h1q2 3 2.5 6t2.5 7h-1q-1 -3 -2 -6.5t-3 -6.5zM5 -244q13 5 23 8l1 -1q-6 -2 -11.5 -4.5t-11.5 -4.5z" />
    <glyph glyph-name="backslash" unicode="\" horiz-adv-x="302" 
d="M287 -241q-4 6 -5 10q-2 7 -3 13t-3 13q0 1 -2 3q1 -16 8 -31l-3 -6q-4 3 -8 5q-1 -1 -1 -3t-3 0q-1 -2 -1 -2.5t-1 -2.5q-4 2 -5 3q-2 2 -3.5 2t-3.5 1q-2 2 -3 4q-2 5 -3 10.5t-3 11.5q-5 29 -9.5 58t-9.5 58l-9 57h-1q4 -25 7.5 -50t7.5 -50q-17 103 -30 205.5
t-27 205.5h-2q6 -52 12 -104.5t13 -104.5l-1 -1q-7 51 -13.5 101t-13.5 101h-1q0 -4 1 -6l-1 -1q-2 8 -2.5 15t-2.5 14q-6 41 -10 80.5t-7 81.5q-4 44 -7.5 87t-6.5 87q-2 25 -3.5 49.5t-3.5 49.5v6.5t-1 6.5q0 2 3.5 5t7.5 2q10 -1 16 -10q1 -1 1.5 -2t2.5 -2q6 -3 10 -10
q7 -12 10 -24.5t5 -26.5q2 -19 5 -51.5t7 -70.5t7.5 -78t7 -74t6 -58t3.5 -31q3 -33 8.5 -78.5t11.5 -97t12.5 -104t13 -99t12 -82.5t9.5 -54q1 -7 2.5 -13.5t3.5 -12.5q1 -1 1 -4q-1 0 -1 -0.5t-1 -0.5z" />
    <glyph glyph-name="bracketright" unicode="]" horiz-adv-x="188" 
d="M286 699q6 -10 1 -19q-3 -6 -6 -15l-10 -24t-10 -25q-1 0 0 -1h1q4 10 8 19.5t8 19.5h1q-1 -4 -2 -7t-3 -7q-5 -14 -10 -27.5t-11 -27.5q-5 -15 -10.5 -29.5t-11.5 -28.5q-16 -39 -30.5 -78t-28.5 -78q0 -1 -5.5 -20t-15 -50.5t-21.5 -73t-25.5 -87t-27 -92.5t-25.5 -89
q-1 -4 -1.5 -7t-0.5 -6q0 -1 -2 -3l-33 -142q-3 -19 -4 -31.5t-6 -12.5q-2 0 -3.5 -2t-3.5 -1t-7 1q-18 1 -36 1t-36 2q-10 0 -20 -0.5t-20 -2.5q-5 0 -8 -1q-2 0 -3 2v5.5v10t-0.5 10t-1.5 4.5q0 7 3.5 8t6.5 2q30 8 64 9h11.5t12.5 1q7 2 10 6q2 16 4.5 31.5t5.5 31.5
q6 23 11 47t10 47q4 17 9 35t10 35q6 25 12.5 50t13.5 50q6 22 12 43t12 43q3 9 5.5 18t4.5 18q1 1 0 3l-2 -6l-2 -6q-3 -12 -6.5 -24.5t-7.5 -25.5q-1 -2 -2.5 -4.5t-2.5 -5.5q-5 -20 -11 -39t-11 -38q-5 -20 -11 -40t-11 -41q-1 -2 -2.5 -3.5t-2.5 -3.5q-3 -13 -6.5 -25.5
t-6.5 -25.5q-1 -6 -5.5 -24.5t-10 -40t-10 -40t-6.5 -23.5q1 2 4.5 17.5t8 33.5t8.5 33.5t4 18.5q11 49 22.5 96.5t23.5 95.5q12 44 24 86.5t25 86.5q29 94 63 182q10 26 20.5 52.5t21.5 52.5q9 19 18.5 37.5t19.5 38.5q2 2 2 4t1 5q-11 1 -22 1.5t-22 0.5v1h43v1h-50v1h7v1
q-16 0 -31.5 -0.5t-31.5 -0.5h7v1q-5 -1 -9.5 -1t-9.5 -1q-4 0 -10 2q-4 2 -1 11t1 14q2 8 8 8q30 8 62.5 8t63.5 2q15 0 26.5 -3t15.5 -23q2 -6 6 -12z" />
    <glyph glyph-name="asciicircum" unicode="^" horiz-adv-x="289" 
d="M45 378q-1 1 -3 2.5t-2.5 3.5t1 5.5t6.5 8.5q20 20 38 41q49 57 98 113t98 113q7 8 13.5 15.5t12.5 15.5q3 2 6 5t7 1q2 -2 7 -6.5t9.5 -10t7 -11.5t0.5 -10q2 -3 1 -4q-5 -9 -10 -16q-11 -14 -15 -30q-8 -25 -12 -49.5t-7 -50.5q-2 -13 -3 -26l-2 -26v-9t1 -9
q0 -2 1 -3.5t2 -3.5q5 -7 5 -12q0 -3 -6.5 -4.5t-14.5 6.5q-8 9 -10.5 19t-3.5 21q-1 27 1.5 53t6.5 52q2 9 2.5 17.5t2.5 17.5q0 3 -1 4l-9 -9q-20 -23 -39 -45.5t-39 -45.5q-18 -21 -36 -42.5t-37 -42.5l-22 -24l-22 -24q-2 -2 -6 -8q-1 -2 -2.5 -3t-3.5 3q-1 1 -2.5 0.5
t-3.5 -0.5q-6 -2 -8.5 0.5t-6.5 7.5zM158 512l1 -1q38 44 75 87t73 88q-38 -44 -75 -87t-74 -87z" />
    <glyph glyph-name="underscore" unicode="_" horiz-adv-x="407" 
d="M354 159q9 -6 4 -11q-60 -3 -118.5 -8.5t-118.5 -10.5v-1q12 0 24 0.5t23 1.5q1 0 1 -1l188 14l1 -1l2 -6v-2h-1q-2 -2 -10.5 -3.5t-17.5 -2.5q-11 -1 -23 -1q-17 -2 -33.5 -3t-33.5 -3q-32 -3 -63.5 -6t-63.5 -5q-25 -2 -49.5 -3t-48.5 -2h-6h-6v14h4q-1 5 -8 7
q-8 2 -10 2v6q2 0 3 0.5t2 0.5q0 5 -1 7q0 3 -3 3q-3 1 -6 1t-5 1t-2.5 2t-2.5 3q0 2 -1 3q-2 2 -1 4t4 2q9 3 20 3q36 3 72.5 6t73.5 5q16 1 31.5 1t31.5 1q23 1 46.5 2t46.5 1q11 1 20.5 0t20.5 -1v-2h-3v-1q3 -1 6 -1t6 -1v-6q1 -2 2.5 -2t3.5 -1t3.5 -1t3.5 -2
q-2 -1 -4 -1.5t-4 -1.5zM43 121v1h-29v-2q8 0 14.5 0.5t13.5 0.5h1z" />
    <glyph glyph-name="grave" unicode="`" horiz-adv-x="184" 
d="M196 666l-12 22l-12 22h-1q1 -2 1 -2.5t1 -2.5q4 -7 7.5 -14t7.5 -14q8 -15 14.5 -30.5t14.5 -30.5q11 -20 21 -39.5t21 -39.5q2 -2 2 -4.5t1 -5.5h-1l-7 7q-7 10 -14 -1l-1 -1q-2 3 -6 7q-7 14 -14 27t-15 26q-5 11 -10.5 21t-10.5 20q-2 3 -4 7l-1 -1l54 -105
q-4 8 -7.5 13.5t-6.5 11.5q-20 37 -40.5 74t-40.5 74q-2 4 -4.5 7.5t-4.5 6.5q-1 2 -1 6q2 0 3 0.5t3 0.5q1 0 2 2.5t1 3.5q2 -1 4.5 -2t5.5 -3q2 -1 2.5 -2t2.5 -3q4 3 6.5 1t5.5 -4l3 3q2 -2 4 -3t4 -3q3 -2 1 -6q0 -3 1 -5q5 -9 9.5 -18l9.5 -19l2 -4h-1z" />
    <glyph glyph-name="braceleft" unicode="{" horiz-adv-x="233" 
d="M105 212q-2 -2 -2 -4v-2q0 -2 0.5 -4.5t0.5 -5.5q3 7 6.5 13t6.5 12l-1 1h-4q-6 0 -9 1q-1 0 -2 0.5t-3 -0.5q-6 -1 -12 -1h-12q-5 0 -8 2t-7 4q-3 2 -5 2.5t-4 1.5q-8 3 -12 9l-7 7t-7 6q0 1 -3 2q-2 6 -2 9q0 1 1 1.5t1 1.5q2 2 4 5t4 5q-1 0 -2 1l-3 -3l-3 -3h-1
q1 2 1.5 2.5t1.5 2.5q11 13 29 24q16 12 33.5 21.5t34.5 18.5q3 1 5.5 2t5.5 3q9 6 12 16q8 27 18.5 52t22.5 51q12 27 24.5 54.5t25.5 55.5q5 12 10.5 24t11.5 24q2 2 2 5t4 2q2 0 2 3q10 20 18 41l16 42q2 6 5 12t5 12q2 2 3 4t4 3q5 0 7 -1q9 -7 13 -15q0 -7 -5 -12
q0 -1 -0.5 -1.5t-0.5 -1.5q-2 -4 -2.5 -7.5t-2.5 -7.5q-8 -23 -17 -46.5t-20 -46.5q-16 -38 -33 -75t-33 -74q-10 -21 -19 -42.5t-18 -43.5q-3 -8 -6 -16.5t-5 -17.5q-1 -5 -4 -8t-7 -6l-6 -6t-7 -5q-13 -7 -25 -14.5t-25 -13.5q-9 -5 -18 -10.5t-18 -10.5q-2 -2 -4.5 -4
t-6.5 -4q9 -3 17 4q11 9 24 17t27 16q9 5 19 10t19 10q5 2 9 4t6 7q2 4 4 12q5 13 9 26.5t9 25.5q8 17 15 33t15 32q8 21 17 42t20 42q7 15 14 29.5t12 29.5q2 5 5 8.5t5 8.5q8 19 15.5 37t14.5 36l2 2q-1 -2 -1 -4q-8 -21 -15 -42t-15 -42q-6 -19 -14 -37t-16 -37
q-5 -12 -10 -26q-11 -24 -21 -47.5t-21 -47.5l-4 -4q3 5 4 9.5t3 9.5l-1 1q1 -1 -1 -3q-11 -23 -19.5 -45t-15.5 -45q-5 -14 -15 -20q13 5 16 16q2 -8 -4 -14q-4 -3 -10 -7q-14 -7 -26 -13.5t-24 -13.5q-8 -4 -14 -8t-14 -8q0 -2 -3 -3h5q6 0 12.5 0.5t11.5 0.5q6 0 11 -2
t12 -5l9.5 -9.5t6.5 -11.5l4 -4t3 -4q2 -5 4 -9t0 -9q-2 -7 -4.5 -13t-4.5 -13q-9 -26 -19 -51.5t-19 -51.5q0 -2 -2 -1q-2 -2 -2 -3q-15 -42 -21 -86q-8 -37 -12.5 -74t-5.5 -75q-1 -11 0 -22.5t1 -22.5q1 -8 3.5 -14.5t9.5 -13.5q1 0 3 -3q-5 0 -7.5 2t-5.5 5
q-11 -6 -20 3q0 1 -5 3q-9 2 -10 7q-2 5 -3.5 8.5t-3.5 7.5l-2 2q0 -4 2 -12h-1q-1 2 -1 2.5t-1 2.5q-3 13 -3.5 25t-1.5 23q0 25 2.5 48.5t4.5 46.5v6q0 2 -0.5 4.5t-0.5 4.5q3 16 5 31t6 32q2 10 4 19.5t4 20.5l-1 1q-1 -4 -5 -12q-2 -15 -4.5 -29t-4.5 -28q-1 -2 -2 -3.5
t-2 -3.5q-1 -1 -1 -4q-2 -8 -3.5 -16.5t-3.5 -16.5q0 3 1 5q2 28 5.5 55t8.5 55q5 21 11.5 42t14.5 42q4 15 12 34q6 14 14 28q2 3 8 9zM71 -156q1 -5 0 -8.5t-1 -8.5v-19t2 -19l2 -4l2 -4h1q-5 16 -4.5 31t-1.5 32zM81 229l1 -1q5 0 10.5 0.5t11.5 1.5q1 0 1.5 0.5t2.5 0.5
q0 1 -1 2q-7 -2 -13.5 -2.5t-12.5 -1.5zM46 -207q-1 8 -2 15.5t-3 15.5q0 -8 0.5 -15.5t4.5 -15.5zM152 169h1q2 7 4.5 14t4.5 14q-3 -8 -5.5 -14.5t-4.5 -13.5zM215 441q5 11 9.5 22t9.5 22q1 1 1 1.5t2 1.5q-8 -16 -12 -28l-4 -8l-4 -8q-2 -2 -2 -3zM173 333q5 18 10 32h1
q-2 -8 -4.5 -16t-4.5 -16h-2zM210 430q1 6 5 11q-1 -3 -2.5 -5.5t-2.5 -5.5z" />
    <glyph glyph-name="bar" unicode="|" horiz-adv-x="139" 
d="M-39 -237q-3 -2 -5 -3t-4 -3l-2 2t-2 3l-2 -4q-1 0 -1 1q-1 1 -3 6l-3 -3q-4 -4 -8 -1l-2 1q-7 1 -7 8q-3 7 -2 14l2 14q8 33 14.5 66t14.5 66q11 47 23 92.5t23 93.5q8 27 14 55.5t14 55.5q8 30 15.5 59.5t15.5 58.5q7 23 13 45.5t12 45.5q2 9 5.5 18.5t6.5 19.5
q11 29 21.5 58.5t21.5 58.5q12 30 25 60t25 60q2 6 4 11l4 10q1 3 5 9v-1q2 1 4 1q5 2 5 -3t4 -5q1 1 2 1.5t2 2.5q0 -4 2 -4.5t4 -1.5q2 -2 5 -3.5t2 -6.5q0 -1 2 -5q2 -5 0 -8q-2 -8 -2 -12q2 4 2.5 7.5t2.5 7.5v-1v-7l2 2v-4q-5 -15 -9 -29.5t-9 -29.5l-26 -74t-27 -75
q-1 -2 -1.5 -5.5t-2.5 -6.5q-9 -19 -14.5 -38.5t-11.5 -39.5q-5 -14 -8.5 -27t-8.5 -27q-2 -6 -3.5 -12.5t-3.5 -12.5l-15 -45q-6 -21 -11.5 -41.5t-11.5 -41.5q-9 -31 -17.5 -61.5t-16.5 -61.5q-11 -42 -22 -81.5t-20 -80.5q-7 -25 -13 -49.5t-12 -49.5q-3 -8 -5.5 -16.5
t-4.5 -17.5q-1 -4 -0.5 -7.5t-0.5 -7.5z" />
    <glyph glyph-name="braceright" unicode="}" horiz-adv-x="192" 
d="M38 -13q-1 0 -1 -3q-5 -20 -8.5 -38.5t-7.5 -37.5v-3h-1q1 8 2 17t3 17t3.5 17t3.5 17q2 9 3 17.5t3 16.5q2 9 4 17.5t4 16.5l-1 1q-2 -6 -3 -11.5t-2 -10.5q-5 -23 -9.5 -44.5t-9.5 -43.5q-5 -23 -8.5 -47t-8.5 -47q-6 -30 -5 -58q-1 -6 2 -14q0 -2 2 -6q1 -1 0 -1.5
t-1 -1.5q-1 1 -2 1q-6 4 -8 5q-4 0 -5 -3v-1q-3 1 -4 3.5t-3 4.5q-1 0 -1 -0.5t-1 -0.5q-4 5 -7.5 8.5t-3.5 8.5q1 7 -1 17q0 3 -4 6q-1 -7 -0.5 -13.5t1.5 -13.5h-1q0 2 -1 4t0 4q-2 13 -1.5 25.5t1.5 24.5q1 5 0.5 9t-0.5 9q2 10 2 15q2 17 4.5 32.5t4.5 32.5q5 30 8.5 60
t8.5 60q2 19 7.5 37.5t12.5 35.5q11 28 21.5 55t21.5 54q2 7 6 13t9 11l1 1q-3 -5 -5.5 -10.5t-6.5 -11.5h2q4 0 4 3q5 9 12 15.5t15 13.5v-1h-1l1 -1q5 5 9.5 10t9.5 10q5 2 0 5q-5 1 -7 4q-11 5 -19 12t-17 15q-11 11 -11 26q0 -3 0.5 -6t1.5 -7q-7 7 -4 21q3 9 5.5 17.5
t5.5 17.5q5 15 11 30l12 30q5 11 8.5 20.5t7.5 19.5q2 5 4 9t5 9q9 16 14.5 32.5t12.5 33.5q5 15 10.5 29.5t12.5 28.5q-2 2 0 2q4 0 4 6q7 19 13.5 37t12.5 37q1 3 4 3v1q0 1 0.5 1t0.5 1q1 2 2.5 4.5t2.5 5.5h1q2 -4 4 -10q3 -3 6 -3q6 -2 6 -8q-1 -2 -0.5 -3t0.5 -3v-6
q-2 -6 -2 -7l1 -1q0 2 1 3t2 3l1 -1v-2q-2 -11 -4.5 -21.5t-4.5 -21.5q-11 -42 -25.5 -82.5t-29.5 -81.5q-12 -33 -24.5 -66t-25.5 -66q-7 -15 -9 -34q-1 -4 4 -7q4 -1 12 -5q9 -3 13 -9q1 0 3 -2q15 -8 21 -22q0 -2 3 -5q6 -6 2 -11q-2 -3 -3.5 -5.5t-3.5 -5.5l-4 -4t-3 -4
l2 1q1 0 1 -1l-11 -11q-13 -11 -20.5 -25t-12.5 -31q-2 -8 -4.5 -16t-6.5 -16q-8 -17 -13.5 -34.5t-11.5 -35.5q-11 -32 -18.5 -63.5t-13.5 -63.5q-2 -8 -3 -15t-2 -15q-1 -2 -2 -2.5t-2 -2.5q1 2 1 5q3 17 6.5 33t6.5 33v3l2 10l2 10q-1 -3 -1.5 -6t-1.5 -8q0 -1 -0.5 -2.5
t-0.5 -3.5z" />
    <glyph glyph-name="asciitilde" unicode="~" horiz-adv-x="298" 
d="M296 286q0 -2 -2 -2q-5 1 -8 -1.5t-5 -4.5q-21 -20 -42.5 -38.5t-42.5 -37.5q-12 -11 -24 -21t-24 -21q-3 -3 -6.5 -5.5t-6.5 -2.5q-8 -1 -14 3t-12 9q-4 4 -7 6q-11 5 -11 14q-2 21 1 37q1 10 2.5 19.5t3.5 20.5q0 1 0.5 1.5t-0.5 2.5q-2 -2 -4.5 -5t-4.5 -5
q-20 -26 -39 -51.5t-36 -54.5q-2 -3 -2 -6t-2 -5v-2q-7 -8 -8.5 -7.5t-3.5 2.5q-3 -2 -5 0l-4 4t-4.5 3.5t-4.5 3.5q-4 4 -2 9l4 10t5 10q19 30 40 57.5t44 54.5q8 9 16.5 18t17.5 17q12 12 24 4q6 -5 11 -11l6 -10t7 -10q-5 0 -6 -2.5t-1 -6.5q-1 -17 -4.5 -32.5
t-7.5 -32.5q-1 -5 -2 -8.5t-2 -8.5q2 1 8 5.5t14 11.5l1 -1q2 2 4 2.5t4 2.5q23 20 46.5 38.5t46.5 38.5q4 2 7.5 5t7.5 5q7 4 10 1q3 0 3 -2q1 -4 3.5 -5t4.5 -3q3 -1 5 -6q0 -2 0.5 -3.5t0.5 -3.5z" />
    <glyph glyph-name="B" unicode="B" horiz-adv-x="300" 
d="M252 535q-10 -11 -21 -21.5t-22 -20.5q-12 -11 -18.5 -23.5t-11.5 -26.5q-13 -32 -25.5 -64t-24.5 -64q0 -1 -2 -5q-1 0 -1 1q10 29 19.5 57t20.5 57q-2 0 -2 1q-20 -58 -41 -115.5t-41 -115.5h-1q2 6 3.5 12t3.5 12h-1q-11 -27 -19.5 -55t-18.5 -56q9 34 19.5 67.5
t20.5 66.5h-1q0 -1 -0.5 -1.5t-0.5 -1.5q-9 -26 -17.5 -53t-16.5 -53q-10 -34 -19.5 -67.5t-18.5 -67.5q-5 -15 -8 -30t-7 -31q-1 -3 -1 -11q-11 1 -11 11q0 5 -2 7q-1 0 -1 1t-1 1q-1 1 -1.5 2t-2.5 2q0 -1 -2 -1q0 -7 -1 -11q0 -3 -1 -3q-2 0 -3 1l-4 2t-4 3q0 1 -3 1
q0 1 -2 7q-1 -3 -1 -5q-10 4 -13 8.5t-1 15.5q4 23 6.5 45.5t7.5 45.5q11 45 22.5 90t23.5 90q2 13 11.5 46.5t23 76.5t29.5 90.5t31.5 89t28 70.5t18.5 35q14 27 31 56q7 13 21 18q10 0 16 -7t11 -13q3 -5 5 -10l4 -10q2 -2 5 -2q5 0 7.5 -4t0.5 -9q-5 -10 -10 -19t-8 -19
q-2 -12 -7.5 -23t-8.5 -22q3 5 6 11.5t7 11.5q-3 -12 -5 -23q10 7 23.5 14t22.5 13q9 5 18 7.5t19 4.5q1 0 2 1q-2 0 -5 -0.5t-5 -0.5q6 5 17.5 4.5t17.5 -4.5q15 -10 20 -26q2 -4 6 -14q8 -20 9.5 -41t-9.5 -43q-10 -23 -23 -44.5t-27 -41.5l-93 -129q-11 -14 -20 -28
t-16 -31q0 -2 -1 -3q-7 -16 5 -31q13 -17 25.5 -33.5t21.5 -35.5q5 -10 9 -19t6 -20t1.5 -22.5t-1.5 -22.5q-1 -3 -1.5 -7.5t-2.5 -7.5q3 2 5 6t4 9q-2 -11 -5 -19.5t-5 -17.5q3 4 5 8q-7 -22 -22 -41t-28 -37q-26 -33 -58 -57q-6 -6 -13 -10q3 1 3 4q-2 -2 -4 -3t-4 -3
l-1 1q3 2 5.5 5t5.5 5l-1 1q-8 -6 -16 -12.5t-16 -12.5l-1 1q2 2 3 4l21 21q-12 -8 -24 -16.5t-24 -17.5q0 1 -1 1q6 4 11 7.5t10 7.5v1l-4 -2q-29 -20 -56.5 -37.5t-56.5 -34.5q-5 -2 -8.5 -3.5t-6.5 -3.5q-8 -3 -14 2q-5 3 -10 3.5t-10 0.5q-3 0 -7 2q-7 4 -14 7
q-4 3 -4 9q2 7 6 9q4 1 12 5q25 16 47.5 33t45.5 35q1 0 3 2q-3 -1 -6 -1l3 3q11 10 21.5 20t21.5 20q26 22 49 46.5t42 53.5q11 17 19.5 34t13.5 37q3 17 2 31.5t-12 27.5q-7 11 -14 21.5t-15 21.5q-17 21 -23 50q-1 18 7 36q6 15 14 28.5t17 26.5q15 22 29.5 43.5
t30.5 42.5q10 15 20.5 30t21.5 30l24 32t23 32q2 2 2.5 4.5t2.5 5.5q-10 0 -18 -3.5t-16 -7.5q5 2 8.5 5t8.5 6q-9 -2 -24.5 -12.5t-31 -23.5t-27.5 -25t-12 -18q13 15 26.5 29t29.5 25zM-16 -47q5 17 8.5 34.5t7.5 34.5q-2 -2 -5 -11.5t-6 -21.5t-4.5 -22.5t-0.5 -13.5z
M219 520q17 17 36 30t42 23q-24 -8 -42.5 -22t-35.5 -31zM207 518l16 14t16 15q-8 -6 -14.5 -12.5t-14.5 -13.5z" />
    <glyph glyph-name="C" unicode="C" horiz-adv-x="296" 
d="M71 382q1 1 1.5 1t1.5 2q5 13 10.5 25.5t11.5 25.5q2 5 4 6q-10 -23 -19.5 -47t-19.5 -48q1 0 1.5 -0.5t1.5 -0.5l3 9q11 32 25 62.5t30 60.5q8 17 17.5 33t18.5 33q11 18 22 35t25 33q17 20 34.5 38.5t37.5 35.5q5 5 10.5 9.5t10.5 9.5q2 2 4.5 3.5t5.5 3.5q-4 3 -7 2
t-6 -1q10 12 22 4q2 -1 6 -1q12 0 15 -11q2 -5 2.5 -10t2.5 -10q0 -3 2 -5q4 -1 4 -7q0 -3 2 -3q7 -7 7 -13q2 -7 3 -13t3 -13q6 -48 -12 -93q-5 -13 -10 -22q5 17 9.5 34.5t9.5 34.5q0 1 -2 1q-1 -5 -5 -15q-5 -14 -9.5 -27.5t-11.5 -26.5q-13 -26 -21.5 -53.5t-19.5 -53.5
q-3 -10 -7 -16q8 23 16 46.5t16 46.5h-1q-1 -1 -1 -2t-1 -2q-13 -36 -25.5 -71.5t-25.5 -71.5q-9 -28 -17.5 -55.5t-17.5 -56.5q-1 -3 -1 -6t-1 -6q-1 0 -1 -0.5t-1 -0.5q-1 2 -1.5 2.5t-1.5 2.5l-2 -2q-1 -1 -2 -1.5t-2 -1.5q-1 2 -1 2.5t-1 2.5l-2 2q-2 2 -2 4v9l-2 1
q-2 -4 -3 -5q-1 -2 -1 -3t-1 -3h-1q-2 8 -4 13q0 3 -4 5q-3 1 -3 5q-3 10 -1 19l4 18q2 11 4.5 21t5.5 20l12 38t13 38q10 29 19.5 58.5t20.5 58.5q5 14 9.5 27t9.5 27q1 2 1 3t1 3q-11 -8 -15 -18.5t-9 -21.5q3 19 7 33q-1 0 -1 0.5t-1 0.5q-2 -2 -4 -4.5t-4 -5.5
q-4 -9 -11 -14q-5 -4 -8 -8t-6 -9q-26 -32 -46 -66t-38 -71q-8 -17 -15 -33.5t-13 -33.5q-13 -32 -23 -64t-19 -65q-8 -26 -13 -51.5t-9 -51.5q-2 -2 0 -3q1 3 1 8q-5 -42 -7 -84t5 -84h1v28h1q0 -6 0.5 -12t1.5 -12q1 -17 4.5 -33t8.5 -33q1 -4 7 -3q11 3 20.5 9.5
t17.5 14.5q16 14 28.5 30t23.5 34q2 4 5 7.5t5 7.5q1 2 6 4q0 -3 -1 -5l1 -1q1 2 1.5 4t2.5 4q0 -4 1 -6q1 1 2 1.5t2 1.5q2 2 3 4t3 4q7 7 16 12q0 -2 -0.5 -3t0.5 -3v-5q2 0 3 0.5t3 0.5v-8q-1 -6 3 -10q2 -1 6 -1q6 -4 9 -7q1 -2 1 -7q0 -2 0.5 -4.5t-0.5 -4.5v-6
q-6 -12 -11.5 -24.5t-11.5 -25.5v-2q6 8 11 17.5t10 19.5h2q0 -4 -1 -6q-4 -9 -7.5 -18.5t-8.5 -18.5q-14 -26 -38 -48q-8 -9 -17.5 -17t-20.5 -13h5q15 2 25 9q21 14 39 37q2 2 4.5 5t5.5 6q0 -2 -1 -3q-10 -16 -22.5 -29.5t-28.5 -24.5q-22 -15 -50 -10h-1q-14 7 -28.5 11
t-27.5 13q-9 8 -18.5 15.5t-19.5 15.5q-8 7 -13.5 16t-10.5 19q-4 8 -8 16.5t-6 16.5q-3 13 -5.5 26t-4.5 26q-3 21 -4 42t0 42q2 37 6.5 72.5t12.5 71.5q9 38 19 75.5t24 73.5q11 29 24 57.5t27 56.5q17 34 36 66.5t41 63.5q0 2 2 2q-4 -6 -6 -10q-11 -17 -21.5 -35
t-20.5 -36q-12 -24 -23 -48.5t-22 -49.5q-3 -7 -5.5 -13.5t-5.5 -13.5q-3 -8 -6 -15.5t-6 -15.5q1 -1 2 -1q2 5 3.5 10t3.5 10zM144 -207v-2q14 -1 30 8q-17 -3 -30 -6z" />
    <glyph glyph-name="A" unicode="A" horiz-adv-x="264" 
d="M249 277l-4 2q-4 2 -4.5 1.5t-1.5 -3.5q-4 -19 -8.5 -37t-9.5 -36q0 -3 -2 -5q5 20 9 41t8 41h-1l-3 -18q-7 -28 -13 -55.5t-14 -55.5q-5 -20 -9.5 -41t-8.5 -41q-4 -14 -8 -28.5t-9 -28.5q0 -1 -0.5 -1.5t-0.5 -1.5q-6 -2 -9 2t-7 7q-2 -2 -3 -4.5t-4 -0.5t-5 3t-4 3
q-4 2 -7 3l-3.5 3.5l-3.5 3.5q-3 3 -3 7q1 16 2 31.5t3 30.5q4 32 7.5 62t8.5 60q2 17 5 33.5t8 33.5q0 5 1 9q-6 -1 -10.5 -1t-9.5 -1t-8.5 -1.5t-8.5 -1.5q-6 0 -8 -7q-8 -18 -14.5 -36t-13.5 -36q-3 -6 -5 -12l-4 -12q0 -2 -3 -3q-1 1 -1 4q4 10 7.5 19.5t5.5 19.5
q1 1 0 3q-18 -51 -35.5 -101.5t-31.5 -101.5h-2q2 7 4 13.5t4 14.5h-1q-3 -5 -3 -9q-17 -55 -32.5 -110.5t-28.5 -112.5q-2 -10 -4.5 -20t-5.5 -20q0 -7 4 -11q2 -5 1.5 -10t0.5 -10q-5 -2 -13 -4q-1 -1 -3 0t-4 1q-5 2 -9.5 4t-8.5 5q-2 2 -3 6.5t-1 8.5q2 11 3.5 22.5
t3.5 22.5q10 42 21 82t20 81l6 28t7 28q7 20 12.5 39t11.5 39q2 9 5 18t5 18q1 0 -1 2q0 -2 -0.5 -3.5t-0.5 -3.5q-3 -8 -6 -17l-6 -18q-8 -18 -13 -36.5t-13 -37.5q2 6 2 8q1 2 1 4t1 4q7 22 13 43.5t13 44.5q1 5 1 9.5t1 10.5q-2 -6 -2 -7q-1 0 -1 1q2 8 3.5 14.5
t3.5 14.5l27 90q3 9 2 11t-10 6q-6 3 -10 8.5t-8 10.5q-1 1 -0.5 3t2.5 4q17 13 36 11q5 0 8 4q5 17 11.5 33.5t13.5 33.5q16 36 31 72t35 70q20 33 39 66.5t42 64.5q9 12 19 23.5t20 22.5q2 3 4.5 5t5.5 4q5 5 15 1q3 0 1 -4q2 -6 7 -7q3 -2 5.5 -3.5t4.5 -3.5q5 8 11 15.5
t12 16.5q2 -7 8 -6q1 1 5 -1l9 -9q2 -4 2.5 -8t1.5 -8v-2q6 -4 6.5 -8.5t-1.5 -9.5q-11 -34 -21 -71q-5 -14 -9 -26.5t-8 -25.5q-8 -34 -18 -67t-19 -66q-10 -34 -18.5 -68t-18.5 -68q-1 -6 2 -14q2 -2 1.5 -4t1.5 -5zM184 455q-3 -3 -3 -5l-24 -52t-23 -53q-2 -5 -3.5 -9.5
t-3.5 -9.5h31q2 0 4 4q8 30 15.5 61t15.5 62v3q-5 -5 -8 -10.5t-6 -11.5l-7.5 -15t-6.5 -15q-4 -8 -7 -15t-7 -15q-1 3 0 4q4 8 7.5 17t6.5 18q5 11 9.5 21t9.5 21q2 4 4 7t4 7h-2q-4 -6 -6 -14z" />
    <glyph glyph-name="question" unicode="?" horiz-adv-x="453" 
d="M123 -272q4 -2 4 -5q1 -1 -1 -5l-4 -14l-4 -14q-2 -5 -3.5 -8.5t-3.5 -8.5q-2 2 -3.5 3t-2.5 3l-4 -2q-3 4 -4.5 4t-6.5 -2q-4 -2 -6 4q-1 6 1 11.5t4 11.5q0 2 0.5 3t0.5 3q-5 -5 -6 -12.5t-10 -10.5q2 5 3 8.5t3 8.5t3 9.5t-1 9.5q-1 2 0 5t2 5l5 3q1 1 5 3l2 -4l2 2
q3 4 7 0q1 -1 1 -2t2 -2q0 -1 2 -1q1 0 1 -1q2 2 3 1t3 -2q2 -2 6 -4zM579 703q1 -8 1 -15.5v-15.5q0 -13 -4 -24.5t-10 -22.5q-5 -13 -12.5 -24.5t-15.5 -22.5q-7 -11 -13 -21.5t-13 -21.5q-13 -20 -25 -39.5t-25 -39.5q-3 -5 -6 -9.5t-6 -9.5l-8 -12q-8 -14 -16.5 -26.5
t-16.5 -25.5l-2 -3q-56 -106 -104 -200q-21 -40 -41.5 -81.5t-39 -79t-33.5 -69t-23 -51.5q-1 -4 -4 -6q-5 -5 -15 -2q15 36 34 81q17 38 41 91t56 116q25 48 51 90.5t46 78.5q-1 -1 -1.5 -1t-1.5 -1q-1 0 -3 -4l-12 -22t-13 -22l-8 -12l-8 -12q-6 -9 -11.5 -19t-10.5 -20
l-12 -22l-12 -22q-7 -13 -13.5 -25.5t-13.5 -26.5q-14 -26 -26 -52q-2 -3 -3 -5.5t-2 -5.5l-5 -10.5t-12.5 -26.5t-15.5 -34t-15.5 -34t-12.5 -27l-5 -11q0 1 -1 1q1 2 6.5 14t13.5 29.5t17 37t17 37t13.5 29.5t6.5 14q-1 0 -1 1q-2 -2 -2.5 -4.5t-2.5 -4.5q-10 -22 -22 -44
q-2 -6 -5 -12t-5 -11q-6 -13 -11.5 -25.5t-11.5 -25.5q-2 -5 -4.5 -9.5t-4.5 -9.5q0 -1 -3 -4q3 8 6.5 16t6.5 16q8 17 15 33.5t15 33.5q7 16 14.5 32t15.5 32q5 12 11 24l12 24q9 17 17.5 34.5t17.5 35.5q2 4 4 7.5t4 8.5l-2 -2q-14 -26 -27 -52.5t-27 -53.5
q-10 -18 -19.5 -37t-18.5 -38q-7 -15 -14 -30.5t-14 -31.5q-6 -14 -11.5 -27.5t-10.5 -27.5q-3 -8 -4 -11t-3 -11q-3 -7 -4 -11t-3 -8v-8q-1 -3 -6 0q-1 0 -1.5 0.5t-1.5 0.5q-1 1 -2 1.5t-2 1.5q-3 2 -8 5.5t-10 7.5q-5 2 -3.5 11.5t3.5 19.5q3 11 8 26q2 3 2.5 6t1.5 5
q14 34 27.5 67t27.5 67q23 53 47.5 105t50.5 104q11 22 22 43.5t21 44.5q3 5 5.5 11t5.5 12q14 28 30 54.5t33 52.5q27 43 53.5 85t53.5 85l4 6t5 8q-4 0 -6.5 -0.5t-4.5 -0.5l-12 -2t-11 -2q-29 -5 -54 -15t-49 -23q-42 -23 -81 -47.5t-76 -52.5q-3 -3 -5 -4
q-19 -14 -33.5 -30t-25.5 -30q-12 -17 -22 -32q-17 4 -27 11t-16 13q-7 7 -10 15q-1 1 -1 2q-3 6 -2 14q0 2 1.5 7t3.5 7q5 12 13.5 22t18.5 20q22 23 47 42t51 36q70 45 146 79q29 13 57.5 24.5t58.5 20.5q21 7 47 7q19 0 35 -14q19 -19 24 -48q0 -4 1 -6.5t2 -6.5
q3 -8 3 -17zM365 678q26 11 51.5 22t51.5 20q-27 -8 -52.5 -18.5t-50.5 -23.5z" />
    <glyph glyph-name="quotedblleft" unicode="&#x201c;" horiz-adv-x="253" 
d="M204 629q-1 0 -2 1q-8 -23 -17 -44.5t-17 -43.5l-6 4l-1 -1v8l-5 -3l2 10l-2 1q-3 -9 -13 -10q0 3 -2 7q-2 2 -3 4.5t-3 3.5q-5 3 -3 9h-4v2l2 14t3 14q6 23 14.5 45.5t17.5 45.5q3 7 6.5 13.5t7.5 13.5q0 1 5 3q1 1 2 1t2 2q2 2 4 4.5t7 0.5v-3q5 4 8.5 1.5t7.5 -4.5
q8 -3 4 -13q6 -2 7 -2q-3 -1 -4 -4l5 4q1 0 1 -1t-2 -5q2 0 2.5 0.5t1.5 0.5q2 -3 3.5 -6.5t-0.5 -8.5q1 -10 -4 -17.5t-9 -15.5q-5 -11 -10.5 -23t-10.5 -23l-2 -4q3 12 7 19zM286 700q-5 -11 -10.5 -20.5t-10.5 -20.5l-33 -71l-9 -21l-1 1l25 58l-1 1q-2 -4 -3.5 -7.5
t-3.5 -7.5l-16 -38q-3 -8 -10 -12q-4 6 -8 2q0 4 1 5q24 67 52 128l9 19q5 8 12 11q3 1 10 -1l-3 -26q2 4 8 12q1 0 1 -1q-8 -19 -17.5 -36.5t-17.5 -36.5l-33 -75q-1 0 -2 1q0 1 0.5 1.5t0.5 2.5l57 125zM291 689l9 14l-67 -142l4 8l51 113l3 6v1v-1q-5 -8 -9 -16l-8 -16
l-33 -68q12 29 25.5 56.5t27.5 55.5l1 -1z" />
    <glyph glyph-name="quotedblright" unicode="&#x201d;" horiz-adv-x="259" 
d="M204 629q-1 0 -2 1q-8 -23 -17 -44.5t-17 -43.5l-6 4l-1 -1v8l-5 -3l2 10l-2 1q-3 -9 -13 -10q0 3 -2 7q-2 2 -3 4.5t-3 3.5q-5 3 -3 9h-4v2l2 14t3 14q6 23 14.5 45.5t17.5 45.5q3 7 6.5 13.5t7.5 13.5q0 1 5 3q1 1 2 1t2 2q2 2 4 4.5t7 0.5v-3q5 4 8.5 1.5t7.5 -4.5
q8 -3 4 -13q6 -2 7 -2q-3 -1 -4 -4l5 4q1 0 1 -1t-2 -5q2 0 2.5 0.5t1.5 0.5q2 -3 3.5 -6.5t-0.5 -8.5q1 -10 -4 -17.5t-9 -15.5q-5 -11 -10.5 -23t-10.5 -23l-2 -4q3 12 7 19zM286 700q-5 -11 -10.5 -20.5t-10.5 -20.5l-33 -71l-9 -21l-1 1l25 58l-1 1q-2 -4 -3.5 -7.5
t-3.5 -7.5l-16 -38q-3 -8 -10 -12q-4 6 -8 2q0 4 1 5q24 67 52 128l9 19q5 8 12 11q3 1 10 -1l-3 -26q2 4 8 12q1 0 1 -1q-8 -19 -17.5 -36.5t-17.5 -36.5l-33 -75q-1 0 -2 1q0 1 0.5 1.5t0.5 2.5l57 125zM291 689l9 14l-67 -142l4 8l51 113l3 6v1v-1q-5 -8 -9 -16l-8 -16
l-33 -68q12 29 25.5 56.5t27.5 55.5l1 -1z" />
    <glyph glyph-name="quoteright" unicode="&#x2019;" horiz-adv-x="123" 
d="M185 737q6 -1 7.5 -2.5t1.5 -8.5q1 -3 4 -5.5t6 -0.5q4 0 4 -1q2 -4 2 -7q-2 -11 -6 -20.5t-9 -19.5q-9 -18 -15 -36.5t-11 -37.5q-2 -10 -10 -4l-2 1q-5 -3 -6 -0.5t-2 4.5l-4 8t-4 9q0 2 -0.5 2.5t0.5 2.5q3 26 14 51q5 14 11 27.5t11 27.5q1 4 5 8q1 1 2 1t1 1z" />
    <glyph glyph-name="quoteleft" unicode="&#x2018;" horiz-adv-x="132" 
d="M185 737q6 -1 7.5 -2.5t1.5 -8.5q1 -3 4 -5.5t6 -0.5q4 0 4 -1q2 -4 2 -7q-2 -11 -6 -20.5t-9 -19.5q-9 -18 -15 -36.5t-11 -37.5q-2 -10 -10 -4l-2 1q-5 -3 -6 -0.5t-2 4.5l-4 8t-4 9q0 2 -0.5 2.5t0.5 2.5q3 26 14 51q5 14 11 27.5t11 27.5q1 4 5 8q1 1 2 1t1 1z" />
  </font>
</defs>
</svg>
