<?xml version="1.0" encoding="UTF-8"?>
<svg width="22px" height="19px" viewBox="0 0 22 19" version="1.1" xmlns="http://www.w3.org/2000/svg" xmlns:xlink="http://www.w3.org/1999/xlink">
    <!-- Generator: Sketch 64 (93537) - https://sketch.com -->
    <title>Group 13</title>
    <desc>Created with Sketch.</desc>
    <g id="Pages" stroke="none" stroke-width="1" fill="none" fill-rule="evenodd">
        <g id="Portfolio" transform="translate(-966.000000, -832.000000)">
            <g id="Group-13" transform="translate(967.000000, 833.233333)">
                <path d="M3,-1.77635684e-14 L17,-1.77635684e-14 C17.5522847,-1.78650215e-14 18,0.44771525 18,1 L18,10.7666667 L18,10.7666667 L2,10.7666667 L2,1 C2,0.44771525 2.44771525,-1.76621153e-14 3,-1.77635684e-14 Z" id="Rectangle" stroke="#FFFFFF"></path>
                <path d="M1.38742589,10.7666667 L18.6125741,10.7666667 C19.1648589,10.7666667 19.6125741,11.2143819 19.6125741,11.7666667 C19.6125741,11.8741488 19.5952462,11.980928 19.5612574,12.0828944 L18,16.7666667 L18,16.7666667 L2,16.7666667 L0.438742589,12.0828944 C0.264094816,11.5589511 0.547254803,10.9926311 1.07119812,10.8179834 C1.17316459,10.7839945 1.27994379,10.7666667 1.38742589,10.7666667 Z" id="Rectangle" stroke="#FFFFFF" transform="translate(10.000000, 13.766667) scale(1, -1) translate(-10.000000, -13.766667) "></path>
                <path d="M7.8903882,13.7666667 L12.1096118,13.7666667 C12.3390456,13.7666667 12.5390372,13.9228154 12.594683,14.1453989 L12.844683,15.1453989 C12.9116574,15.4132963 12.7487771,15.6847636 12.4808796,15.7517379 C12.4412193,15.761653 12.4004927,15.7666667 12.3596118,15.7666667 L7.6403882,15.7666667 C7.36424583,15.7666667 7.1403882,15.542809 7.1403882,15.2666667 C7.1403882,15.2257858 7.14540188,15.1850592 7.15531695,15.1453989 L7.40531695,14.1453989 C7.46096283,13.9228154 7.66095438,13.7666667 7.8903882,13.7666667 Z" id="Rectangle" fill="#FFFFFF"></path>
            </g>
        </g>
    </g>
</svg>