<?xml version="1.0" encoding="utf-8"?>
<!-- Generator: Adobe Illustrator 22.1.0, SVG Export Plug-In . SVG Version: 6.00 Build 0)  -->
<svg version="1.1" id="Layer_1" xmlns="http://www.w3.org/2000/svg" xmlns:xlink="http://www.w3.org/1999/xlink" x="0px" y="0px"
	 viewBox="0 0 498.7 181.2" style="enable-background:new 0 0 498.7 181.2;" xml:space="preserve">
<style type="text/css">
	.st0{fill:#76BC43;}
</style>
<g>
	<g>
		<g>
			<path class="st0" d="M248.9,159.2c0-4.4,0.2-5.9,0.8-7.8c1.5-4.7,5.2-7.1,10.2-7.1c4.9,0,8.4,2.4,10,6.4c0.1,0.2,0,0.4-0.2,0.5
				l-4.6,2.1c-0.3,0.1-0.5,0-0.6-0.2c-0.8-1.9-2.2-3.3-4.6-3.3c-2.2,0-3.7,1.2-4.3,3.2c-0.3,1.1-0.5,2.1-0.5,6.2
				c0,4.1,0.1,5.1,0.5,6.2c0.6,2,2.1,3.2,4.3,3.2c2.4,0,3.8-1.4,4.6-3.3c0.1-0.3,0.3-0.3,0.6-0.2l4.6,2.1c0.3,0.1,0.3,0.3,0.2,0.5
				c-1.6,4-5.2,6.4-10,6.4c-5,0-8.7-2.4-10.2-7.1C249.1,165.1,248.9,163.6,248.9,159.2z"/>
			<path class="st0" d="M273.8,181.2c-0.3,0-0.4-0.2-0.4-0.4v-4.1c0-0.3,0.2-0.4,0.4-0.4h0.9c1.5,0,2.3-0.6,2.8-2.1l0.6-1.5l-7.6-19
				c-0.1-0.3,0.1-0.4,0.3-0.4h5.4c0.3,0,0.4,0.2,0.5,0.4l4.1,11.8h0.1l3.8-11.8c0.1-0.3,0.3-0.4,0.5-0.4h5.2c0.3,0,0.4,0.2,0.3,0.4
				l-8.3,21.8c-1.7,4.5-3.6,5.9-7.2,5.9h-1.4V181.2z"/>
			<path class="st0" d="M298.7,171.7L298.7,171.7v1.5c0,0.3-0.2,0.4-0.4,0.4h-5.1c-0.3,0-0.4-0.2-0.4-0.4v-27.9
				c0-0.3,0.2-0.4,0.4-0.4h5.1c0.3,0,0.4,0.2,0.4,0.4v9.8l0,0c0.9-1.4,2.7-2.4,5.4-2.4c3.4,0,5.9,1.6,6.9,4.9
				c0.5,1.6,0.7,3.1,0.7,5.8c0,2.6-0.2,4.2-0.7,5.8c-1.1,3.2-3.5,4.9-6.9,4.9C301.4,174,299.6,173.1,298.7,171.7z M305.3,166.8
				c0.3-0.8,0.4-1.7,0.4-3.5s-0.1-2.7-0.4-3.5c-0.5-1.5-1.6-2.2-3.2-2.2s-2.7,0.7-3.1,2.2c-0.3,0.8-0.4,1.7-0.4,3.5s0.1,2.7,0.4,3.5
				c0.5,1.4,1.6,2.2,3.1,2.2C303.8,169,304.9,168.3,305.3,166.8z"/>
			<path class="st0" d="M314.5,168.2c-0.4-1.3-0.7-2.7-0.7-4.9s0.3-3.6,0.7-4.9c1.2-3.7,4.4-5.8,8.8-5.8c4.5,0,7.7,2.2,8.8,5.8
				c0.4,1.4,0.7,2.8,0.7,6.3c0,0.3-0.2,0.4-0.5,0.4h-12.4c-0.2,0-0.3,0.1-0.3,0.3c0,0.4,0.1,0.8,0.3,1.1c0.6,1.8,2.1,2.7,4.2,2.7
				c2,0,3.5-0.7,4.7-1.8c0.2-0.2,0.4-0.2,0.6,0l2.8,2.6c0.2,0.2,0.2,0.4,0,0.6c-1.9,2.1-4.9,3.4-8.7,3.4
				C318.9,174,315.6,171.9,314.5,168.2z M326.6,161.2c0.2,0,0.3-0.1,0.3-0.3c0-0.6-0.1-1.1-0.2-1.5c-0.5-1.4-1.7-2.2-3.4-2.2
				c-1.7,0-3,0.8-3.4,2.2c-0.1,0.4-0.2,0.9-0.2,1.5c0,0.2,0.1,0.3,0.3,0.3H326.6z"/>
			<path class="st0" d="M336.2,173.6c-0.3,0-0.4-0.2-0.4-0.4v-19.6c0-0.3,0.2-0.4,0.4-0.4h5.1c0.3,0,0.4,0.2,0.4,0.4v1.7l0,0
				c1-1.6,2.8-2.6,5.3-2.6c1.4,0,2.7,0.5,3.6,1.2c0.2,0.2,0.3,0.3,0.1,0.6l-2.4,4.3c-0.2,0.2-0.3,0.2-0.6,0.1c-1-0.6-1.9-1-3-0.9
				c-2.2,0.1-3.2,1.7-3.2,4.4v10.8c0,0.3-0.2,0.4-0.4,0.4H336.2z"/>
			<path class="st0" d="M350.6,170.9c-0.2-0.2-0.2-0.4,0-0.6l2.7-3.1c0.2-0.2,0.4-0.2,0.6,0c1.8,1.4,4.1,2.2,6.3,2.2
				c2.2,0,3.2-0.8,3.2-1.9c0-1-0.6-1.6-2.9-1.8l-2.3-0.3c-4.3-0.4-6.7-2.6-6.7-6.3c0-4,3.1-6.6,8.4-6.6c3.5,0,6.4,1.1,8.3,2.5
				c0.2,0.2,0.2,0.4,0,0.6l-2.4,2.9c-0.2,0.2-0.4,0.2-0.6,0.1c-1.4-0.9-3.4-1.6-5.5-1.6c-1.7,0-2.6,0.7-2.6,1.7
				c0,0.9,0.5,1.5,2.8,1.7l2.2,0.3c4.8,0.5,6.8,2.8,6.8,6.2c0,4.2-3.3,7-9.1,7C355.7,174,352.6,172.6,350.6,170.9z"/>
			<path class="st0" d="M371.7,168.2c-0.4-1.3-0.7-2.7-0.7-4.9s0.3-3.6,0.7-4.9c1.2-3.7,4.4-5.8,8.8-5.8c4.5,0,7.7,2.2,8.8,5.8
				c0.4,1.4,0.7,2.8,0.7,6.3c0,0.3-0.2,0.4-0.5,0.4h-12.4c-0.2,0-0.3,0.1-0.3,0.3c0,0.4,0.1,0.8,0.3,1.1c0.6,1.8,2.1,2.7,4.2,2.7
				c2,0,3.5-0.7,4.7-1.8c0.2-0.2,0.4-0.2,0.6,0l2.8,2.6c0.2,0.2,0.2,0.4,0,0.6c-1.9,2.1-4.9,3.4-8.7,3.4
				C376.1,174,372.9,171.9,371.7,168.2z M383.9,161.2c0.2,0,0.3-0.1,0.3-0.3c0-0.6-0.1-1.1-0.2-1.5c-0.5-1.4-1.7-2.2-3.4-2.2
				s-3,0.8-3.4,2.2c-0.1,0.4-0.2,0.9-0.2,1.5c0,0.2,0.1,0.3,0.3,0.3H383.9z"/>
			<path class="st0" d="M392.8,168.2c-0.4-1.2-0.6-2.7-0.6-4.9s0.2-3.7,0.6-4.9c1.2-3.8,4.5-5.8,8.8-5.8c3.5,0,6.3,1.6,7.7,3.8
				c0.1,0.2,0.1,0.4-0.1,0.6l-3.7,2.4c-0.3,0.2-0.5,0.1-0.6-0.1c-0.9-1.2-1.8-1.8-3.3-1.8c-1.6,0-2.7,0.7-3.2,2.2
				c-0.3,0.8-0.4,1.8-0.4,3.5s0.1,2.7,0.4,3.5c0.5,1.5,1.6,2.2,3.2,2.2c1.5,0,2.4-0.5,3.3-1.8c0.2-0.2,0.4-0.3,0.6-0.1l3.7,2.4
				c0.2,0.2,0.2,0.4,0.1,0.6c-1.5,2.2-4.2,3.8-7.7,3.8C397.4,174,394.1,172,392.8,168.2z"/>
			<path class="st0" d="M424.7,173.6c-0.3,0-0.4-0.2-0.4-0.4v-1.5l0,0c-1.1,1.4-2.7,2.4-5.2,2.4c-4.5,0-6.9-3.2-6.9-7.6v-12.9
				c0-0.3,0.2-0.4,0.4-0.4h5.1c0.3,0,0.4,0.2,0.4,0.4v11.8c0,2.2,1.1,3.7,3.1,3.7s3.1-1.5,3.1-3.7v-11.8c0-0.3,0.2-0.4,0.4-0.4h5.1
				c0.3,0,0.4,0.2,0.4,0.4v19.6c0,0.3-0.2,0.4-0.4,0.4H424.7z"/>
			<path class="st0" d="M434.9,173.6c-0.3,0-0.4-0.2-0.4-0.4v-19.6c0-0.3,0.2-0.4,0.4-0.4h5.1c0.3,0,0.4,0.2,0.4,0.4v1.7l0,0
				c1-1.6,2.8-2.6,5.3-2.6c1.4,0,2.7,0.5,3.6,1.2c0.2,0.2,0.3,0.3,0.1,0.6l-2.4,4.3c-0.2,0.2-0.3,0.2-0.6,0.1c-1-0.6-1.9-1-3-0.9
				c-2.2,0.1-3.2,1.7-3.2,4.4v10.8c0,0.3-0.2,0.4-0.4,0.4H434.9z"/>
			<path class="st0" d="M452.5,149.8c-0.3,0-0.4-0.2-0.4-0.4v-4.2c0-0.3,0.2-0.4,0.4-0.4h5.1c0.3,0,0.4,0.2,0.4,0.4v4.2
				c0,0.3-0.2,0.4-0.4,0.4H452.5z M452.5,173.6c-0.3,0-0.4-0.2-0.4-0.4v-19.6c0-0.3,0.2-0.4,0.4-0.4h5.1c0.3,0,0.4,0.2,0.4,0.4v19.6
				c0,0.3-0.2,0.4-0.4,0.4H452.5z"/>
			<path class="st0" d="M469.6,173.8c-4.7,0-6.5-2.1-6.5-6.8v-9.3c0-0.2-0.1-0.3-0.3-0.3h-1.3c-0.3,0-0.4-0.2-0.4-0.4v-3.5
				c0-0.3,0.2-0.4,0.4-0.4h1.3c0.2,0,0.3-0.1,0.3-0.3v-5.5c0-0.3,0.2-0.4,0.4-0.4h5c0.3,0,0.4,0.2,0.4,0.4v5.5
				c0,0.2,0.1,0.3,0.3,0.3h2.6c0.3,0,0.4,0.2,0.4,0.4v3.5c0,0.3-0.2,0.4-0.4,0.4h-2.6c-0.2,0-0.3,0.1-0.3,0.3v9.1c0,1.5,0.5,2,1.9,2
				h1c0.3,0,0.4,0.2,0.4,0.4v4.2c0,0.3-0.2,0.4-0.4,0.4L469.6,173.8L469.6,173.8z"/>
			<path class="st0" d="M477.1,181.2c-0.3,0-0.4-0.2-0.4-0.4v-4.1c0-0.3,0.2-0.4,0.4-0.4h0.9c1.5,0,2.3-0.6,2.8-2.1l0.6-1.5l-7.6-19
				c-0.1-0.3,0.1-0.4,0.3-0.4h5.4c0.3,0,0.4,0.2,0.5,0.4l4.1,11.8h0.1l3.8-11.8c0.1-0.3,0.3-0.4,0.5-0.4h5.2c0.3,0,0.4,0.2,0.3,0.4
				l-8.3,21.8c-1.7,4.5-3.6,5.9-7.2,5.9h-1.4V181.2z"/>
		</g>
		<g>
			<g>
				<path class="st0" d="M0,94.6V121c0,6.2,5.1,11.3,11.3,11.3h12.8c6.2,0,11.3-5.1,11.3-11.3V86.2c0-1.6-1.3-2.8-2.8-2.8H11.3
					C5.1,83.4,0,88.4,0,94.6z"/>
			</g>
			<path class="st0" d="M72,83.4c6.2,0,11.3-5.1,11.3-11.3V68c0-6.2-5.1-11.3-11.3-11.3H38.2c-1.6,0-2.8,1.3-2.8,2.8v21
				c0,1.6,1.3,2.8,2.8,2.8L72,83.4z"/>
			<path class="st0" d="M9.9,56.7h22.7c1.6,0,2.8-1.3,2.8-2.8V36.5c0-1.6-1.3-2.8-2.8-2.8H9.9c-5.5,0-9.9,4.4-9.9,9.9v3.3
				C0,52.3,4.4,56.7,9.9,56.7z"/>
			<path class="st0" d="M81.2,0.1h-43c-1.6,0-2.8,1.3-2.8,2.8v28c0,1.6,1.3,2.8,2.8,2.8h43c6.2,0,11.3-5,11.3-11.3V11.3
				C92.4,5.1,87.4,0.1,81.2,0.1z"/>
			<g>
				<path class="st0" d="M396.6,34.3H385c-4.7,0-8.5,3.8-8.5,8.5V124c0,4.7,3.8,8.5,8.5,8.5h11.6c4.7,0,8.5-3.8,8.5-8.5V42.8
					C405,38.1,401.2,34.3,396.6,34.3z"/>
				<path class="st0" d="M383.5,28.2c-3.5,0-6.3-2.8-6.3-6.3V6.4c0-3.5,2.8-6.3,6.3-6.3H398c3.5,0,6.3,2.8,6.3,6.3v15.4
					c0,3.5-2.8,6.3-6.3,6.3h-14.5V28.2z"/>
			</g>
			<path class="st0" d="M215.1,0h-11.6c-4.7,0-8.5,3.8-8.5,8.5v34.8c-5.2-6.4-13.3-9.7-24.1-9.7c-16.3,0-27.6,7.9-32.4,23
				c-2.4,7.7-3.3,16.5-3.3,28.3s0.9,17.5,3.3,25.2c4.9,14.8,16.4,23,32.4,23c10.9,0,19-3.3,24.2-9.8c0.7,4.4,4.5,9.3,9.1,9.3h16.5
				c1.6,0,2.8-1.3,2.8-2.8V8.5C223.5,3.8,219.8,0,215.1,0z M194.6,99.6L194.6,99.6c-2.2,6.8-7.5,10.6-15,10.6
				c-7.7,0-13-3.7-15.2-10.6c-1.1-3.5-1.8-7.4-1.8-16.3s0.7-12.8,1.8-16.3c2.2-6.9,7.4-10.6,15.2-10.6c7.6,0,12.8,3.7,15,10.6
				c1.1,3.5,1.8,7.4,1.8,16.3S195.7,96.1,194.6,99.6z"/>
			<path class="st0" d="M316.7,113.6L304,101.7c-0.5-0.6-1.7-1.7-3.7-0.1c-5.9,5.5-12.8,8.1-21,8.1c-9.7,0-16.3-4.2-18.7-11.9
				c-0.6-1.5-0.9-3.2-1.1-5c0-0.4,0.1-0.5,0.5-0.5h50c2.8,0,5.1-0.9,6.8-2.6c2.1-2.1,2.8-5.1,2.7-6.6c-0.3-11.5-1.4-17.3-3.1-22.5
				c-5.6-17.1-20.6-26.8-41.2-26.8c-20.5,0-35.4,9.9-41,27c-2.2,6.5-3.1,13.5-3.1,22.7c0,8.7,1,15.6,3.3,22.5
				c5.6,17.3,20.9,27.2,42.1,27.2c16.4,0,30.8-5.7,40.4-15.9c0.5-0.5,0.8-1.2,0.8-1.9C317.6,114.7,317.3,114.1,316.7,113.6z
				 M258,72.5c0-2.7,0.3-4.9,1-7.2c2.2-6.8,8.4-10.8,16.4-10.8s14.1,4,16.4,10.7c0.7,2.3,1,4.5,1,7.2c0,1.2-0.7,1.9-1.9,1.9h-31
				C258.7,74.3,258,73.6,258,72.5z"/>
			<path class="st0" d="M367.5,109.7h-5.8c-4,0-5.5-3.5-5.5-9.1V8.5c0-4.7-3.8-8.5-8.5-8.5h-11.6c-4.7,0-8.5,3.8-8.5,8.5v95
				c0,16.4,13.3,29.8,29.8,29.8h4.5c4.7,0,8.5-3.8,8.5-8.5v-12.3C370.3,110.9,369.1,109.7,367.5,109.7z"/>
			<path class="st0" d="M465.9,71l-10.3-1.2c-11.4-1-12.3-3.9-12.3-7c0-4.5,4.1-7,11.1-7c8.3,0,17.7,2.8,25,7.5
				c1.4,0.8,2.7,0.6,3.6-0.5l10.9-13.4c0.9-1.2,0.8-2.8-0.3-3.9c-9.9-7.5-23.9-11.8-38.4-11.8c-24.6,0-39.3,11.5-39.3,30.7
				c0,17,11.1,27.4,31.2,29.4l10.5,1.2c10.6,1,12.7,3.4,12.7,7.4c0,5.2-5,8.2-13.8,8.2c-9.4,0-20-3.8-28.2-10.1
				c-1.3-1-2.6-1-3.7,0.1L412,114.7c-1.1,1.1-1.1,2.7,0,3.7l0,0c6.3,5.5,20.3,14.7,43.1,14.7c26,0,42.3-12.6,42.6-32.9
				C497.7,82.9,487,73.1,465.9,71z"/>
			<g>
				<path class="st0" d="M118,34.3h-11.6c-4.7,0-8.5,3.8-8.5,8.5V124c0,4.7,3.8,8.5,8.5,8.5H118c4.7,0,8.5-3.8,8.5-8.5V42.8
					C126.5,38.1,122.7,34.3,118,34.3z"/>
				<path class="st0" d="M105,28.2c-3.5,0-6.3-2.8-6.3-6.3V6.4c0-3.5,2.8-6.3,6.3-6.3h14.4c3.5,0,6.3,2.8,6.3,6.3v15.4
					c0,3.5-2.8,6.3-6.3,6.3H105V28.2z"/>
			</g>
		</g>
	</g>
	<g>
		<path class="st0" d="M489.9,32.4c-1.1,0-2.1-0.2-3.1-0.6c-0.9-0.4-1.8-0.9-2.5-1.6s-1.3-1.5-1.6-2.5c-0.4-0.9-0.6-2-0.6-3.1
			s0.2-2.1,0.6-3s0.9-1.8,1.6-2.5s1.5-1.3,2.5-1.6c0.9-0.4,2-0.6,3.1-0.6s2.1,0.2,3.1,0.6c0.9,0.4,1.8,0.9,2.5,1.6s1.3,1.5,1.6,2.5
			c0.4,0.9,0.6,2,0.6,3c0,1.1-0.2,2.1-0.6,3.1c-0.4,0.9-0.9,1.8-1.6,2.5s-1.5,1.3-2.5,1.6C492.1,32.2,491,32.4,489.9,32.4z
			 M489.9,30.8c0.9,0,1.7-0.1,2.4-0.4c0.7-0.3,1.4-0.7,1.9-1.3c0.5-0.6,1-1.2,1.3-2s0.4-1.6,0.4-2.5s-0.1-1.7-0.4-2.5
			c-0.3-0.7-0.7-1.4-1.3-2c-0.5-0.6-1.2-1-1.9-1.3c-0.7-0.3-1.6-0.4-2.4-0.4s-1.7,0.1-2.4,0.4c-0.7,0.3-1.4,0.7-1.9,1.3
			c-0.5,0.6-1,1.2-1.3,2c-0.3,0.7-0.4,1.6-0.4,2.5s0.1,1.7,0.4,2.5s0.7,1.4,1.3,2c0.5,0.6,1.2,1,1.9,1.3
			C488.3,30.7,489.1,30.8,489.9,30.8z M486.9,28.9c-0.2,0-0.3-0.1-0.3-0.3v-8c0-0.2,0.1-0.3,0.3-0.3h3.6c1,0,1.8,0.2,2.4,0.7
			s0.9,1.2,0.9,2c0,1.2-0.5,2-1.6,2.4l1.6,3.1c0.1,0.2,0,0.3-0.2,0.3h-1.8c-0.2,0-0.3-0.1-0.4-0.3l-1.4-2.8h-1
			c-0.1,0-0.2,0.1-0.2,0.2v2.6c0,0.2-0.1,0.3-0.3,0.3L486.9,28.9L486.9,28.9z M490.3,23.9c0.8,0,1.1-0.3,1.1-0.9s-0.4-0.9-1.1-0.9
			H489c-0.1,0-0.2,0.1-0.2,0.2v1.5c0,0.1,0.1,0.2,0.2,0.2h1.3V23.9z"/>
	</g>
</g>
</svg>
