<svg width="202" height="48" viewBox="0 0 202 48" fill="none" xmlns="http://www.w3.org/2000/svg">
<path d="M0.190702 11.249C0.190702 24.032 13.8577 25.7577 13.8577 34.9614C13.8577 38.1571 12.4592 39.3076 10.2344 39.3076C8.0095 39.3076 6.61102 38.1571 6.61102 34.9614V31.7656H0V34.514C0 41.6724 3.55978 45.763 10.4251 45.763C17.2904 45.763 20.8501 41.6724 20.8501 34.514C20.8501 21.731 7.18313 20.0053 7.18313 10.8016C7.18313 7.60586 8.45448 6.39148 10.6793 6.39148C12.9042 6.39148 14.1755 7.60586 14.1755 10.8016V12.6551H20.7866V11.249C20.7866 4.09054 17.2904 0 10.4886 0C3.68691 0 0.190702 4.09054 0.190702 11.249Z" fill="#22252A"/>
<path d="M33.512 45.2517H40.5044V30.4234L49.3403 0.511315H42.6657L37.326 20.9001L31.9864 0.511315H24.6761L33.512 30.4234V45.2517Z" fill="#22252A"/>
<path d="M69.6491 45.2517H76.8322V0.511315H70.6026V27.2916L63.4195 0.511315H54.6472V45.2517H60.9404V12.8469L69.6491 45.2517Z" fill="#22252A"/>
<path d="M99.8918 0.511315H89.6575L82.5379 45.2517H88.9582L90.166 37.1345H98.7476L99.9554 45.2517H107.011L99.8918 0.511315ZM94.425 8.43675L97.7941 31.0626H91.056L94.425 8.43675Z" fill="#22252A"/>
<path d="M123.108 0.511315H112.81V45.2517H119.803V28.4421H123.108C130.101 28.4421 133.533 24.5433 133.533 17.3848V11.5686C133.533 4.41012 130.101 0.511315 123.108 0.511315ZM123.108 6.9028C125.333 6.9028 126.541 7.92543 126.541 11.1212V17.8322C126.541 21.028 125.333 22.0506 123.108 22.0506H119.803V6.9028H123.108Z" fill="#22252A"/>
<path d="M137.281 6.9028H144.591V45.2517H151.584V6.9028H158.894V0.511315H137.281V6.9028Z" fill="#22252A"/>
<path d="M164.516 45.2517H171.509V0.511315H164.516V45.2517Z" fill="#22252A"/>
<path d="M178.592 34.514C178.592 41.6724 182.342 45.763 189.208 45.763C191.051 45.763 192.704 45.4434 194.102 44.9321C195.056 46.8495 197.026 48 200.141 48H201.095V41.7364H200.459C199.315 41.7364 198.806 41.6085 198.488 40.7776C199.378 39.1158 199.823 37.0067 199.823 34.514V11.249C199.823 4.09054 196.073 0 189.208 0C182.342 0 178.592 4.09054 178.592 11.249V34.514ZM185.584 10.8016C185.584 7.60586 186.983 6.39148 189.208 6.39148C191.432 6.39148 192.831 7.60586 192.831 10.8016V34.9614C192.831 38.1571 191.432 39.3715 189.208 39.3715C186.983 39.3715 185.584 38.1571 185.584 34.9614V10.8016Z" fill="#22252A"/>
<path d="M6.48388 27.0537C6.48388 28.7696 5.1004 30.1607 3.39379 30.1607C1.68718 30.1607 0.303706 28.7696 0.303706 27.0537C0.303706 25.3378 1.68718 23.9467 3.39379 23.9467C5.1004 23.9467 6.48388 25.3378 6.48388 27.0537Z" fill="#22252A"/>
<path d="M20.61 17.2889C20.61 19.0049 19.2265 20.3959 17.5199 20.3959C15.8133 20.3959 14.4298 19.0049 14.4298 17.2889C14.4298 15.573 15.8133 14.182 17.5199 14.182C19.2265 14.182 20.61 15.573 20.61 17.2889Z" fill="#22252A"/>
</svg>
