<?xml version="1.0" encoding="UTF-8"?>
<svg width="211px" height="91px" viewBox="0 0 211 91" version="1.1" xmlns="http://www.w3.org/2000/svg" xmlns:xlink="http://www.w3.org/1999/xlink">
    <title>tufts</title>
    <g id="Page-1" stroke="none" stroke-width="1" fill="none" fill-rule="evenodd">
        <g id="tufts" transform="translate(0.100000, 0.100000)" fill="#3172AE" fill-rule="nonzero">
            <polygon id="Path" points="38.1 11.5 51 11.5 51 19.5 60.6 19.5 60.6 0.6 0 0.6 0 26.9 9.7 26.9 9.7 11.4 22.3 11.4 22.3 58.8 11.9 58.8 11.9 68.3 48.6 68.3 48.6 58.8 38.2 58.8 38.2 11.5 38.1 11.5"></polygon>
            <path d="M105.7,68.4 L105.7,59.5 L100.3,59.5 L100.3,22.4 L79.7,22.4 L79.7,31.4 L87.1,31.4 L87.1,54.7 L86.7,55 C83.4,57.4 80.3,58.7 77.5,58.7 C75.2,58.7 73.6,58.1 72.7,57 C71.8,55.9 71.3,54.1 71.3,51.4 L71.3,22.5 L50.9,22.5 L50.9,31.5 L58.1,31.5 L58.1,55.4 C58.1,59.8 59.3,63.3 61.7,65.7 C64.1,68.1 67.5,69.3 71.9,69.3 C76.4,69.3 80.9,67.8 85.3,64.7 L87,63.5 L87,68.6 C88.1,68.4 104.9,68.4 105.7,68.4 L105.7,68.4 Z M132.6,0 C126.7,0 122.3,1.6 119.4,4.8 C116.5,8 115,12 115,16.8 L115,22.3 L108.5,22.3 L108.5,31.3 L115,31.3 L115,59.4 L108.5,59.4 L108.5,68.3 L135.8,68.3 L135.8,59.4 L128.2,59.4 L128.2,31.3 L135.8,31.3 L135.8,22.3 L128.2,22.3 L128.2,15.9 C128.2,9.5 131,8.1 133.3,8.1 C135.4,8.1 137,9.6 138.1,12.6 C138.8,12 146.4,6.1 147.2,5.5 C144.1,1.9 139.2,0 132.6,0 L132.6,0 Z" id="Shape"></path>
            <path d="M157.9,4.7 C156.8,5.5 153.9,7.6 153.9,7.6 C153.9,7.6 145.1,13.9 144.7,14.2 L144.7,22.3 L138.6,22.3 L138.6,31.3 L144.7,31.3 L144.7,57.6 C144.7,65.4 148.4,69.1 156.3,69.1 C159.7,69.1 163.2,68.4 166.8,67 L166.8,58.6 C165.4,59 164.1,59.3 163.1,59.3 C161,59.3 159.6,58.8 158.9,57.9 C158.3,57 158,55.6 158,53.4 L158,31.4 L166.9,31.4 L166.9,22.4 L158,22.4 C158,22.4 157.9,6.4 157.9,4.7 L157.9,4.7 Z M210.5,54.6 C210.5,51.4 209.6,48.7 208,46.5 C206.3,44.2 204,42.6 201.2,41.6 C198.3,40.6 193.8,39.6 188,38.5 C184.1,37.8 181.8,37.2 180.8,36.7 C179.7,36.1 179.1,35.2 179.1,34 C179.1,31.1 181.6,29.6 186.4,29.6 C192.4,29.6 196.1,31.3 197.4,34.6 L207.3,34.6 L207.3,21.9 L197.6,21.9 L197.6,23.9 L196.7,23.5 C193,21.9 189,21.2 184.8,21.2 C179.6,21.2 175.4,22.5 172.3,25.2 C169.2,27.8 167.7,31 167.7,34.8 C167.7,38.8 169.4,42.1 172.6,44.5 C175.9,47 181.5,48.9 189.2,50.1 C193.1,50.7 195.7,51.4 197,52.2 C198.5,53 199.3,54.2 199.3,55.7 C199.3,57.3 198.5,58.6 196.9,59.6 C195.4,60.5 193.3,61 190.6,61 C187.6,61 184.9,60.3 182.8,58.9 C180.9,57.6 179.8,55.8 179.5,53.6 L169.5,53.6 L169.5,68.9 L179.4,68.9 L179.4,65.4 L180.6,66.7 C182.6,68.9 186.4,70 191.9,70 C197.9,70 202.6,68.5 205.8,65.7 C208.8,62.8 210.5,59.1 210.5,54.6 Z M24,77.4 C23.9,77.4 23.3,77.5 22.3,77.5 C21.2,77.5 20.4,77.4 20.2,77.4 C20.1,77.4 20.1,77.4 20.1,77.5 L20.1,77.9 C20.1,78 20.1,78 20.2,78 L20.8,78 C21.2,78 21.5,78.3 21.5,78.8 C21.6,79.2 21.7,80.7 21.7,82.1 L21.7,85.2 C21.7,86.5 21.4,87.4 20.7,88.1 C20.2,88.6 19.2,88.9 18.4,88.9 C17.6,88.9 16.7,88.6 16.1,87.8 C15.7,87.3 15.6,86.5 15.5,85.7 C15.5,85.2 15.4,83.9 15.4,83.1 L15.4,81 C15.4,80 15.4,79 15.5,78.8 C15.5,78.4 15.8,78.1 16.3,78.1 L17,78.1 C17.1,78.1 17.1,78.1 17.1,78 L17.1,77.6 C17.1,77.5 17.1,77.5 17,77.5 C16.8,77.5 16,77.6 14.5,77.6 C12.9,77.6 12,77.5 11.9,77.5 C11.8,77.5 11.7,77.5 11.7,77.6 L11.7,78 C11.7,78.1 11.7,78.2 11.8,78.2 L12.6,78.2 C13,78.2 13.2,78.5 13.2,79.1 L13.2,83.2 C13.2,85.4 13.3,86.6 13.5,87.3 C13.8,88.4 14.5,89.2 15.5,89.6 C16.2,89.9 17.1,90 18,90 C19.3,90 20.4,89.6 21.1,88.9 C22,88.1 22.4,87 22.5,85.6 C22.6,84.9 22.6,81.9 22.6,81.7 L22.6,78.9 C22.6,78.7 22.7,78.2 23.3,78.2 L23.9,78.2 C24,78.2 24,78.1 24,78 L24,77.6 C24.2,77.4 24.2,77.4 24,77.4 L24,77.4 Z M46.9,77.4 C46.7,77.4 46.3,77.5 45.3,77.5 C44.1,77.5 43.6,77.4 43.4,77.4 C43.3,77.4 43.3,77.4 43.3,77.5 L43.3,77.9 C43.3,78 43.3,78.1 43.4,78.1 L43.9,78.1 C44.3,78.1 44.7,78.3 44.8,78.8 C44.9,79.1 45,80.8 45,81.4 L45,86.4 L44.9,86.4 C44.6,86.1 42,82.7 41.7,82.5 C41.4,82 38,77.8 37.8,77.6 C37.7,77.5 37.6,77.4 37.4,77.4 L34.1,77.4 C34,77.4 34,77.4 34,77.5 L34,78 C34,78.1 34,78.1 34.1,78.1 L34.6,78.1 C35.4,78.1 35.9,78.9 35.9,79.9 L35.9,82.1 C35.9,84.8 35.8,87.2 35.8,87.5 C35.7,88.5 35.5,88.9 35,88.9 L34.4,88.9 C34.3,88.9 34.3,89 34.3,89 L34.3,89.4 C34.3,89.5 34.3,89.6 34.4,89.6 C34.6,89.6 35.7,89.5 36.2,89.5 C36.9,89.5 37.9,89.6 38.1,89.6 C38.2,89.6 38.2,89.6 38.2,89.5 L38.2,89.1 C38.2,89 38.2,88.9 38.1,88.9 L37.7,88.9 C37.1,88.9 36.9,88.5 36.8,87.6 C36.8,87.1 36.6,84.7 36.6,81.8 L36.6,79.7 L36.7,79.7 C36.9,79.9 39.6,83.4 39.9,83.6 C40.1,83.9 41.4,85.5 42.6,87 C43.7,88.3 44.6,89.3 44.7,89.5 C44.8,89.6 45,89.8 45.3,89.8 C45.5,89.8 45.5,89.6 45.5,89.3 L45.5,84.8 C45.5,83.1 45.7,80.2 45.8,79 C45.9,78.4 46,78.1 46.4,78.1 L46.9,78.1 C47,78.1 47,78 47,77.9 L47,77.5 C47,77.5 47,77.4 46.9,77.4 L46.9,77.4 Z M62.9,88.9 L62.2,88.9 C61.8,88.9 61.5,88.8 61.5,88.3 L61.5,82.7 L61.5,78.6 C61.5,78.3 61.8,78.1 62.2,78.1 L62.9,78.1 C63,78.1 63,78.1 63,78 L63,77.6 C63,77.5 63,77.4 62.9,77.4 C62.7,77.4 62.1,77.5 60.5,77.5 C58.8,77.5 57.9,77.4 57.7,77.4 C57.6,77.4 57.6,77.4 57.6,77.5 L57.6,77.9 C57.6,78 57.6,78 57.7,78 L58.6,78 C59.1,78 59.3,78.2 59.3,78.6 C59.3,78.8 59.4,81.9 59.4,82.3 L59.4,83.5 C59.4,84.4 59.4,88.1 59.3,88.4 C59.2,88.9 58.9,88.9 58.5,88.9 L57.8,88.9 C57.7,88.9 57.7,88.9 57.7,89 L57.7,89.5 C57.7,89.6 57.7,89.6 57.8,89.6 C58,89.6 58.7,89.5 60.4,89.5 C62,89.5 62.7,89.6 62.9,89.6 C63,89.6 63.1,89.6 63.1,89.5 L63.1,89.1 C63,89 63,88.9 62.9,88.9 L62.9,88.9 Z M85.6,77.4 C85.5,77.4 85,77.5 83.6,77.5 C82.5,77.5 81.7,77.4 81.6,77.4 C81.5,77.4 81.5,77.4 81.5,77.5 L81.5,77.9 C81.5,78 81.6,78.1 81.6,78.1 L82.1,78.1 C82.6,78.1 82.8,78.4 82.8,78.6 C82.8,79.3 81.7,81.9 81.5,82.7 C81.3,83.2 80.2,86.1 79.8,87 C79.5,86.1 78.6,83.4 78.4,82.7 C78.1,81.7 77.4,79.7 77.3,79.1 C77.2,78.9 77.2,78.7 77.2,78.5 C77.2,78.2 77.5,78.1 77.9,78.1 L78.7,78.1 C78.8,78.1 78.8,78 78.8,77.9 L78.8,77.5 C78.8,77.4 78.8,77.4 78.6,77.4 C78.5,77.4 77.7,77.5 76.1,77.5 C74.3,77.5 73.7,77.4 73.6,77.4 C73.5,77.4 73.5,77.4 73.5,77.5 L73.5,77.9 C73.5,78 73.5,78.1 73.6,78.1 L74,78.1 C74.4,78.1 74.6,78.3 74.7,78.6 C74.9,79.1 75.6,81.3 76.1,82.5 C76.7,84.1 78.1,88 78.7,89.5 C78.8,89.7 78.9,89.9 79.1,89.9 C79.2,89.9 79.4,89.8 79.4,89.7 C79.6,89.3 81.6,84.3 82,83.6 C82.5,82.5 83.5,79.8 84.1,78.9 C84.5,78.3 84.9,78.1 85.4,78.1 L85.8,78.1 C85.9,78.1 85.9,78 85.9,78 L85.9,77.6 C85.8,77.4 85.8,77.4 85.6,77.4 L85.6,77.4 Z M106,86.4 C105.9,86.4 105.9,86.4 105.8,86.5 C105.5,86.9 104.5,88 104.2,88.3 C103.8,88.7 103.1,88.8 102.8,88.9 C102.5,88.9 101.7,89 101.4,89 C100.7,89 100.3,88.9 100.1,88.9 C99.7,88.8 99.4,88.5 99.4,87.6 C99.4,87.3 99.4,85.6 99.3,84.7 L99.3,83.7 C99.8,83.7 100.7,83.7 101.3,83.8 C101.7,83.8 102,84.1 102.2,84.4 C102.3,84.6 102.4,85 102.5,85.3 C102.5,85.4 102.6,85.4 102.6,85.4 L103,85.3 C103.1,85.3 103.1,85.3 103.1,85.2 C103.1,84.8 103,84 103,83.3 L103,81.4 C103,81.3 103,81.3 102.9,81.3 L102.5,81.3 C102.4,81.3 102.4,81.3 102.4,81.4 C102.4,81.7 102.2,82.1 102.1,82.4 C101.9,82.8 101.7,82.9 101.3,83 C101.1,83.1 99.9,83.1 99.3,83.1 L99.3,78.1 L101.9,78.2 C102.4,78.2 102.8,78.4 103.2,78.6 C103.6,78.8 105,80.4 105.1,80.5 C105.2,80.6 105.2,80.6 105.3,80.6 L105.6,80.5 C105.7,80.5 105.7,80.4 105.7,80.3 C105.6,80.1 105,77.8 104.9,77.6 C104.9,77.5 104.8,77.5 104.8,77.5 L98.2,77.5 C96.8,77.5 96.2,77.4 95.8,77.4 C95.7,77.4 95.7,77.4 95.7,77.5 L95.7,77.9 C95.7,78 95.7,78 95.8,78 L96.5,78 C97,78 97.2,78.1 97.3,78.6 C97.3,78.8 97.4,81 97.4,82.4 L97.4,88.2 C97.4,88.8 97.3,88.9 96.5,88.9 L95.9,88.9 C95.8,88.9 95.7,88.9 95.7,89 L95.7,89.4 C95.7,89.5 95.7,89.5 95.8,89.5 C96.1,89.5 96.7,89.4 98,89.4 C103.7,89.4 105.1,89.5 105.2,89.5 C105.4,89.5 105.5,89.4 105.6,89.2 L106.4,86.6 L106.4,86.4 L106,86.4 L106,86.4 Z M128.2,89 C127.8,89 127.3,89 127,88.7 C126.7,88.5 125.6,86.9 125.5,86.7 C125.4,86.5 124.3,84.9 124.1,84.6 C123.9,84.3 123.6,84 123.1,83.8 L123.1,83.7 C125,83.4 126.3,82.5 126.3,80.3 C126.3,79.6 126,78.9 125.4,78.4 C124.7,77.8 123.7,77.3 122.3,77.3 C121.8,77.3 120.2,77.4 119.2,77.4 C117.5,77.4 117,77.3 116.9,77.3 C116.8,77.3 116.8,77.3 116.8,77.4 L116.8,77.9 C116.8,78 116.8,78 116.9,78 L117.6,78 C117.9,78 118.1,78.3 118.1,78.9 L118.1,88.3 C118.1,88.8 117.8,88.9 117.4,88.9 L116.8,88.9 C116.7,88.9 116.7,89 116.7,89 L116.7,89.4 C116.7,89.5 116.7,89.6 116.8,89.6 C117,89.6 117.4,89.5 119.1,89.5 C120.9,89.5 121.2,89.6 121.4,89.6 C121.5,89.6 121.6,89.6 121.6,89.4 L121.6,89 C121.6,88.9 121.6,88.9 121.5,88.9 L120.6,88.9 C120.3,88.9 120.2,88.6 120.2,88.2 C120.2,87.9 120.1,86 120.1,85 L120.1,84.1 L120.6,84.1 C121.3,84.1 121.7,84.6 122.1,85.2 C122.4,85.6 122.9,86.4 123,86.7 C123.2,87 123.8,88.2 124.1,88.7 C124.3,89.1 124.6,89.5 124.9,89.7 C125.3,89.7 125.9,89.6 126.4,89.6 C127.5,89.6 127.9,89.7 128.1,89.7 C128.2,89.7 128.2,89.6 128.2,89.5 L128.2,89.1 C128.3,89 128.3,89 128.2,89 L128.2,89 Z M120.8,83.6 C120.6,83.6 120.4,83.6 120.1,83.5 L120.1,78.6 C120.1,78.4 120.2,78.2 120.3,78.1 C120.4,78 120.6,78 120.9,78 C121.8,78 122.5,78.2 123.2,78.7 C123.6,79.1 124,79.8 124,80.6 C124,81.4 123.4,83.6 120.8,83.6 L120.8,83.6 Z M142.8,82.2 C142.1,82 141.2,81.6 140.7,81.1 C140.3,80.7 140.2,80.1 140.2,79.6 C140.2,79 140.7,77.9 142.1,77.9 C142.9,77.9 143.4,78.1 143.9,78.6 C144.5,79.3 144.8,79.9 145,80.4 C145,80.5 145.1,80.5 145.2,80.5 L145.5,80.4 C145.6,80.4 145.6,80.3 145.6,80.3 C145.6,80.1 145.3,77.7 145.3,77.5 C145.3,77.3 145.3,77.2 145.2,77.2 C145.1,77.2 145,77.2 145,77.3 L144.8,77.5 C144.7,77.6 144.6,77.6 144.4,77.6 C144.1,77.5 143.4,77.2 142.2,77.2 C141.2,77.2 140.5,77.4 139.8,78 C139,78.7 138.6,79.4 138.6,80.4 C138.6,81.4 138.9,82.3 139.5,82.8 C140.3,83.6 141.5,84 142,84.2 C143.8,84.9 144.5,85.4 144.5,87 C144.5,88.4 143.2,89 142.3,89 C141.4,89 140.6,88.6 140,87.8 C139.5,87 139.4,86.4 139.3,85.8 C139.3,85.7 139.3,85.7 139.2,85.7 L138.8,85.7 C138.7,85.7 138.7,85.7 138.7,85.8 C138.7,86 138.4,88.8 138.4,89 C138.4,89.2 138.5,89.3 138.6,89.3 C138.7,89.3 138.8,89.3 138.9,89.1 C139,88.9 139.1,88.8 139.2,88.8 C139.3,88.8 139.4,88.9 139.6,89 C140.3,89.5 141.1,89.8 142.5,89.8 C144.8,89.8 146.1,88.1 146.1,86 C146.1,84.9 145.8,84.1 145.2,83.5 C144.6,82.9 143.8,82.5 142.8,82.2 L142.8,82.2 Z M162.2,88.9 L161.5,88.9 C161.1,88.9 160.8,88.8 160.8,88.3 L160.8,82.7 L160.8,78.6 C160.8,78.3 161.1,78.1 161.5,78.1 L162.2,78.1 C162.3,78.1 162.3,78.1 162.3,78 L162.3,77.6 C162.3,77.5 162.3,77.4 162.2,77.4 C162,77.4 161.4,77.5 159.8,77.5 C158.1,77.5 157.2,77.4 157,77.4 C156.9,77.4 156.9,77.4 156.9,77.5 L156.9,77.9 C156.9,78 156.9,78 157,78 L157.9,78 C158.4,78 158.6,78.2 158.6,78.6 C158.6,78.8 158.7,81.9 158.7,82.3 L158.7,83.5 C158.7,84.4 158.7,88.1 158.6,88.4 C158.5,88.9 158.2,88.9 157.8,88.9 L157.1,88.9 C157,88.9 157,88.9 157,89 L157,89.5 C157,89.6 157,89.6 157.1,89.6 C157.3,89.6 158,89.5 159.7,89.5 C161.3,89.5 162,89.6 162.2,89.6 C162.3,89.6 162.4,89.6 162.4,89.5 L162.4,89.1 C162.3,89 162.3,88.9 162.2,88.9 Z M184.1,76.7 C184,76.7 183.9,76.8 183.8,76.9 C183.5,77.1 182.9,77.3 182.6,77.3 C181.8,77.3 181.1,77.4 179.2,77.4 L178.3,77.4 C176.6,77.4 175.9,77.3 175,77.3 C174.5,77.3 174.2,77.2 173.8,76.9 C173.7,76.8 173.6,76.7 173.5,76.7 C173.4,76.7 173.3,76.8 173.3,77 C173.2,77.2 172.6,79.5 172.5,80.2 C172.5,80.3 172.5,80.3 172.6,80.4 L172.9,80.5 C173,80.5 173,80.5 173.1,80.4 C173.4,79.8 174.1,78.7 174.6,78.4 C175.3,78.2 176.6,78.2 177.1,78.2 L177.6,78.2 L177.6,82.4 C177.6,82.7 177.6,88 177.5,88.4 C177.5,88.7 177.3,88.9 176.9,88.9 L175.9,88.9 C175.8,88.9 175.8,88.9 175.8,89 L175.8,89.4 C175.8,89.5 175.8,89.6 175.9,89.6 C176.1,89.6 176.9,89.5 178.6,89.5 C180.5,89.5 181,89.6 181.2,89.6 C181.3,89.6 181.4,89.5 181.4,89.4 L181.4,89 C181.4,88.9 181.4,88.8 181.3,88.8 L180.3,88.8 C179.9,88.8 179.7,88.5 179.7,87.2 L179.7,78.1 L180.2,78.1 C180.8,78.1 182.4,78.1 182.8,78.4 C183.3,78.7 183.9,79.8 184.2,80.3 C184.3,80.4 184.3,80.5 184.4,80.4 L184.7,80.3 C184.8,80.3 184.8,80.2 184.8,80.1 C184.7,79.3 184.3,77.2 184.3,76.8 C184.2,76.8 184.2,76.7 184.1,76.7 L184.1,76.7 Z M207,77.4 C206.8,77.4 206.5,77.5 205.4,77.5 C204.2,77.5 203.5,77.4 203.3,77.4 C203.2,77.4 203.2,77.4 203.2,77.5 L203.2,77.9 C203.2,78 203.2,78 203.3,78 L203.7,78 C204.2,78 204.3,78.3 204.3,78.6 C204.3,79 202.1,82.6 201.5,83.6 C201,82.6 199,78.8 198.9,78.5 C198.9,78.1 199,78 199.4,78 L199.8,78 C199.9,78 199.9,77.9 199.9,77.8 L199.9,77.4 C199.9,77.3 199.9,77.3 199.8,77.3 C199.6,77.3 199,77.4 197.3,77.4 C196,77.4 195.2,77.3 195,77.3 C194.9,77.3 194.9,77.3 194.9,77.4 L194.9,77.9 C194.9,78 194.9,78 195,78 L195.3,78 C195.6,78 196,78.1 196.2,78.4 C196.7,79 199.5,83.9 199.7,84.4 L199.7,85.2 C199.7,86.8 199.7,88.1 199.6,88.4 C199.6,88.7 199.4,88.8 199,88.8 L198.3,88.8 C198.2,88.8 198.2,88.9 198.2,88.9 L198.2,89.3 C198.2,89.4 198.2,89.5 198.3,89.5 C198.5,89.5 199,89.4 200.7,89.4 C202.2,89.4 202.9,89.5 203.1,89.5 C203.2,89.5 203.2,89.4 203.2,89.3 L203.2,88.9 C203.2,88.8 203.2,88.8 203.1,88.8 L202.5,88.8 C202.2,88.8 201.9,88.8 201.8,88.2 C201.8,88 201.7,86.9 201.7,86.2 L201.7,84.1 C202.4,83 205.2,78.6 205.5,78.3 C205.8,78 206.2,77.9 206.4,77.9 L206.8,77.9 C206.9,77.9 206.9,77.8 206.9,77.7 L206.9,77.3 C207.1,77.4 207.1,77.4 207,77.4 L207,77.4 Z" id="Shape"></path>
        </g>
    </g>
</svg>