<?xml version="1.0" encoding="UTF-8"?>
<svg width="217px" height="216px" viewBox="0 0 217 216" version="1.1" xmlns="http://www.w3.org/2000/svg" xmlns:xlink="http://www.w3.org/1999/xlink">
    <!-- Generator: Sketch 59.1 (86144) - https://sketch.com -->
    <title>Combined Shape</title>
    <desc>Created with Sketch.</desc>
    <g id="Scratch" stroke="none" stroke-width="1" fill="none" fill-rule="evenodd">
        <path d="M109.000074,25.4453827 L131.961617,6.4640338 C143.703404,9.10798165 154.693849,13.7365048 164.562093,19.9787431 L167.37505,49.6250778 L197.021056,52.4374909 C203.263422,62.3057925 207.892045,73.2963263 210.536053,85.0382202 L191.554757,108.000025 L210.53589,130.962556 C207.891903,142.703962 203.263463,153.694059 197.021399,163.562017 L167.37505,166.374973 L164.562093,196.021308 C154.694129,202.263369 143.704027,206.891807 131.962616,209.535792 L109.000074,190.554668 L86.0382577,209.535955 C74.2963581,206.891949 63.3058189,202.263328 53.4375125,196.020964 L50.625098,166.374973 L20.9787489,163.562017 C14.7365076,153.693779 10.1079822,142.703338 7.46403305,130.961557 L26.4453912,108.000025 L7.46409469,85.0382202 C10.1081026,73.2963263 14.7367258,62.3057925 20.9790922,52.4374909 L50.625098,49.6250778 L53.4375125,19.9790863 C63.3058189,13.736723 74.2963581,9.10810205 86.0382577,6.46409543 L109.000074,25.4453827 L131.961617,6.4640338 Z M109.000074,84.8843542 C96.5009697,84.8843542 86.3684436,95.2335927 86.3684436,108.000025 C86.3684436,120.766458 96.5009697,131.115697 109.000074,131.115697 C121.499178,131.115697 131.631704,120.766458 131.631704,108.000025 C131.631704,95.2335927 121.499178,84.8843542 109.000074,84.8843542 Z" id="Combined-Shape" stroke="#FFFFFF" stroke-width="12"></path>
    </g>
</svg>