<?xml version="1.0" encoding="UTF-8"?>
<svg width="67px" height="53px" viewBox="0 0 67 53" version="1.1" xmlns="http://www.w3.org/2000/svg" xmlns:xlink="http://www.w3.org/1999/xlink">
    <!-- Generator: Sketch 59.1 (86144) - https://sketch.com -->
    <title>Group 13</title>
    <desc>Created with Sketch.</desc>
    <g id="Pages" stroke="none" stroke-width="1" fill="none" fill-rule="evenodd">
        <g id="Group-13" transform="translate(-1.338928, -15.744333)" stroke="#A1F0BC" stroke-width="2">
            <rect id="Rectangle" x="14.7523788" y="37.8252343" width="39.5652174" height="29.6122209" rx="5"></rect>
            <line x1="61.2682425" y1="26.612935" x2="61.2682425" y2="51.5052186" id="Line-14" stroke-linecap="round"></line>
            <path d="M13.9168474,11.4595056 L44.9026405,22.2585796 C46.0679061,22.6646944 46.980496,23.5859127 47.3756276,24.7549483 L57.6761519,55.2300665 C58.0298373,56.2764796 57.4682705,57.4114837 56.4218574,57.7651691 C56.0250729,57.8992814 55.5961971,57.9054408 55.1957249,57.7827786 L24.0349944,48.2384359 C22.7782214,47.8534939 21.790769,46.8756837 21.3935138,45.6227484 L11.3521737,13.9525583 C11.0183373,12.8996447 11.6012645,11.7754617 12.654178,11.4416253 C13.0659541,11.3110677 13.5089333,11.3173406 13.9168474,11.4595056 Z" id="Rectangle" fill="#131415" transform="translate(34.534988, 34.534988) rotate(-225.000000) translate(-34.534988, -34.534988) "></path>
            <circle id="Oval" cx="34.5349875" cy="34.9462684" r="1.23384254"></circle>
            <line x1="36.0679434" y1="34.2412155" x2="61.2682425" y2="26.3093706" id="Line-13" stroke-linecap="round"></line>
            <line x1="59.9521438" y1="51.3975022" x2="62.5843412" y2="51.3975022" id="Line-15" stroke-linecap="round"></line>
            <line x1="59.9521438" y1="50.5749405" x2="62.5843412" y2="50.5749405" id="Line-15" stroke-linecap="round"></line>
            <line x1="59.9521438" y1="49.7523788" x2="62.5843412" y2="49.7523788" id="Line-15" stroke-linecap="round"></line>
            <line x1="59.9521438" y1="48.9298171" x2="62.5843412" y2="48.9298171" id="Line-15" stroke-linecap="round"></line>
            <line x1="59.9521438" y1="48.9298171" x2="62.5843412" y2="48.9298171" id="Line-15" stroke-linecap="round"></line>
            <line x1="59.9521438" y1="48.1072554" x2="62.5843412" y2="48.1072554" id="Line-15" stroke-linecap="round"></line>
        </g>
    </g>
</svg>