<?xml version="1.0" encoding="UTF-8"?>
<svg width="68px" height="53px" viewBox="0 0 68 53" version="1.1" xmlns="http://www.w3.org/2000/svg" xmlns:xlink="http://www.w3.org/1999/xlink">
    <!-- Generator: Sketch 59.1 (86144) - https://sketch.com -->
    <title>Group 17</title>
    <desc>Created with Sketch.</desc>
    <g id="Pages" stroke="none" stroke-width="1" fill="none" fill-rule="evenodd">
        <g id="Group-17" transform="translate(2.000000, -4.000000)" stroke="#A1F0BC" stroke-width="2">
            <path d="M19.5699448,22.6548337 L25.2344189,16.4298177 C26.698337,16.8494929 28.0944433,17.4277314 29.4026194,18.144572 L28.9713612,26.5185612 L37.4113858,26.090684 C38.1338937,27.3886532 38.7167005,28.7738683 39.1396866,30.2263671 L32.8655554,35.8464246 L39.1397013,41.4664317 C38.7166867,42.9190425 38.1338269,44.3043596 37.411246,45.6024163 L28.9713612,45.174288 L29.4026194,53.5482772 C28.0941461,54.2652806 26.6977026,54.8436189 25.2334211,55.2633175 L19.5699448,49.0380155 L13.9054707,55.2630315 C12.4416463,54.8433831 11.045625,54.2651918 9.73752135,53.5484149 L10.1685284,45.174288 L1.72864353,45.6024163 C1.00622839,44.3046573 0.423470163,42.9196778 0.000479275577,41.467431 L6.27433417,35.8464246 L0.000202922001,30.2263671 C0.423189054,28.7738683 1.0059959,27.3886532 1.72850378,26.090684 L10.1685284,26.5185612 L9.73752135,18.1444343 C11.0453278,17.4278202 12.4410119,16.8497288 13.9044729,16.4301037 L19.5699448,22.6548337 L25.2344189,16.4298177 Z M19.8086012,31.5842183 C17.3042817,31.5842183 15.2741297,33.5984872 15.2741297,36.0832138 C15.2741297,38.5679404 17.3042817,40.5822093 19.8086012,40.5822093 C22.3129206,40.5822093 24.3430726,38.5679404 24.3430726,36.0832138 C24.3430726,33.5984872 22.3129206,31.5842183 19.8086012,31.5842183 Z" id="Combined-Shape"></path>
            <path d="M51.442902,9.74742596 L55.1821381,5.61905058 C56.1488081,5.89741411 57.0706911,6.28098353 57.9344964,6.75651189 L57.6494434,12.3097649 L63.2211066,12.0256537 C63.6982114,12.8866048 64.0830524,13.8054417 64.3623388,14.7689175 L60.220277,18.4957983 L64.3623388,22.222679 C64.0830524,23.1861548 63.6982114,24.1049918 63.2211066,24.9659428 L57.6494434,24.6818316 L57.9344964,30.2350846 C57.0706911,30.710613 56.1488081,31.0941824 55.1821381,31.3725459 L51.442902,27.2441706 L47.7036658,31.3725459 C46.7369959,31.0941824 45.8151128,30.710613 44.9513075,30.2350846 L45.2363606,24.6818316 L39.6646974,24.9659428 C39.1875925,24.1049918 38.8027515,23.1861548 38.5234651,22.222679 L42.665527,18.4957983 L38.5237552,14.7679171 C38.8030179,13.8048056 39.1877577,12.8863068 39.6646974,12.0256537 L45.2363606,12.3097649 L44.9513075,6.75651189 C45.8151128,6.28098353 46.7369959,5.89741411 47.7036658,5.61905058 L51.442902,9.74742596 L55.1821381,5.61905058 Z M51.442902,15.4521972 C49.7563948,15.4521972 48.3892107,16.8148638 48.3892107,18.4957983 C48.3892107,20.1767327 49.7563948,21.5393994 51.442902,21.5393994 C53.1294091,21.5393994 54.4965932,20.1767327 54.4965932,18.4957983 C54.4965932,16.8148638 53.1294091,15.4521972 51.442902,15.4521972 Z" id="Combined-Shape" transform="translate(51.443010, 18.495798) rotate(-315.000000) translate(-51.443010, -18.495798) "></path>
        </g>
    </g>
</svg>