<?xml version="1.0" encoding="UTF-8"?>
<svg width="22px" height="20px" viewBox="0 0 22 20" version="1.1" xmlns="http://www.w3.org/2000/svg" xmlns:xlink="http://www.w3.org/1999/xlink">
    <!-- Generator: Sketch 64 (93537) - https://sketch.com -->
    <title>Group 11</title>
    <desc>Created with Sketch.</desc>
    <g id="Pages" stroke="none" stroke-width="1" fill="none" fill-rule="evenodd">
        <g id="Portfolio" transform="translate(-936.000000, -831.000000)">
            <g id="Group-11" transform="translate(936.000000, 832.000000)">
                <path d="M5,8.3 L11,5.5 L5,8.3 L10.1792706,10.6306718 C10.7012173,10.8655478 11.2987827,10.8655478 11.8207294,10.6306718 L17,8.3 L17,8.3 L17,16 C17,17.1045695 16.1045695,18 15,18 L7,18 C5.8954305,18 5,17.1045695 5,16 L5,8.3 L5,8.3 Z" id="Rectangle" stroke="#FFFFFF"></path>
                <path d="M11.9577043,0.522384143 L20.2413058,5.04071223 C20.7261541,5.30517496 20.9048119,5.9126116 20.6403492,6.39745994 C20.5365234,6.58780716 20.3736442,6.73925263 20.1762566,6.82897428 L11.8276059,10.6238155 C11.3017559,10.8628382 10.6982441,10.8628382 10.1723941,10.6238155 L1.82374342,6.82897428 C1.3209619,6.60043723 1.09864284,6.00758638 1.32717989,5.50480486 C1.41690154,5.30741723 1.56834702,5.14453799 1.75869424,5.04071223 L10.0422957,0.522384143 C10.6392507,0.196772337 11.3607493,0.196772337 11.9577043,0.522384143 Z" id="Rectangle" stroke="#FFFFFF"></path>
                <ellipse id="Oval" fill="#FFFFFF" cx="11" cy="5.5" rx="1" ry="1"></ellipse>
            </g>
        </g>
    </g>
</svg>