<?xml version="1.0" encoding="UTF-8"?>
<svg width="625px" height="821px" viewBox="0 0 625 821" version="1.1" xmlns="http://www.w3.org/2000/svg" xmlns:xlink="http://www.w3.org/1999/xlink">
    <!-- Generator: Sketch 59.1 (86144) - https://sketch.com -->
    <title>Shape</title>
    <desc>Created with Sketch.</desc>
    <g id="Pages" stroke="none" stroke-width="1" fill="none" fill-rule="evenodd">
        <g id="Desktop-HD" transform="translate(-815.000000, -3806.000000)" fill="#EA4C89">
            <path d="M1225.5,3806 C998.87937,3806 815,3989.87937 815,4216.5 C815,4443.12063 998.87937,4627 1225.5,4627 C1451.67565,4627 1636,4443.12063 1636,4216.5 C1636,3989.87937 1451.67565,3806 1225.5,3806 Z M1496.66399,3996 C1545.69156,4055.61616 1575.10826,4131.69429 1576,4214 C1564.4115,4211.7751 1448.52816,4188.19625 1331.7539,4202.87714 C1329.07951,4197.09421 1326.85057,4190.86498 1324.177,4184.63657 C1317.04555,4167.73078 1309.02236,4150.37951 1301,4133.91837 C1430.2545,4081.42074 1489.08708,4005.78808 1496.66399,3996 Z M1226.1639,3866 C1314.99018,3866 1396.26631,3899.45423 1458,3954.31952 C1451.78232,3963.24069 1398.93044,4034.16426 1274.57447,4081 C1217.28127,3975.28419 1153.7704,3888.74899 1144,3875.36723 C1170.20318,3869.12241 1197.73965,3866 1226.1639,3866 Z M1076.04425,3900 C1085.39017,3912.44971 1147.69796,3999.15571 1206,4102.31264 C1042.21986,4145.88743 897.577193,4145 882,4145 C904.697426,4036.50565 978.132014,3946.24282 1076.04425,3900 Z M875,4217.60367 C875,4214.03904 875,4210.47441 875,4206.90896 C890.150089,4207.35433 1060.36588,4209.58284 1235.48235,4157 C1245.73102,4176.60712 1255.08818,4196.65961 1264,4216.71293 C1259.54409,4218.04987 1254.64284,4219.38681 1250.18693,4220.72293 C1069.2777,4279.09974 973.029907,4438.6314 965.0096,4452 C909.310332,4390.05856 875,4307.61926 875,4217.60367 Z M1225.93829,4567 C1144.94757,4567 1070.18596,4539.38149 1011,4493.05438 C1017.23075,4480.13677 1088.43181,4342.93628 1286.01377,4273.89124 C1286.90411,4273.44603 1287.34887,4273.44603 1288.23921,4273 C1337.6347,4400.84537 1357.66041,4508.19967 1363,4538.93628 C1320.72478,4557.19967 1274.44425,4567 1225.93829,4567 Z M1420.06973,4507 C1416.51004,4485.57266 1397.82474,4382.90234 1352,4256.57394 C1461.89013,4239.16438 1557.98779,4267.73335 1570,4271.75113 C1554.87358,4369.51055 1498.81606,4453.87902 1420.06973,4507 Z" id="Shape"></path>
        </g>
    </g>
</svg>