<?xml version="1.0" encoding="UTF-8"?>
<svg width="220px" height="220px" viewBox="0 0 220 220" version="1.1" xmlns="http://www.w3.org/2000/svg" xmlns:xlink="http://www.w3.org/1999/xlink">
    <!-- Generator: Sketch 58 (84663) - https://sketch.com -->
    <title>Group 6</title>
    <desc>Created with Sketch.</desc>
    <g id="Page-1" stroke="none" stroke-width="1" fill="none" fill-rule="evenodd">
        <g id="Group-6" transform="translate(4.000000, 4.000000)">
            <path d="M212,106 C212,164.542622 164.542622,212 106,212 C47.4573778,212 0,164.542622 0,106 C0,47.4573778 47.4573778,0 106,0 C164.542622,0 212,47.4573778 212,106 Z" id="Stroke-1" stroke="#131415" stroke-width="8"></path>
            <polygon id="Fill-3" fill="#131415" points="115.799532 62.5990631 115.799532 121.398595 155 121.398595 155 141 57 141 57 92 76.6014053 92 76.6014053 121.398595 96.2004684 121.398595 96.2004684 62.5990631 57 62.5990631 57 43 155 43 155 62.5990631"></polygon>
            <text id="DESIGNS" font-family="LucidaGrande, Lucida Grande" font-size="24.4746" font-weight="normal" fill="#131415">
                <tspan x="56" y="172">DESIGNS</tspan>
            </text>
        </g>
    </g>
</svg>