<?xml version="1.0" encoding="UTF-8"?>
<svg width="93px" height="93px" viewBox="0 0 93 93" version="1.1" xmlns="http://www.w3.org/2000/svg" xmlns:xlink="http://www.w3.org/1999/xlink">
    <title>Group 6</title>
    <g id="Page-1" stroke="none" stroke-width="1" fill="none" fill-rule="evenodd">
        <g id="Artboard" transform="translate(-60.000000, -219.000000)">
            <g id="Group-6" transform="translate(61.500000, 220.500000)">
                <path d="M90,45 C90,69.853 69.853,90 45,90 C20.147,90 0,69.853 0,45 C0,20.147 20.147,0 45,0 C69.853,0 90,20.147 90,45 Z" id="Stroke-1" stroke="#131415" stroke-width="3"></path>
                <polygon id="Fill-3" fill="#131415" points="49.1699 26.7129 49.1699 51.8179 65.9069 51.8179 65.9069 60.1869 24.0649 60.1869 24.0649 39.2659 32.4339 39.2659 32.4339 51.8179 40.8019 51.8179 40.8019 26.7129 24.0649 26.7129 24.0649 18.3449 65.9069 18.3449 65.9069 26.7129"></polygon>
                <path d="M27.5734818,71.2135035 C28.7805158,71.2135035 29.7164786,70.8674189 30.3813702,70.1752497 C31.0462618,69.4830805 31.3787076,68.5079062 31.3787076,67.2497267 C31.3787076,66.2131777 31.1110461,65.3778011 30.5757231,64.7435968 C30.2381628,64.3446618 29.8383754,64.0616567 29.376361,63.8945813 C28.9143466,63.727506 28.3082723,63.6439684 27.5581382,63.6439684 L27.5581382,63.6439684 L25.0417792,63.6439684 L25.0417792,71.2135035 L27.5734818,71.2135035 Z M27.491649,70.410519 L26.1158349,70.410519 L26.1158349,64.4469528 L27.0006521,64.4469528 C27.7337378,64.4469528 28.2826995,64.5040653 28.6475375,64.6182903 C29.0123755,64.7325153 29.3260679,64.9447691 29.5886148,65.2550519 C30.0216468,65.7630972 30.2381628,66.4620858 30.2381628,67.3520177 C30.2381628,68.2999144 30.0182371,69.0551631 29.5783857,69.6177637 C29.1692217,70.1462673 28.4736428,70.410519 27.491649,70.410519 L27.491649,70.410519 Z M37.3371593,71.2135035 L37.3371593,70.410519 L33.9615558,70.410519 L33.9615558,67.6691198 L36.6057785,67.6691198 L36.6057785,66.8763645 L33.9615558,66.8763645 L33.9615558,64.4469528 L37.1172336,64.4469528 L37.1172336,63.6439684 L32.8875001,63.6439684 L32.8875001,71.2135035 L37.3371593,71.2135035 Z M40.0478712,71.4027419 C40.8491508,71.4027419 41.4927318,71.2032744 41.9786141,70.8043395 C42.4644964,70.4054045 42.7074376,69.8769009 42.7074376,69.2188287 C42.7074376,68.7551094 42.577869,68.3578793 42.3187317,68.0271384 C42.0595945,67.6963974 41.6026946,67.3451983 40.9480321,66.9735409 L40.9480321,66.9735409 L40.4058897,66.6666679 C39.9353511,66.3973015 39.6114295,66.1654419 39.4341251,65.971089 C39.2568207,65.776736 39.1681685,65.5534007 39.1681685,65.3010828 C39.1681685,65.0010292 39.2892128,64.752121 39.5313016,64.5543584 C39.7733903,64.3565958 40.0802633,64.2577145 40.4519207,64.2577145 C40.8440363,64.2577145 41.439029,64.4145607 42.2368989,64.7282531 L42.2368989,64.7282531 L42.2368989,63.7462594 C41.5890558,63.5519064 40.9736049,63.45473 40.3905461,63.45473 C39.7358836,63.45473 39.1971509,63.6431159 38.774348,64.0198878 C38.3515452,64.3966597 38.1401437,64.8765751 38.1401437,65.4596339 C38.1401437,65.8926659 38.2722696,66.271995 38.5365214,66.5976214 C38.8007732,66.9232478 39.2551158,67.2701849 39.8995492,67.6384325 L39.8995492,67.6384325 L40.4212334,67.940191 C40.8747236,68.1959186 41.1858587,68.4277782 41.3546389,68.6357699 C41.5234191,68.8437617 41.6078092,69.0960795 41.6078092,69.3927234 C41.6078092,69.7541517 41.479093,70.0456811 41.2216606,70.2673116 C40.9642282,70.4889422 40.6241106,70.5997574 40.2013077,70.5997574 C39.6523459,70.5997574 38.9516525,70.4019948 38.0992273,70.0064695 L38.0992273,70.0064695 L38.0992273,71.0702961 C38.8902779,71.2919266 39.5398258,71.4027419 40.0478712,71.4027419 Z M45.2749421,71.2135035 L45.2749421,63.6439684 L44.2008864,63.6439684 L44.2008864,71.2135035 L45.2749421,71.2135035 Z M50.5122421,71.4027419 C51.1941822,71.4027419 51.993757,71.2714684 52.9109664,71.0089215 L52.9109664,71.0089215 L52.9109664,67.9453056 L51.8420253,67.9453056 L51.8420253,70.410519 C51.4260418,70.536678 51.0390408,70.5997574 50.6810223,70.5997574 C49.8081389,70.5997574 49.1296085,70.3227193 48.6454311,69.7686429 C48.1612536,69.2145666 47.9191648,68.4380073 47.9191648,67.438965 C47.9191648,66.4296937 48.1450575,65.6471674 48.5968428,65.0913862 C49.0486281,64.535605 49.6836849,64.2577145 50.502013,64.2577145 C51.0577942,64.2577145 51.8573689,64.4350189 52.9007373,64.7896277 L52.9007373,64.7896277 L52.9007373,63.7974049 C52.0687704,63.5689549 51.2674908,63.45473 50.4968984,63.45473 C49.3205518,63.45473 48.406752,63.8033719 47.7554992,64.5006556 C47.1042464,65.1979394 46.77862,66.1739661 46.77862,67.4287359 C46.77862,68.7073736 47.0999843,69.6893674 47.7427128,70.3747172 C48.3854414,71.060067 49.3086178,71.4027419 50.5122421,71.4027419 Z M55.7137402,71.2135035 L55.7137402,65.367572 L59.5291951,71.2135035 L60.577678,71.2135035 L60.577678,63.6439684 L59.6570589,63.6439684 L59.6570589,69.4898999 L55.8467186,63.6439684 L54.7931211,63.6439684 L54.7931211,71.2135035 L55.7137402,71.2135035 Z M64.0146562,71.4027419 C64.8159358,71.4027419 65.4595167,71.2032744 65.9453991,70.8043395 C66.4312814,70.4054045 66.6742226,69.8769009 66.6742226,69.2188287 C66.6742226,68.7551094 66.5446539,68.3578793 66.2855167,68.0271384 C66.0263795,67.6963974 65.5694796,67.3451983 64.9148171,66.9735409 L64.9148171,66.9735409 L64.3726747,66.6666679 C63.902136,66.3973015 63.5782145,66.1654419 63.4009101,65.971089 C63.2236056,65.776736 63.1349534,65.5534007 63.1349534,65.3010828 C63.1349534,65.0010292 63.2559978,64.752121 63.4980865,64.5543584 C63.7401753,64.3565958 64.0470483,64.2577145 64.4187057,64.2577145 C64.8108212,64.2577145 65.405814,64.4145607 66.2036839,64.7282531 L66.2036839,64.7282531 L66.2036839,63.7462594 C65.5558408,63.5519064 64.9403898,63.45473 64.3573311,63.45473 C63.7026686,63.45473 63.1639359,63.6431159 62.741133,64.0198878 C62.3183301,64.3966597 62.1069287,64.8765751 62.1069287,65.4596339 C62.1069287,65.8926659 62.2390546,66.271995 62.5033064,66.5976214 C62.7675582,66.9232478 63.2219008,67.2701849 63.8663342,67.6384325 L63.8663342,67.6384325 L64.3880184,67.940191 C64.8415085,68.1959186 65.1526437,68.4277782 65.3214239,68.6357699 C65.4902041,68.8437617 65.5745941,69.0960795 65.5745941,69.3927234 C65.5745941,69.7541517 65.4458779,70.0456811 65.1884456,70.2673116 C64.9310132,70.4889422 64.5908955,70.5997574 64.1680927,70.5997574 C63.6191309,70.5997574 62.9184374,70.4019948 62.0660123,70.0064695 L62.0660123,70.0064695 L62.0660123,71.0702961 C62.8570628,71.2919266 63.5066108,71.4027419 64.0146562,71.4027419 Z" id="DESIGNS" fill="#131415" fill-rule="nonzero"></path>
            </g>
        </g>
    </g>
</svg>